<svg width="79" height="34" viewBox="0 0 79 34" fill="none" xmlns="http://www.w3.org/2000/svg">
<rect x="0.1" y="0.1" width="78.8" height="33.8" rx="7.9" fill="#ABF13C" stroke="black" stroke-width="0.2"/>
<path d="M16.7886 21.57L17.0046 19.248H23.2506L23.4486 21.57H16.7886ZM20.0826 16.026L18.3186 20.094L18.4626 20.76L16.8966 24H13.4586L20.0826 10.608L26.7246 24H23.2686L21.7566 20.886L21.8646 20.112L20.0826 16.026ZM30.4749 9.96V24H27.7569V9.96H30.4749ZM37.2429 19.86C37.2429 20.784 37.0509 21.57 36.6669 22.218C36.2949 22.854 35.8089 23.34 35.2089 23.676C34.6209 24.012 33.9849 24.18 33.3009 24.18C32.6169 24.18 32.0049 24.006 31.4649 23.658C30.9249 23.31 30.4989 22.812 30.1869 22.164C29.8749 21.516 29.7189 20.748 29.7189 19.86C29.7189 18.96 29.8749 18.192 30.1869 17.556C30.4989 16.908 30.9249 16.41 31.4649 16.062C32.0049 15.714 32.6169 15.54 33.3009 15.54C33.9849 15.54 34.6209 15.708 35.2089 16.044C35.8089 16.38 36.2949 16.866 36.6669 17.502C37.0509 18.138 37.2429 18.924 37.2429 19.86ZM34.3809 19.86C34.3809 19.428 34.2909 19.056 34.1109 18.744C33.9309 18.42 33.6909 18.174 33.3909 18.006C33.0909 17.826 32.7609 17.736 32.4009 17.736C32.0889 17.736 31.7829 17.82 31.4829 17.988C31.1949 18.156 30.9549 18.402 30.7629 18.726C30.5709 19.038 30.4749 19.416 30.4749 19.86C30.4749 20.304 30.5709 20.688 30.7629 21.012C30.9549 21.324 31.1949 21.564 31.4829 21.732C31.7829 21.9 32.0889 21.984 32.4009 21.984C32.7609 21.984 33.0909 21.9 33.3909 21.732C33.6909 21.552 33.9309 21.306 34.1109 20.994C34.2909 20.67 34.3809 20.292 34.3809 19.86ZM38.3983 19.86C38.3983 18.984 38.6023 18.222 39.0103 17.574C39.4183 16.926 39.9823 16.422 40.7023 16.062C41.4223 15.702 42.2323 15.522 43.1323 15.522C44.0323 15.522 44.8363 15.702 45.5443 16.062C46.2643 16.422 46.8283 16.926 47.2363 17.574C47.6563 18.222 47.8663 18.984 47.8663 19.86C47.8663 20.724 47.6563 21.48 47.2363 22.128C46.8283 22.776 46.2643 23.28 45.5443 23.64C44.8363 24 44.0323 24.18 43.1323 24.18C42.2323 24.18 41.4223 24 40.7023 23.64C39.9823 23.28 39.4183 22.776 39.0103 22.128C38.6023 21.48 38.3983 20.724 38.3983 19.86ZM41.1883 19.86C41.1883 20.292 41.2783 20.664 41.4583 20.976C41.6383 21.276 41.8723 21.51 42.1603 21.678C42.4483 21.846 42.7723 21.93 43.1323 21.93C43.4803 21.93 43.7983 21.846 44.0863 21.678C44.3863 21.51 44.6203 21.276 44.7883 20.976C44.9683 20.664 45.0583 20.292 45.0583 19.86C45.0583 19.428 44.9683 19.056 44.7883 18.744C44.6203 18.432 44.3863 18.192 44.0863 18.024C43.7983 17.856 43.4803 17.772 43.1323 17.772C42.7723 17.772 42.4483 17.856 42.1603 18.024C41.8723 18.192 41.6383 18.432 41.4583 18.744C41.2783 19.056 41.1883 19.428 41.1883 19.86ZM52.3455 20.76C52.3455 21.24 52.4355 21.618 52.6155 21.894C52.7955 22.158 53.1075 22.29 53.5515 22.29C53.8515 22.29 54.1035 22.23 54.3075 22.11C54.5235 21.99 54.6915 21.816 54.8115 21.588C54.9315 21.36 54.9915 21.084 54.9915 20.76V15.72H57.7095V24H54.9915V22.758C54.7395 23.202 54.4095 23.556 54.0015 23.82C53.5935 24.072 53.0835 24.198 52.4715 24.198C51.4395 24.198 50.6835 23.922 50.2035 23.37C49.7355 22.806 49.5015 22.032 49.5015 21.048V15.72H52.3455V20.76ZM58.883 15.72H64.427V17.97H58.883V15.72ZM60.341 12.84H62.951V24H60.341V12.84Z" fill="black"/>
</svg>
