<svg width="69" height="70" viewBox="0 0 69 70" fill="none" xmlns="http://www.w3.org/2000/svg">
<g filter="url(#filter0_d_44_255)">
<mask id="path-1-inside-1_44_255" fill="white">
<path fill-rule="evenodd" clip-rule="evenodd" d="M64.854 22.4843C64.854 18.7712 63.379 15.2103 60.7535 12.5848L52.7634 4.59464C50.1378 1.96913 46.5769 0.494141 42.8639 0.494141H26.1263C22.4132 0.494141 18.8523 1.96914 16.2268 4.59465L8.23641 12.585C5.61091 15.2105 4.13591 18.7715 4.13591 22.4845V39.2216C4.13591 42.9346 5.61091 46.4955 8.23642 49.1211L16.2271 57.1117C18.8526 59.7372 22.4136 61.2122 26.1266 61.2122H42.8636C46.5766 61.2122 50.1375 59.7372 52.763 57.1117L60.7535 49.1213C63.379 46.4958 64.854 42.9348 64.854 39.2218V22.4843Z"/>
</mask>
<path fill-rule="evenodd" clip-rule="evenodd" d="M64.854 22.4843C64.854 18.7712 63.379 15.2103 60.7535 12.5848L52.7634 4.59464C50.1378 1.96913 46.5769 0.494141 42.8639 0.494141H26.1263C22.4132 0.494141 18.8523 1.96914 16.2268 4.59465L8.23641 12.585C5.61091 15.2105 4.13591 18.7715 4.13591 22.4845V39.2216C4.13591 42.9346 5.61091 46.4955 8.23642 49.1211L16.2271 57.1117C18.8526 59.7372 22.4136 61.2122 26.1266 61.2122H42.8636C46.5766 61.2122 50.1375 59.7372 52.763 57.1117L60.7535 49.1213C63.379 46.4958 64.854 42.9348 64.854 39.2218V22.4843Z" fill="#ABF13C"/>
<path d="M16.2268 4.59465L16.5803 4.9482L16.2268 4.59465ZM60.3999 12.9383L52.4098 4.9482L53.1169 4.24109L61.1071 12.2312L60.3999 12.9383ZM42.8639 0.994141H26.1263V-0.00585938H42.8639V0.994141ZM16.5803 4.9482L8.58997 12.9386L7.88286 12.2315L15.8732 4.24109L16.5803 4.9482ZM4.63591 22.4845V39.2216H3.63591V22.4845H4.63591ZM8.58997 48.7675L16.5806 56.7582L15.8735 57.4653L7.88286 49.4746L8.58997 48.7675ZM26.1266 60.7122H42.8636V61.7122H26.1266V60.7122ZM52.4095 56.7582L60.3999 48.7677L61.1071 49.4748L53.1166 57.4653L52.4095 56.7582ZM64.354 39.2218V22.4843H65.354V39.2218H64.354ZM60.3999 48.7677C62.9317 46.236 64.354 42.8022 64.354 39.2218H65.354C65.354 43.0674 63.8263 46.7556 61.1071 49.4748L60.3999 48.7677ZM42.8636 60.7122C46.444 60.7122 49.8778 59.2899 52.4095 56.7582L53.1166 57.4653C50.3973 60.1846 46.7092 61.7122 42.8636 61.7122V60.7122ZM16.5806 56.7582C19.1124 59.2899 22.5462 60.7122 26.1266 60.7122V61.7122C22.2809 61.7122 18.5928 60.1846 15.8735 57.4653L16.5806 56.7582ZM4.63591 39.2216C4.63591 42.802 6.05823 46.2358 8.58997 48.7675L7.88286 49.4746C5.16358 46.7553 3.63591 43.0672 3.63591 39.2216H4.63591ZM8.58997 12.9386C6.05823 15.4703 4.63591 18.9041 4.63591 22.4845H3.63591C3.63591 18.6389 5.16358 14.9507 7.88286 12.2315L8.58997 12.9386ZM26.1263 0.994141C22.5459 0.994141 19.1121 2.41646 16.5803 4.9482L15.8732 4.24109C18.5925 1.52182 22.2806 -0.00585938 26.1263 -0.00585938V0.994141ZM52.4098 4.9482C49.8781 2.41645 46.4443 0.994141 42.8639 0.994141V-0.00585938C46.7095 -0.00585938 50.3976 1.52181 53.1169 4.24109L52.4098 4.9482ZM61.1071 12.2312C63.8263 14.9505 65.354 18.6386 65.354 22.4843H64.354C64.354 18.9039 62.9317 15.4701 60.3999 12.9383L61.1071 12.2312Z" fill="black" mask="url(#path-1-inside-1_44_255)"/>
<rect width="24.8655" height="3.46961" rx="1.7348" transform="matrix(-0.707107 0.707107 0.707107 0.707107 42.1611 20.9678)" fill="#0E0D14"/>
<rect width="24.8655" height="3.46961" rx="1.7348" transform="matrix(-0.707107 -0.707107 -0.707107 0.707107 44.4746 38.3159)" fill="#0E0D14"/>
</g>
<defs>
<filter id="filter0_d_44_255" x="0.135742" y="0.494141" width="68.7183" height="68.7183" filterUnits="userSpaceOnUse" color-interpolation-filters="sRGB">
<feFlood flood-opacity="0" result="BackgroundImageFix"/>
<feColorMatrix in="SourceAlpha" type="matrix" values="0 0 0 0 0 0 0 0 0 0 0 0 0 0 0 0 0 0 127 0" result="hardAlpha"/>
<feOffset dy="4"/>
<feGaussianBlur stdDeviation="2"/>
<feComposite in2="hardAlpha" operator="out"/>
<feColorMatrix type="matrix" values="0 0 0 0 0 0 0 0 0 0 0 0 0 0 0 0 0 0 0.25 0"/>
<feBlend mode="normal" in2="BackgroundImageFix" result="effect1_dropShadow_44_255"/>
<feBlend mode="normal" in="SourceGraphic" in2="effect1_dropShadow_44_255" result="shape"/>
</filter>
</defs>
</svg>
