<svg width="106" height="57" viewBox="0 0 106 57" fill="none" xmlns="http://www.w3.org/2000/svg">
<g filter="url(#filter0_d_44_250)">
<g clip-path="url(#clip0_44_250)">
<path d="M35.0543 9.54729C35.1075 9.61853 35.1341 9.70756 35.1341 9.81441H36.0656V9.84113C36.0656 9.93018 36.0478 10.0103 36.0124 10.0815L35.9325 10.2151H34.9479L34.6817 10.7494H34.8946L34.7616 11.0165H35.1874L35.1075 11.1501H34.2559L34.0696 11.5508H34.2293L34.1495 11.6843H33.8301L33.6971 11.9514H35.4801L35.214 12.4857H33.6438L33.5906 12.6193H33.2446L33.0317 13.0199H33.7769L33.5108 13.5542H34.0696L33.9898 13.6878H33.8035L33.7237 13.8213H33.564L33.2979 14.3556H33.3245L33.1914 14.6227H33.5906L33.5108 14.7563H33.2446L33.1648 14.8898H33.7503L33.6172 15.1569H34.6019L34.4688 15.4241H32.0205L31.8874 15.6912H33.564L33.3511 16.0919H33.0051L32.8188 16.4926H32.1535L32.1003 16.6261H32.26L32.1269 16.8932H31.9672L31.914 17.0268H32.4729L32.3398 17.2939H32.6059L32.4196 17.6946H31.914L31.8608 17.8282H31.7277L31.4616 18.3624H31.3817L31.3019 18.496H31.9672L31.8342 18.7631H32.26L32.0737 19.1638H30.4769L30.3439 19.4309H31.2487L31.0358 19.8316H30.6632L30.5834 19.9652L30.3705 20.3659H30.9027L30.8229 20.4994H31.8076L31.7543 20.633L31.6213 20.9001H29.4656L29.3326 21.1672H32.0471L31.7809 21.7015H30.3172L30.1842 21.9686V22.2357H29.439V22.5029H29.5721V23.0371H30.264V23.5714H27.2302V24.1056H30.3439V24.5063H29.2793V24.907H29.5721V25.0406H29.9447V25.5748H30.1576V25.7084H29.4656V25.9755H29.9713V26.5097H28.0552V27.044H27.6294V27.3111H29.4922C29.4922 27.5425 29.3858 27.7207 29.1729 27.8454H28.8535C28.7647 27.9165 28.6406 27.9522 28.481 27.9522H23.2649C23.1052 27.9522 22.981 27.9165 22.8923 27.8454H23.185C23.0076 27.7207 22.9011 27.5425 22.8657 27.3111H20.9762V27.044H21.402V26.5097H23.3181V25.9755H22.8125V25.7084H23.5044V25.5748H23.2915V25.0406H22.9189V24.907H22.6262V24.5063H23.6907V24.1056H20.577V23.5714H23.6108V23.0371H22.9189V22.5029H22.7858V22.2357H23.531V21.9686L23.3979 21.7015H24.8616L24.5955 21.1672H21.881L21.7479 20.9001H23.877L23.7439 20.633L23.6907 20.4994H22.706L22.6262 20.3659H22.0939L21.9076 19.9652H21.9342L21.8544 19.8316H22.227L22.0407 19.4309H21.1359L21.0028 19.1638H22.5996L22.3867 18.7631H21.9609L21.8278 18.496H21.1625L21.0826 18.3624H21.1891L20.923 17.8282H21.0294L20.9762 17.6946H21.4552L21.2423 17.2939H20.9762L20.8431 17.0268H20.2842L20.2044 16.8932H20.3641L20.231 16.6261H20.0713L19.9915 16.4926H20.6568L20.4439 16.0919H20.7899L20.577 15.6912H18.9003L18.7673 15.4241H21.2157L21.0826 15.1569H18.6342L18.5011 14.8898H19.0334L18.9802 14.7563H20.2044L20.1512 14.6227H20.2842L20.1512 14.3556H19.2197L18.9536 13.8213H19.0867L19.0068 13.6878H18.7939L18.714 13.5542H18.6874L18.4213 13.0199H17.8092L17.5963 12.6193H17.9157L17.8624 12.4857H15.5737L15.3076 11.9514H15.9197L15.7866 11.6843H17.41L17.3568 11.5508H18.0221L17.8092 11.1501H16.7181L16.6649 11.0165H18.1286L17.9955 10.7494H16.4254L16.1326 10.2151H17.0108L16.931 10.0815C16.8955 10.0103 16.8778 9.93018 16.8778 9.84113V9.81441H17.5963C17.5963 9.76099 17.6052 9.71648 17.6229 9.68085C17.6407 9.62743 17.6584 9.58292 17.6761 9.54729H18.1552C18.2616 9.3514 18.4302 9.25345 18.6608 9.25345H23.6641C23.8592 9.25345 24.0189 9.28016 24.1431 9.33359C24.285 9.38701 24.4003 9.45825 24.4891 9.54729H24.01C24.0633 9.58292 24.1075 9.62743 24.1431 9.68085C24.1963 9.73428 24.2318 9.7788 24.2495 9.81441H23.531C23.5664 9.88565 23.5842 9.92126 23.5842 9.92126L23.7173 10.2151H22.8657L23.1318 10.7494H24.7286L24.8616 11.0165H23.3713L23.4512 11.1501H24.5423L24.7286 11.5508H24.0633L24.1431 11.6843H22.5197L22.6528 11.9514H22.0141L22.2802 12.4857H24.5689L24.6487 12.6193H24.3028L24.5157 13.0199H25.1278L25.3939 13.5542H25.4205L25.5003 13.6878H25.7132L25.7665 13.8213H25.6334L25.8995 14.3556H26.5915L26.8576 13.8213H27.0173L27.0971 13.6878H27.31L27.3632 13.5542H26.8044L27.0705 13.0199H26.3253L26.5116 12.6193H26.8842L26.9374 12.4857H28.5076L28.7737 11.9514H26.964L27.0971 11.6843H27.4431L27.4963 11.5508H27.3366L27.5229 11.1501H28.3745L28.4544 11.0165H28.0285L28.1616 10.7494H27.9487L28.2148 10.2151H29.1995L29.3592 9.92126C29.3592 9.92126 29.3768 9.88565 29.4124 9.81441H28.481C28.5164 9.7788 28.5518 9.73428 28.5874 9.68085C28.6229 9.62743 28.6673 9.58292 28.7205 9.54729H30.0777C30.1664 9.45825 30.2817 9.38701 30.4237 9.33359C30.5656 9.28016 30.7253 9.25345 30.9027 9.25345H35.9059C36.1365 9.25345 36.3051 9.3514 36.4116 9.54729H35.0543ZM26.9374 15.1569L27.0705 14.8898H26.485L26.5382 14.7563H25.66L25.7399 14.8898H25.181L25.3141 15.1569H26.9374ZM53.7649 26.5097L53.9511 27.044H53.4987L53.552 27.1776C53.552 27.1953 53.552 27.222 53.552 27.2577C53.5697 27.2754 53.5786 27.2933 53.5786 27.3111H53.4189V27.3645C53.4189 27.5782 53.3391 27.7385 53.1794 27.8454H53.206C53.1173 27.9165 53.0019 27.9522 52.86 27.9522H47.9367C47.8124 27.9522 47.706 27.9432 47.6173 27.9255C47.5463 27.8898 47.4665 27.8631 47.3778 27.8454C47.2359 27.7741 47.1295 27.6939 47.0585 27.605C46.9874 27.4981 46.9342 27.4001 46.8988 27.3111H47.0318V27.2844L46.9786 27.1776L46.9254 27.044H47.3778L47.1915 26.5097H46.6859L46.606 26.2426H47.6972L47.5109 25.7084H47.1915L47.1117 25.5214H41.3899L41.3367 25.7084H41.0174L40.8311 26.2426H40.5383L40.4319 26.5097H40.2722L40.0859 27.044H40.1125L40.0593 27.1776L40.0327 27.2844L40.0061 27.3111H39.873C39.8376 27.4001 39.7844 27.4981 39.7133 27.605C39.6423 27.6939 39.5359 27.7741 39.394 27.8454H40.1924C40.1214 27.8631 40.0415 27.8898 39.9529 27.9255C39.8642 27.9432 39.7577 27.9522 39.6335 27.9522H34.7102C34.5683 27.9522 34.4618 27.9165 34.3908 27.8454H33.5924C33.415 27.7207 33.3263 27.5604 33.3263 27.3645V27.3111H33.486C33.486 27.2577 33.4948 27.2131 33.5126 27.1776L33.5392 27.044H33.5126L33.6989 26.5097H33.8586L33.965 26.2426H34.2577L34.444 25.7084H34.7368L34.9231 25.1741H33.8852L33.9916 24.907H33.9118L34.0448 24.5063H34.311L34.3642 24.3727H33.7787L33.965 23.8385H34.8698L34.9497 23.5714H34.1247L34.1779 23.4378H34.311L34.4973 22.9036H34.4174L34.5505 22.5029H34.6569L34.8432 21.9686H35.1892L35.3222 21.5679L35.3755 21.4344H36.7061L36.7593 21.3008H36.6795L36.8126 20.9001H35.3222L35.5085 20.3659H35.9876L36.0408 20.2323H35.7481L35.8013 20.0987H36.6529L36.8392 19.5645H35.8013L35.9077 19.2974H36.3069L36.4932 18.7631H36.2537L36.3868 18.3624H36.6795L36.8658 17.8282H36.7859L36.8392 17.6946H36.2271L36.3335 17.4275H36.919L37.0521 17.0268H36.7859L36.8126 16.8932H37.2916L37.4779 16.359H36.8924L37.0255 15.9583H36.7327L36.8126 15.6912H34.9763L35.0561 15.4241H34.7102L34.8964 14.8898H34.5505L34.7102 14.4891H35.7481L35.9343 13.9549H38.5956L38.7287 13.5542H37.4513L37.5577 13.2871H38.5424L38.7287 12.7528H37.8505L37.9835 12.3521H38.5424L38.7287 11.8179H38.6488L38.8351 11.2836H38.09L38.1166 11.1501H40.6714L40.8577 10.6158H40.7779L40.8311 10.4822H39.8996L40.0061 10.135L40.0859 9.94798H40.3521L40.5117 9.68085H40.4319C40.5206 9.5562 40.6448 9.45825 40.8045 9.38702C40.9641 9.29798 41.1593 9.25345 41.3899 9.25345H47.1649C47.3956 9.25345 47.5907 9.29798 47.7504 9.38702C47.9101 9.45825 48.0343 9.5562 48.123 9.68085H48.2294L48.3891 9.94798H48.123C48.1584 10.0192 48.1762 10.0815 48.1762 10.135L48.3093 10.4822H49.2407L49.2673 10.6158H49.3471L49.5334 11.1501H47.0052L47.0585 11.2836H47.8036L47.9899 11.8179H48.0697L48.256 12.3521H47.6972L47.8302 12.7528H48.7084L48.8947 13.2871H47.9101L48.0165 13.5542H49.2939L49.427 13.9549H46.7657L46.952 14.4891H45.9141L46.0472 14.8898H46.3665L46.5528 15.4241H45.5149L45.6214 15.6912H49.8528L49.9326 15.9583H49.7197L49.8528 16.359H49.3205L49.5068 16.8932H48.8681L48.8947 17.0268H49.8528L49.9859 17.4275H50.0125L50.1189 17.6946H49.2407L49.2939 17.8282H50.1455L50.3318 18.3624H50.6246L50.7576 18.7631H50.6778L50.8641 19.2974H51.2899L51.3963 19.5645H50.6246L50.8108 20.0987H51.3431L51.3697 20.2323H51.2367L51.2899 20.3659H50.8108L50.9705 20.9001H52.4874L52.6205 21.3008H52.7003L52.7536 21.4344H51.3963L51.4496 21.5679H51.4762L51.6092 21.9686H51.2633L51.4496 22.5029H51.3165L51.4762 22.9036H51.556L51.7423 23.4378H51.6092L51.6625 23.5714H52.4874L52.5939 23.8385H51.6625L51.8487 24.3727H52.4342L52.4874 24.5063H52.2213L52.381 24.907H52.4342L52.5407 25.1741H53.5786L53.7649 25.7084H54.0842L54.2705 26.2426H53.1794L53.2592 26.5097H53.7649ZM42.6407 15.9583H42.9601L42.827 16.359H43.9182L43.7851 15.9583H43.998L43.9182 15.6912H42.7206L42.6407 15.9583ZM43.519 16.8932L43.3859 16.4391L43.2528 16.8932H43.519ZM41.9222 20.0987L41.869 20.2323H42.1617L42.1351 20.3124H45.1423L45.1157 20.2323H45.2488L45.2222 20.0987H44.6899L44.5302 19.5645H45.302L45.2222 19.2974H44.7698L44.6101 18.7631H44.6899L44.5835 18.3624H44.2907L44.1311 17.8282H43.2795L43.2262 17.6946H44.1044L44.0246 17.4275H43.998L43.8649 17.0268H43.0133L42.9069 17.4275H42.3214L42.2416 17.6946H42.827L42.8004 17.8282H42.8803L42.7206 18.3624H42.4278L42.2948 18.7631H42.5343L42.3746 19.2974H41.9754L41.8956 19.5645H42.9335L42.7738 20.0987H41.9222ZM73.2423 26.5097L73.5616 27.044H72.3907L72.4173 27.0707C72.4349 27.0884 72.4439 27.1241 72.4439 27.1776C72.4615 27.231 72.4793 27.2754 72.4971 27.3111H72.4173V27.3645C72.4173 27.4357 72.4083 27.4981 72.3907 27.5515C72.3729 27.605 72.3463 27.6584 72.3108 27.7118H72.6568C72.6212 27.7652 72.577 27.8097 72.5237 27.8454H70.9802C70.8914 27.9165 70.7761 27.9522 70.6342 27.9522H64.5665C64.4601 27.9522 64.3625 27.9432 64.2738 27.9255C64.185 27.8898 64.1052 27.8631 64.0343 27.8454H65.5778C65.5246 27.8275 65.4448 27.7829 65.3383 27.7118H64.9923C64.9035 27.6405 64.8327 27.5692 64.7794 27.4981C64.7439 27.4268 64.7084 27.3734 64.673 27.3378L64.6464 27.3111H64.7262L64.5932 27.044H65.7375L65.4448 26.5097H67.8399L67.7601 26.3762H65.6843L65.6577 26.3228V26.3762H61.5061V26.5097H64.2738V27.044H62.5706V27.3111H59.9891C59.9891 27.3823 59.9714 27.4535 59.9359 27.5248C59.9003 27.596 59.8649 27.6584 59.8295 27.7118H59.59C59.5189 27.7829 59.4657 27.8275 59.4303 27.8454H57.7005C57.6117 27.9165 57.4876 27.9522 57.3279 27.9522H52.2449C52.0852 27.9522 51.9609 27.9165 51.8723 27.8454H53.5755C53.5399 27.8275 53.4867 27.7829 53.4158 27.7118H53.6553C53.6197 27.6584 53.5843 27.596 53.5489 27.5248C53.5133 27.4535 53.4957 27.3823 53.4957 27.3111H56.0505V27.044H57.7537V26.5097H54.986V26.3762H59.1375V25.9755H54.0545V25.5748H54.5335V25.0406H54.9593V24.7734H54.8795V24.2392H54.8263V23.7049H54.6134V23.3042H54.7731V23.0371H55.0658V22.5029H56.0239V22.1022H52.644V21.8351H52.4045V21.7015H55.4384V21.4344H55.7045V21.3008H52.2449V20.9001H52.6973V20.633H52.8569V20.0987H55.465V19.8316H56.1835V19.4309H52.8303V18.8967H53.7352V18.496H54.9061V18.3624H56.6892V18.0953H57.6206V17.6946H57.8069V17.5611H57.248V17.1604H55.465V17.0268H54.2142V16.4926H59.1908V16.2254H53.0698V15.9583H57.6738V15.5576H53.2295V15.2905H54.9593V15.0234H56.6093V14.4891H56.0771V14.0884H56.2368V13.6878H55.465V13.5542H54.9061V13.1535H54.7464V13.0199H55.0924V12.7528H55.4384V12.2186H52.511V12.085H52.6707V11.9514H53.7618V11.8179H53.3892V11.6843H55.4384V11.5508H54.9327V11.4172H54.9061V10.8829H55.0392V10.6158H56.8755V10.3487H57.115V10.0815H57.2214V9.94798H54.3739C54.3915 9.75209 54.4803 9.574 54.64 9.41373H54.9327C55.0392 9.30688 55.1899 9.25345 55.3852 9.25345H60.4682C60.6455 9.25345 60.7964 9.30688 60.9206 9.41373H60.6279C60.8052 9.5562 60.894 9.73428 60.894 9.94798H63.7415V10.0815H63.6351V10.3487H63.3956V10.6158H61.5593V10.8829H61.4262V11.4172H61.4529V11.5508H61.9585V11.6843H59.9093V11.8179H60.2819V11.9514H59.1908V12.085H59.0311V12.2186H61.5327L61.6125 12.085H62.4641L62.5174 11.9514H64.0609L64.1407 11.8179H62.5972L62.677 11.6843H63.1294L63.2093 11.5508H63.3424L63.4222 11.4172H63.6617L63.7149 11.2836H64.0077L64.2206 10.8829H64.0875L64.2472 10.6158H65.7641L65.8972 10.3487H64.673L64.806 10.0815H66.1367L66.1899 9.94798H64.3802L64.4335 9.84113C64.5221 9.66305 64.6552 9.52058 64.8327 9.41373H64.6198C64.7794 9.30688 64.9923 9.25345 65.2585 9.25345H71.1399C71.2996 9.25345 71.4326 9.30688 71.5391 9.41373H71.7786C71.9027 9.53839 71.9649 9.68085 71.9649 9.84113C71.9649 9.89455 71.9559 9.93018 71.9383 9.94798H73.7745C73.7745 9.96579 73.7656 9.9836 73.7479 10.0014C73.7479 10.0192 73.7479 10.0459 73.7479 10.0815H72.4439L72.3907 10.135L72.2842 10.3487H73.5084L73.3487 10.6158H71.8318L71.6721 10.8829H71.8052L71.5657 11.2836H71.2996L71.2197 11.4172H70.9802L70.9004 11.5508H70.7673L70.6875 11.6843H70.2084L70.1286 11.8179H71.6987L71.6189 11.9514H70.0754L69.9955 12.085H69.1439L69.0641 12.2186H69.2238L68.931 12.7528H69.9955L69.8359 13.0199H70.0754L69.9955 13.1535H70.0221L69.7826 13.5542H70.1552L70.0754 13.6878H70.102L69.8625 14.0884H69.3302L69.0907 14.4891H69.6496L69.3302 15.0234H69.0375L68.8778 15.2905H67.148L66.9883 15.5576H71.4326L71.1931 15.9583H66.5891L66.4294 16.2254H72.5503L72.3907 16.4926H67.4141L67.0947 17.0268H68.3455L68.2657 17.1604H70.0488L69.8092 17.5611H70.3681L70.2883 17.6946H70.102L69.8625 18.0953H68.931L68.8778 18.2022L68.9842 18.3624H67.2012L67.281 18.496H66.1101L66.3496 18.8967H65.4181L65.7375 19.4309H69.0907L69.3302 19.8316H68.6117L68.7713 20.0987H66.1633L66.4827 20.633H66.323L66.4827 20.9001H66.0302L66.2697 21.3008H69.7294L69.8092 21.4344H69.5165L69.6762 21.7015H68.931L69.0109 21.8351H68.7447L68.9044 22.1022H66.9351L67.1746 22.5029H69.4633L69.7826 23.0371H69.7294L69.8891 23.3042H70.102L70.3415 23.7049H70.8205L71.1399 24.2392H70.6608L70.9802 24.7734H71.0068L71.1399 25.0406H71.1931L71.5125 25.5748H71.6721L71.9116 25.9755H73.2423L73.4818 26.3762H75.5576L75.6374 26.5097H73.2423ZM61.4262 13.5542H61.9851V13.6878H62.5972L62.677 13.5542H62.3045L62.5174 13.1535H62.4907L62.5706 13.0199H62.3311L62.4641 12.7528H61.6125V13.0199H61.2666V13.1535H61.4262V13.5542ZM61.6125 15.0234H61.4795V15.2638L61.6125 15.0234ZM61.9585 21.7015H62.0383L61.9585 21.5145V21.7015ZM58.9246 21.8351H59.1642V22.1022H61.2666L61.1069 21.8351H61.373L61.2932 21.7015H58.9246V21.8351ZM60.5746 25.9755H64.1407L63.9278 25.5748H63.7415L63.4488 25.0406H63.3956L63.2625 24.7734H63.2359L62.9432 24.2392H63.4222L63.1294 23.7049H62.6504L62.4109 23.3042H62.198L62.0649 23.0371H62.1182L61.7988 22.5029H61.5859V23.0371H61.2932V23.3042H61.1335V23.7049H61.3464V24.2392H61.3996V24.7734H61.4795V25.0406H61.0537V25.5748H60.5746V25.9755ZM89.9727 17.6946H91.3033V18.2289H91.0638V18.7631H90.8243V19.1638H90.2654V19.2974H90.4783V19.4309H89.7332V19.6981H91.0106V20.0987H90.2388V20.2323H90.2654C90.2654 20.3213 90.2565 20.4103 90.2388 20.4994C90.2388 20.5884 90.2388 20.6774 90.2388 20.7666H90.2122C90.1944 20.82 90.1856 20.9001 90.1856 21.007V21.3008H90.0525C90.0348 21.3364 90.0259 21.3809 90.0259 21.4344C90.0259 21.4878 90.0259 21.5322 90.0259 21.5679H90.2921L90.2122 22.1022H89.9727C89.9549 22.1912 89.9371 22.2802 89.9195 22.3693C89.9195 22.4583 89.9017 22.5473 89.8663 22.6364H90.159C90.159 22.6541 90.15 22.672 90.1324 22.6899C90.1324 22.7076 90.1324 22.7343 90.1324 22.77H90.5316C90.5316 22.7877 90.5226 22.8056 90.505 22.8234C90.505 22.8411 90.505 22.8678 90.505 22.9036H90.0259C90.0081 22.9747 89.9904 23.046 89.9727 23.1173C89.9549 23.1707 89.9371 23.233 89.9195 23.3042H89.8396L89.68 23.7049H89.3872C89.3694 23.7761 89.3428 23.8473 89.3074 23.9186C89.2718 23.9721 89.2364 24.0343 89.2009 24.1056H89.4405C89.4049 24.1946 89.3606 24.2836 89.3074 24.3727H89.1477C89.1299 24.4439 89.0945 24.5152 89.0413 24.5864C89.0057 24.6399 88.9702 24.7021 88.9348 24.7734H89.7598L89.5735 25.0406H88.5888L88.2961 25.4412H88.5888L88.2163 25.8419H88.509C88.4912 25.8596 88.4646 25.8775 88.4292 25.8954C88.4114 25.9131 88.3936 25.9398 88.3759 25.9755H88.6953C88.6421 26.0111 88.5888 26.0556 88.5356 26.1091C88.5 26.1625 88.4558 26.2069 88.4026 26.2426H87.8969C87.8437 26.2782 87.7905 26.3228 87.7372 26.3762C87.684 26.4296 87.6218 26.474 87.551 26.5097H87.7372C87.684 26.5453 87.6218 26.5899 87.551 26.6433C87.4977 26.6967 87.4355 26.7412 87.3647 26.7769H87.3114C87.1518 26.8659 86.9921 26.9549 86.8324 27.044C86.6727 27.133 86.5041 27.222 86.3268 27.3111H86.2469C86.1937 27.3288 86.1405 27.3467 86.0873 27.3645C86.034 27.3823 85.9808 27.409 85.9276 27.4447C85.8033 27.4981 85.6791 27.5515 85.555 27.605C85.4485 27.6405 85.3243 27.6761 85.1824 27.7118H85.1558C84.5703 27.8898 83.9316 28.0234 83.2397 28.1125H83.2663C82.9824 28.1481 82.6808 28.1748 82.3615 28.1926C82.0598 28.2103 81.7582 28.2193 81.4566 28.2193C81.1373 28.2193 80.8268 28.2103 80.5252 28.1926C80.2235 28.1748 79.9219 28.1481 79.6204 28.1125C78.9461 28.0412 78.2986 27.9076 77.6776 27.7118H77.7043C77.58 27.6761 77.4558 27.6405 77.3317 27.605C77.2074 27.5515 77.0832 27.4981 76.9591 27.4447H76.9325C76.8793 27.409 76.826 27.3823 76.7728 27.3645C76.7196 27.3467 76.6664 27.3288 76.6131 27.3111H76.693C76.5155 27.222 76.347 27.133 76.1873 27.044C76.0276 26.9549 75.868 26.8659 75.7083 26.7769H75.7615L75.3623 26.5097H75.2027C75.1316 26.474 75.0696 26.4296 75.0164 26.3762C74.9631 26.3228 74.9099 26.2782 74.8567 26.2426H75.3623L75.043 25.9755H74.7236C74.7058 25.9398 74.688 25.9131 74.6704 25.8954C74.6526 25.8775 74.626 25.8596 74.5906 25.8419H74.3244C74.2534 25.7706 74.1824 25.7084 74.1115 25.6549C74.0583 25.5837 74.0051 25.5124 73.9519 25.4412H73.6591L73.3398 25.0406H74.3244L74.1648 24.7734H73.3132C73.2776 24.7021 73.2421 24.6399 73.2067 24.5864C73.1711 24.5152 73.1357 24.4439 73.1002 24.3727H73.2599C73.2067 24.2836 73.1623 24.1946 73.1269 24.1056H72.8874C72.8518 24.0343 72.8163 23.9721 72.7809 23.9186C72.7631 23.8473 72.7365 23.7761 72.7011 23.7049H73.0204L72.8607 23.3042H72.9406C72.9228 23.233 72.905 23.1707 72.8874 23.1173C72.8696 23.046 72.8518 22.9747 72.8341 22.9036H73.1269C73.1091 22.8678 73.1002 22.8234 73.1002 22.77H72.8341C72.8341 22.7343 72.8252 22.7076 72.8075 22.6899C72.8075 22.672 72.8075 22.6541 72.8075 22.6364H72.7543C72.7365 22.5473 72.7187 22.4583 72.7011 22.3693C72.6833 22.2802 72.6655 22.1912 72.6478 22.1022H72.7809C72.7631 22.013 72.7453 21.9241 72.7277 21.8351C72.7277 21.7459 72.7277 21.6569 72.7277 21.5679H72.568L72.5414 21.3008H72.7277V21.007C72.7277 20.9713 72.7187 20.9357 72.7011 20.9001C72.7011 20.8467 72.7011 20.8021 72.7011 20.7666H72.3551C72.3373 20.6774 72.3285 20.5884 72.3285 20.4994C72.3285 20.4103 72.3285 20.3213 72.3285 20.2323H72.5148V20.0987H72.4349V19.6981H72.9672V19.4309H72.0357V19.2974H72.5414V19.1638H72.5148V18.7631H72.3817V18.2289H72.5414V17.6946H72.3551V17.2939H71.3704V16.7597H72.5148C72.5324 16.724 72.5414 16.6795 72.5414 16.6261H72.9672V16.4926H72.6478V16.2254H72.6744L72.7277 15.6912H72.6744C72.6744 15.6199 72.6744 15.5576 72.6744 15.5042C72.6921 15.4329 72.7099 15.3616 72.7277 15.2905H72.6478C72.6478 15.2192 72.6478 15.1569 72.6478 15.1035C72.6655 15.0322 72.6833 14.961 72.7011 14.8898H72.6478C72.6655 14.8185 72.6833 14.7563 72.7011 14.7028C72.7187 14.6315 72.7365 14.5603 72.7543 14.4891H72.0091C72.0091 14.4534 72.0091 14.4267 72.0091 14.409C72.0268 14.3911 72.0357 14.3733 72.0357 14.3556H72.8341L72.914 14.0884H72.8607L72.914 13.9549H73.3132C73.3308 13.9192 73.3486 13.8747 73.3664 13.8213C73.384 13.7679 73.4018 13.7233 73.4196 13.6878H73.1535C73.2067 13.5275 73.2776 13.3493 73.3664 13.1535H73.2865C73.3398 13.0644 73.384 12.9754 73.4196 12.8864C73.4728 12.7795 73.5261 12.6904 73.5793 12.6193H73.6591L73.739 12.4857H73.3132L73.393 12.3521H73.8188L73.8986 12.2186H73.8454L74.1648 11.8179H73.9785L74.3244 11.4172C74.4131 11.3281 74.5018 11.2391 74.5906 11.1501C74.697 11.0432 74.8035 10.9541 74.9099 10.8829H74.6438L74.8035 10.7494H74.5107C74.5462 10.7137 74.5728 10.687 74.5906 10.6692C74.626 10.6514 74.6614 10.6336 74.697 10.6158H75.3623C75.4332 10.5802 75.5042 10.5357 75.5752 10.4822C75.6461 10.4288 75.7171 10.3843 75.7881 10.3487H75.868C76.0453 10.2596 76.2228 10.1706 76.4002 10.0815C76.5776 9.97469 76.755 9.88565 76.9325 9.81441H77.0123C77.3671 9.65414 77.7575 9.52058 78.1833 9.41373H78.3163C78.8308 9.27127 79.3719 9.16442 79.9397 9.09318C80.5074 9.02195 81.0929 8.98633 81.6962 8.98633C82.9558 8.98633 84.0735 9.1288 85.0494 9.41373H84.8897C85.0848 9.46715 85.2799 9.52949 85.4752 9.60072C85.6703 9.65414 85.8566 9.72538 86.034 9.81441H85.9276C86.1227 9.88565 86.3002 9.97469 86.4598 10.0815C86.6372 10.1706 86.8146 10.2596 86.9921 10.3487H86.8856L87.2848 10.6158H86.6195C86.6549 10.6336 86.6816 10.6514 86.6993 10.6692C86.7348 10.687 86.7702 10.7137 86.8058 10.7494H87.0985C87.134 10.7672 87.1694 10.785 87.205 10.8028C87.2404 10.8205 87.267 10.8472 87.2848 10.8829H87.551C87.6574 10.9541 87.7549 11.0432 87.8437 11.1501C87.9501 11.2391 88.0476 11.3281 88.1364 11.4172H88.163C88.2339 11.4883 88.2961 11.5596 88.3493 11.6309C88.4026 11.6843 88.4558 11.7466 88.509 11.8179H88.6953L89.0147 12.2186H89.0679C89.1211 12.272 89.1565 12.3164 89.1743 12.3521H88.7485L88.8284 12.4857H89.2808L89.3606 12.6193H89.2808C89.334 12.6904 89.3783 12.7795 89.4138 12.8864C89.4671 12.9754 89.5203 13.0644 89.5735 13.1535H89.6534L89.8929 13.6878H90.159L90.2388 13.9549H89.8396L89.8929 14.0884H89.9461L90.0259 14.3556H89.9461C89.9461 14.3733 89.9461 14.3911 89.9461 14.409C89.9637 14.4267 89.9727 14.4534 89.9727 14.4891H88.855C88.8904 14.5603 88.9082 14.6315 88.9082 14.7028C88.9259 14.7563 88.9436 14.8185 88.9614 14.8898H90.3453C90.3629 14.961 90.3719 15.0322 90.3719 15.1035C90.3895 15.1569 90.3985 15.2192 90.3985 15.2905H90.0259C90.0436 15.3616 90.0525 15.4329 90.0525 15.5042C90.0702 15.5576 90.0792 15.6199 90.0792 15.6912H90.4251L90.4783 16.2254H90.1324V16.3056C90.1324 16.3233 90.1324 16.35 90.1324 16.3857C90.15 16.4213 90.159 16.4569 90.159 16.4926H90.8775V16.6261H90.2388C90.2565 16.6617 90.2654 16.7063 90.2654 16.7597H90.7445C90.7621 16.8487 90.7711 16.9377 90.7711 17.0268C90.7711 17.1158 90.7711 17.2048 90.7711 17.2939H89.9727V17.6946ZM84.1445 18.2289H84.384V17.6946H83.0534V17.2939H83.8518C83.8518 17.2048 83.8518 17.1158 83.8518 17.0268C83.8518 16.9377 83.8428 16.8487 83.8252 16.7597H83.3461C83.3461 16.724 83.3372 16.6973 83.3195 16.6795C83.3195 16.6617 83.3195 16.6438 83.3195 16.6261H83.9582V16.4926H83.2397C83.2397 16.4569 83.2307 16.4301 83.2131 16.4124C83.2131 16.3946 83.2131 16.3767 83.2131 16.359V16.2254H83.5324C83.5324 16.1363 83.5235 16.0473 83.5058 15.9583C83.5058 15.8515 83.4969 15.7623 83.4792 15.6912H83.1332C83.1155 15.6199 83.0977 15.5576 83.08 15.5042C83.0622 15.4329 83.0356 15.3616 83.0002 15.2905H83.3728C83.3195 15.1479 83.2485 15.0144 83.1599 14.8898H81.776C81.6872 14.7473 81.5453 14.6137 81.3502 14.4891H82.4679C82.3615 14.4178 82.2816 14.3733 82.2284 14.3556H82.3082C82.0421 14.2487 81.7494 14.1953 81.43 14.1953C81.1107 14.1953 80.8179 14.2487 80.5518 14.3556H79.78C79.709 14.3733 79.6204 14.4178 79.5139 14.4891H80.2591C80.117 14.5781 79.9752 14.7117 79.8333 14.8898H79.8865C79.7977 15.0144 79.7268 15.1479 79.6736 15.2905H79.7534C79.7356 15.3616 79.7179 15.4329 79.7002 15.5042C79.6824 15.5576 79.6558 15.6199 79.6204 15.6912H79.6736C79.6558 15.7623 79.638 15.8515 79.6204 15.9583C79.6204 16.0473 79.6204 16.1363 79.6204 16.2254H79.5671V16.4926H79.8865V16.6261H79.4607V16.7597H78.2897V17.2939H79.2744V17.6946H79.4607V18.2289H79.301V18.7631H79.4341V19.1638H79.4607C79.4607 19.2172 79.4695 19.2617 79.4873 19.2974H78.955V19.4309H79.8865V19.6981H79.3542V20.0987H79.4341V20.2323H79.2478C79.2478 20.3213 79.2478 20.4103 79.2478 20.4994C79.2654 20.5884 79.2744 20.6774 79.2744 20.7666H79.647V20.8467C79.647 20.9178 79.647 20.998 79.647 21.0871C79.647 21.1582 79.6558 21.2295 79.6736 21.3008H79.4873C79.5049 21.3364 79.5139 21.3809 79.5139 21.4344C79.5139 21.4878 79.5227 21.5322 79.5405 21.5679H79.7002C79.7179 21.6569 79.7445 21.7459 79.78 21.8351C79.8155 21.9241 79.8509 22.013 79.8865 22.1022H79.7534C79.8599 22.298 80.0018 22.4762 80.1792 22.6364H80.2325C80.2679 22.6541 80.3033 22.6809 80.3389 22.7166C80.3743 22.7343 80.4098 22.7521 80.4454 22.77H80.6849C80.7381 22.7877 80.7913 22.8144 80.8446 22.8501C80.8978 22.8678 80.951 22.8857 81.0042 22.9036H80.6849C80.8978 22.9747 81.1461 23.0104 81.43 23.0104C81.7138 23.0104 81.9623 22.9747 82.1752 22.9036H82.6276C82.6808 22.8857 82.734 22.8678 82.7873 22.8501C82.8405 22.8144 82.8937 22.7877 82.947 22.77H82.5211C82.5566 22.7521 82.592 22.7343 82.6276 22.7166C82.663 22.6809 82.6985 22.6541 82.7341 22.6364H82.4413C82.601 22.5117 82.7429 22.3336 82.8671 22.1022H83.1066C83.1953 21.9062 83.2663 21.7282 83.3195 21.5679H83.0534C83.0711 21.5322 83.08 21.4878 83.08 21.4344C83.08 21.3809 83.0888 21.3364 83.1066 21.3008H83.2397C83.2573 21.2295 83.2663 21.1582 83.2663 21.0871C83.2663 20.998 83.2663 20.9178 83.2663 20.8467V20.7666H83.3195C83.3195 20.6774 83.3195 20.5884 83.3195 20.4994C83.3195 20.4103 83.3284 20.3213 83.3461 20.2323H83.3195V20.0987H84.0913V19.6981H82.8139V19.4309H83.559V19.2974H83.3461V19.1638H83.905V18.7631H84.1445V18.2289Z" fill="black"/>
<path d="M42.0541 0.580366C42.0877 0.625356 42.1045 0.681592 42.1045 0.749076H42.6928V0.765947C42.6928 0.822184 42.6816 0.872797 42.6592 0.917787L42.6087 1.00214H41.9868L41.8188 1.33956H41.9532L41.8692 1.50827H42.1381L42.0877 1.59263H41.5498L41.4322 1.84569H41.533L41.4826 1.93005H41.2809L41.1969 2.09876H42.323L42.1549 2.43618H41.1632L41.1296 2.52054H40.9111L40.7767 2.7736H41.2473L41.0792 3.11102H41.4322L41.3818 3.19538H41.2641L41.2137 3.27973H41.1128L40.9447 3.61715H40.9616L40.8775 3.78586H41.1296L41.0792 3.87022H40.9111L40.8607 3.95457H41.2305L41.1464 4.12328H41.7683L41.6843 4.29199H40.138L40.0539 4.4607H41.1128L40.9784 4.71377H40.7599L40.6422 4.96684H40.222L40.1884 5.05119H40.2892L40.2052 5.2199H40.1043L40.0707 5.30426H40.4237L40.3397 5.47297H40.5077L40.3901 5.72603H40.0707L40.0371 5.81039H39.9531L39.785 6.14781H39.7346L39.6841 6.23216H40.1043L40.0203 6.40087H40.2892L40.1716 6.65394H39.1631L39.0791 6.82265H39.6505L39.5161 7.07572H39.2808L39.2303 7.16007L39.0959 7.41314H39.432L39.3816 7.49749H40.0035L39.9699 7.58185L39.8858 7.75056H38.5244L38.4404 7.91927H40.1548L39.9867 8.25669H39.0622L38.9782 8.4254V8.59411H38.5076V8.76282H38.5916V9.10024H39.0286V9.43766H37.1125V9.77508H39.0791V10.0281H38.4067V10.2812H38.5916V10.3656H38.8269V10.703H38.9614V10.7873H38.5244V10.9561H38.8437V11.2935H37.6336V11.6309H37.3646V11.7996H38.5412C38.5412 11.9458 38.474 12.0583 38.3395 12.137H38.1378C38.0818 12.182 38.0033 12.2045 37.9025 12.2045H34.6081C34.5073 12.2045 34.4288 12.182 34.3728 12.137H34.5577C34.4456 12.0583 34.3784 11.9458 34.356 11.7996H33.1626V11.6309H33.4316V11.2935H34.6417V10.9561H34.3224V10.7873H34.7594V10.703H34.6249V10.3656H34.3896V10.2812H34.2047V10.0281H34.877V9.77508H32.9105V9.43766H34.8266V9.10024H34.3896V8.76282H34.3056V8.59411H34.7762V8.4254L34.6922 8.25669H35.6166L35.4485 7.91927H33.7341L33.6501 7.75056H34.9947L34.9107 7.58185L34.877 7.49749H34.2552L34.2047 7.41314H33.8686L33.7509 7.16007H33.7677L33.7173 7.07572H33.9526L33.835 6.82265H33.2635L33.1794 6.65394H34.1879L34.0535 6.40087H33.7845L33.7005 6.23216H33.2803L33.2299 6.14781H33.2971L33.129 5.81039H33.1962L33.1626 5.72603H33.4652L33.3307 5.47297H33.1626L33.0786 5.30426H32.7256L32.6752 5.2199H32.776L32.692 5.05119H32.5912L32.5407 4.96684H32.9609L32.8265 4.71377H33.045L32.9105 4.4607H31.8516L31.7676 4.29199H33.3139L33.2299 4.12328H31.6835L31.5995 3.95457H31.9356L31.902 3.87022H32.6752L32.6416 3.78586H32.7256L32.6416 3.61715H32.0533L31.8852 3.27973H31.9693L31.9188 3.19538H31.7844L31.7339 3.11102H31.7171L31.5491 2.7736H31.1625L31.028 2.52054H31.2297L31.1961 2.43618H29.7506L29.5825 2.09876H29.9691L29.8851 1.93005H30.9104L30.8767 1.84569H31.2969L31.1625 1.59263H30.4733L30.4397 1.50827H31.3642L31.2801 1.33956H30.2885L30.1036 1.00214H30.6582L30.6078 0.917787C30.5854 0.872797 30.5742 0.822184 30.5742 0.765947V0.749076H31.028C31.028 0.715334 31.0336 0.687216 31.0448 0.664721C31.056 0.630979 31.0672 0.602861 31.0784 0.580366H31.381C31.4482 0.456645 31.5547 0.394784 31.7003 0.394784H34.8602C34.9835 0.394784 35.0843 0.411655 35.1628 0.445398C35.2524 0.47914 35.3253 0.524129 35.3813 0.580366H35.0787C35.1124 0.602861 35.1404 0.630979 35.1628 0.664721C35.1964 0.698463 35.2188 0.726582 35.23 0.749076H34.7762C34.7986 0.794066 34.8098 0.816561 34.8098 0.816561L34.8939 1.00214H34.356L34.5241 1.33956H35.5326L35.6166 1.50827H34.6754L34.7258 1.59263H35.4149L35.5326 1.84569H35.1124L35.1628 1.93005H34.1375L34.2215 2.09876H33.8181L33.9862 2.43618H35.4317L35.4821 2.52054H35.2636L35.3981 2.7736H35.7847L35.9528 3.11102H35.9696L36.02 3.19538H36.1545L36.1881 3.27973H36.104L36.2721 3.61715H36.7091L36.8772 3.27973H36.9781L37.0285 3.19538H37.1629L37.1966 3.11102H36.8436L37.0117 2.7736H36.541L36.6587 2.52054H36.894L36.9276 2.43618H37.9193L38.0874 2.09876H36.9444L37.0285 1.93005H37.247L37.2806 1.84569H37.1797L37.2974 1.59263H37.8353L37.8857 1.50827H37.6168L37.7008 1.33956H37.5663L37.7344 1.00214H38.3563L38.4572 0.816561C38.4572 0.816561 38.4684 0.794066 38.4908 0.749076H37.9025C37.9249 0.726582 37.9473 0.698463 37.9697 0.664721C37.9921 0.630979 38.0201 0.602861 38.0538 0.580366H38.911C38.967 0.524129 39.0398 0.47914 39.1295 0.445398C39.2191 0.411655 39.32 0.394784 39.432 0.394784H42.5919C42.7376 0.394784 42.8441 0.456645 42.9113 0.580366H42.0541ZM36.9276 4.12328L37.0117 3.95457H36.6419L36.6755 3.87022H36.1208L36.1713 3.95457H35.8183L35.9023 4.12328H36.9276ZM53.8712 11.2935L53.9889 11.6309H53.7032L53.7368 11.7153C53.7368 11.7265 53.7368 11.7434 53.7368 11.7659C53.748 11.7771 53.7536 11.7884 53.7536 11.7996H53.6527V11.8333C53.6527 11.9683 53.6023 12.0695 53.5015 12.137H53.5183C53.4622 12.182 53.3894 12.2045 53.2998 12.2045H50.1903C50.1118 12.2045 50.0446 12.1989 49.9886 12.1876C49.9438 12.1651 49.8933 12.1483 49.8373 12.137C49.7477 12.092 49.6804 12.0414 49.6356 11.9852C49.5908 11.9177 49.5572 11.8558 49.5348 11.7996H49.6188V11.7827L49.5852 11.7153L49.5516 11.6309H49.8373L49.7197 11.2935H49.4003L49.3499 11.1248H50.039L49.9214 10.7873H49.7197L49.6692 10.6692H46.0555L46.0219 10.7873H45.8202L45.7025 11.1248H45.5176L45.4504 11.2935H45.3496L45.2319 11.6309H45.2487L45.2151 11.7153L45.1983 11.7827L45.1815 11.7996H45.0975C45.075 11.8558 45.0414 11.9177 44.9966 11.9852C44.9518 12.0414 44.8845 12.092 44.7949 12.137H45.2991C45.2543 12.1483 45.2039 12.1651 45.1479 12.1876C45.0918 12.1989 45.0246 12.2045 44.9462 12.2045H41.8367C41.747 12.2045 41.6798 12.182 41.635 12.137H41.1308C41.0187 12.0583 40.9627 11.9571 40.9627 11.8333V11.7996H41.0635C41.0635 11.7659 41.0691 11.7377 41.0803 11.7153L41.0971 11.6309H41.0803L41.198 11.2935H41.2988L41.3661 11.1248H41.551L41.6686 10.7873H41.8535L41.9712 10.4499H41.3156L41.3829 10.2812H41.3324L41.4165 10.0281H41.5846L41.6182 9.94379H41.2484L41.3661 9.60637H41.9375L41.988 9.43766H41.4669L41.5005 9.3533H41.5846L41.7022 9.01588H41.6518L41.7358 8.76282H41.8031L41.9207 8.4254H42.1392L42.2233 8.17233L42.2569 8.08798H43.0973L43.1309 8.00362H43.0805L43.1645 7.75056H42.2233L42.3409 7.41314H42.6435L42.6771 7.32878H42.4922L42.5258 7.24443H43.0637L43.1813 6.907H42.5258L42.5931 6.73829H42.8452L42.9628 6.40087H42.8116L42.8956 6.14781H43.0805L43.1981 5.81039H43.1477L43.1813 5.72603H42.7947L42.862 5.55732H43.2318L43.3158 5.30426H43.1477L43.1645 5.2199H43.4671L43.5847 4.88248H43.2149L43.299 4.62941H43.1141L43.1645 4.4607H42.0048L42.0552 4.29199H41.8367L41.9543 3.95457H41.7358L41.8367 3.70151H42.4922L42.6099 3.36409H44.2907L44.3747 3.11102H43.5679L43.6352 2.94231H44.257L44.3747 2.60489H43.82L43.9041 2.35182H44.257L44.3747 2.0144H44.3243L44.4419 1.67698H43.9713L43.9881 1.59263H45.6017L45.7193 1.25521H45.6689L45.7025 1.17085H45.1143L45.1815 0.951529L45.2319 0.833431H45.4L45.5008 0.664721H45.4504C45.5064 0.58599 45.5849 0.524129 45.6857 0.47914C45.7866 0.422903 45.9098 0.394784 46.0555 0.394784H49.7028C49.8485 0.394784 49.9718 0.422903 50.0726 0.47914C50.1735 0.524129 50.2519 0.58599 50.3079 0.664721H50.3752L50.476 0.833431H50.3079C50.3303 0.878421 50.3416 0.917787 50.3416 0.951529L50.4256 1.17085H51.0139L51.0307 1.25521H51.0811L51.1988 1.59263H49.602L49.6356 1.67698H50.1062L50.2239 2.0144H50.2743L50.392 2.35182H50.039L50.123 2.60489H50.6777L50.7954 2.94231H50.1735L50.2407 3.11102H51.0475L51.1315 3.36409H49.4507L49.5684 3.70151H48.9129L48.9969 3.95457H49.1986L49.3163 4.29199H48.6607L48.728 4.4607H51.4005L51.4509 4.62941H51.3164L51.4005 4.88248H51.0643L51.182 5.2199H50.7786L50.7954 5.30426H51.4005L51.4845 5.55732H51.5013L51.5685 5.72603H51.0139L51.0475 5.81039H51.5853L51.703 6.14781H51.8879L51.9719 6.40087H51.9215L52.0392 6.73829H52.3081L52.3753 6.907H51.8879L52.0055 7.24443H52.3417L52.3585 7.32878H52.2745L52.3081 7.41314H52.0055L52.1064 7.75056H53.0645L53.1485 8.00362H53.1989L53.2325 8.08798H52.3753L52.4089 8.17233H52.4258L52.5098 8.4254H52.2913L52.4089 8.76282H52.3249L52.4258 9.01588H52.4762L52.5938 9.3533H52.5098L52.5434 9.43766H53.0645L53.1317 9.60637H52.5434L52.6611 9.94379H53.0308L53.0645 10.0281H52.8964L52.9972 10.2812H53.0308L53.0981 10.4499H53.7536L53.8712 10.7873H54.0729L54.1906 11.1248H53.5015L53.5519 11.2935H53.8712ZM46.8455 4.62941H47.0472L46.9631 4.88248H47.6523L47.5682 4.62941H47.7027L47.6523 4.4607H46.8959L46.8455 4.62941ZM47.4001 5.2199L47.3161 4.93309L47.2321 5.2199H47.4001ZM46.3917 7.24443L46.3581 7.32878H46.5429L46.5261 7.37939H48.4254L48.4086 7.32878H48.4927L48.4759 7.24443H48.1397L48.0389 6.907H48.5263L48.4759 6.73829H48.1901L48.0893 6.40087H48.1397L48.0725 6.14781H47.8876L47.7867 5.81039H47.2489L47.2153 5.72603H47.7699L47.7195 5.55732H47.7027L47.6187 5.30426H47.0808L47.0136 5.55732H46.6438L46.5934 5.72603H46.9631L46.9463 5.81039H46.9968L46.8959 6.14781H46.711L46.627 6.40087H46.7783L46.6774 6.73829H46.4253L46.3749 6.907H47.0304L46.9295 7.24443H46.3917ZM66.1728 11.2935L66.3744 11.6309H65.6349L65.6517 11.6478C65.6629 11.659 65.6685 11.6815 65.6685 11.7153C65.6797 11.749 65.6909 11.7771 65.7021 11.7996H65.6517V11.8333C65.6517 11.8783 65.6461 11.9177 65.6349 11.9514C65.6237 11.9852 65.6069 12.0189 65.5845 12.0527H65.803C65.7806 12.0864 65.7526 12.1145 65.7189 12.137H64.7441C64.688 12.182 64.6152 12.2045 64.5256 12.2045H60.6933C60.6261 12.2045 60.5645 12.1989 60.5084 12.1876C60.4524 12.1651 60.402 12.1483 60.3572 12.137H61.332C61.2984 12.1258 61.248 12.0977 61.1808 12.0527H60.9623C60.9062 12.0077 60.8614 11.9627 60.8278 11.9177C60.8054 11.8727 60.783 11.839 60.7606 11.8165L60.7438 11.7996H60.7942L60.7101 11.6309H61.4329L61.248 11.2935H62.7607L62.7103 11.2091H61.3993L61.3825 11.1754V11.2091H58.7604V11.2935H60.5084V11.6309H59.4327V11.7996H57.8024C57.8024 11.8446 57.7911 11.8896 57.7687 11.9346C57.7463 11.9796 57.7239 12.0189 57.7015 12.0527H57.5502C57.5054 12.0977 57.4718 12.1258 57.4494 12.137H56.3569C56.3008 12.182 56.2224 12.2045 56.1216 12.2045H52.9112C52.8104 12.2045 52.7319 12.182 52.6759 12.137H53.7516C53.7292 12.1258 53.6956 12.0977 53.6508 12.0527H53.802C53.7796 12.0189 53.7572 11.9796 53.7348 11.9346C53.7124 11.8896 53.7012 11.8446 53.7012 11.7996H55.3148V11.6309H56.3905V11.2935H54.6424V11.2091H57.2645V10.9561H54.0542V10.703H54.3567V10.3656H54.6256V10.1969H54.5752V9.85944H54.5416V9.52202H54.4071V9.26895H54.508V9.10024H54.6929V8.76282H55.298V8.50975H53.1633V8.34104H53.0121V8.25669H54.9282V8.08798H55.0963V8.00362H52.9112V7.75056H53.197V7.58185H53.2978V7.24443H54.945V7.07572H55.3988V6.82265H53.281V6.48523H53.8525V6.23216H54.592V6.14781H55.7182V5.9791H56.3064V5.72603H56.4241V5.64168H56.0711V5.38861H54.945V5.30426H54.155V4.96684H57.2981V4.79812H53.4323V4.62941H56.3401V4.37635H53.5331V4.20764H54.6256V4.03893H55.6677V3.70151H55.3316V3.44844H55.4324V3.19538H54.945V3.11102H54.592V2.85796H54.4912V2.7736H54.7097V2.60489H54.9282V2.26747H53.0793V2.18311H53.1801V2.09876H53.8693V2.0144H53.634V1.93005H54.9282V1.84569H54.6088V1.76134H54.592V1.42392H54.6761V1.25521H55.8358V1.0865H55.9871V0.917787H56.0543V0.833431H54.2559C54.2671 0.70971 54.3231 0.597237 54.4239 0.496011H54.6088C54.6761 0.428527 54.7713 0.394784 54.8946 0.394784H58.1049C58.217 0.394784 58.3122 0.428527 58.3906 0.496011H58.2057C58.3178 0.58599 58.3738 0.698463 58.3738 0.833431H60.1723V0.917787H60.1051V1.0865H59.9538V1.25521H58.794V1.42392H58.71V1.76134H58.7268V1.84569H59.0462V1.93005H57.7519V2.0144H57.9872V2.09876H57.2981V2.18311H57.1973V2.26747H58.7772L58.8276 2.18311H59.3655L59.3991 2.09876H60.374L60.4244 2.0144H59.4495L59.5 1.93005H59.7857L59.8361 1.84569H59.9202L59.9706 1.76134H60.1219L60.1555 1.67698H60.3404L60.4748 1.42392H60.3908L60.4916 1.25521H61.4497L61.5337 1.0865H60.7606L60.8446 0.917787H61.685L61.7186 0.833431H60.5757L60.6093 0.765947C60.6653 0.653474 60.7494 0.563495 60.8614 0.496011H60.727C60.8278 0.428527 60.9623 0.394784 61.1303 0.394784H64.8449C64.9458 0.394784 65.0298 0.428527 65.097 0.496011H65.2483C65.3267 0.574742 65.366 0.664721 65.366 0.765947C65.366 0.79969 65.3604 0.822184 65.3492 0.833431H66.5089C66.5089 0.844679 66.5033 0.855926 66.4921 0.867174C66.4921 0.878421 66.4921 0.895292 66.4921 0.917787H65.6685L65.6349 0.951529L65.5677 1.0865H66.3408L66.24 1.25521H65.2819L65.1811 1.42392H65.2651L65.1138 1.67698H64.9458L64.8953 1.76134H64.7441L64.6936 1.84569H64.6096L64.5592 1.93005H64.2566L64.2062 2.0144H65.1979L65.1475 2.09876H64.1726L64.1222 2.18311H63.5843L63.5339 2.26747H63.6347L63.4499 2.60489H64.1222L64.0213 2.7736H64.1726L64.1222 2.85796H64.139L63.9877 3.11102H64.223L64.1726 3.19538H64.1894L64.0381 3.44844H63.702L63.5507 3.70151H63.9037L63.702 4.03893H63.5171L63.4162 4.20764H62.3237L62.2229 4.37635H65.0298L64.8785 4.62941H61.9707L61.8699 4.79812H65.7357L65.6349 4.96684H62.4918L62.2901 5.30426H63.0801L63.0297 5.38861H64.1558L64.0045 5.64168H64.3575L64.3071 5.72603H64.1894L64.0381 5.9791H63.4499L63.4162 6.04658L63.4835 6.14781H62.3573L62.4078 6.23216H61.6682L61.8195 6.48523H61.2312L61.4329 6.82265H63.5507L63.702 7.07572H63.2482L63.349 7.24443H61.7018L61.9035 7.58185H61.8027L61.9035 7.75056H61.6178L61.769 8.00362H63.9541L64.0045 8.08798H63.8196L63.9205 8.25669H63.4499L63.5003 8.34104H63.3322L63.433 8.50975H62.1893L62.3405 8.76282H63.786L63.9877 9.10024H63.9541L64.0549 9.26895H64.1894L64.3407 9.52202H64.6432L64.8449 9.85944H64.5424L64.7441 10.1969H64.7609L64.8449 10.3656H64.8785L65.0802 10.703H65.1811L65.3324 10.9561H66.1728L66.324 11.2091H67.6351L67.6855 11.2935H66.1728ZM58.71 3.11102H59.063V3.19538H59.4495L59.5 3.11102H59.2647L59.3991 2.85796H59.3823L59.4327 2.7736H59.2815L59.3655 2.60489H58.8276V2.7736H58.6091V2.85796H58.71V3.11102ZM58.8276 4.03893H58.7436V4.19077L58.8276 4.03893ZM59.0462 8.25669H59.0966L59.0462 8.13859V8.25669ZM57.13 8.34104H57.2813V8.50975H58.6091L58.5083 8.34104H58.6764L58.6259 8.25669H57.13V8.34104ZM58.1721 10.9561H60.4244L60.2899 10.703H60.1723L59.9874 10.3656H59.9538L59.8697 10.1969H59.8529L59.668 9.85944H59.9706L59.7857 9.52202H59.4832L59.3319 9.26895H59.1974L59.1134 9.10024H59.147L58.9453 8.76282H58.8108V9.10024H58.6259V9.26895H58.5251V9.52202H58.6596V9.85944H58.6932V10.1969H58.7436V10.3656H58.4747V10.703H58.1721V10.9561ZM76.7394 5.72603H77.5798V6.06345H77.4285V6.40087H77.2773V6.65394H76.9243V6.73829H77.0588V6.82265H76.5881V6.99136H77.3949V7.24443H76.9075V7.32878H76.9243C76.9243 7.38502 76.9187 7.44125 76.9075 7.49749C76.9075 7.55373 76.9075 7.60996 76.9075 7.6662H76.8907C76.8795 7.69994 76.8739 7.75056 76.8739 7.81804V8.00362H76.7898C76.7786 8.02612 76.773 8.05423 76.773 8.08798C76.773 8.12172 76.773 8.14984 76.773 8.17233H76.9411L76.8907 8.50975H76.7394C76.7282 8.56599 76.717 8.62223 76.7058 8.67846C76.7058 8.7347 76.6946 8.79094 76.6722 8.84717H76.8571C76.8571 8.85842 76.8515 8.86967 76.8403 8.88092C76.8403 8.89216 76.8403 8.90903 76.8403 8.93153H77.0924C77.0924 8.94278 77.0868 8.95402 77.0756 8.96527C77.0756 8.97652 77.0756 8.99339 77.0756 9.01588H76.773C76.7618 9.06087 76.7506 9.10586 76.7394 9.15085C76.7282 9.18459 76.717 9.22396 76.7058 9.26895H76.6554L76.5545 9.52202H76.3696C76.3584 9.567 76.3416 9.61199 76.3192 9.65698C76.2968 9.69073 76.2744 9.73009 76.252 9.77508H76.4032C76.3808 9.83132 76.3528 9.88755 76.3192 9.94379H76.2184C76.2071 9.98878 76.1847 10.0338 76.1511 10.0788C76.1287 10.1125 76.1063 10.1519 76.0839 10.1969H76.6049L76.4873 10.3656H75.8654L75.6805 10.6186H75.8654L75.6301 10.8717H75.815C75.8038 10.8829 75.7869 10.8942 75.7645 10.9054C75.7533 10.9167 75.7421 10.9336 75.7309 10.9561H75.9326C75.899 10.9785 75.8654 11.0067 75.8318 11.0404C75.8094 11.0742 75.7813 11.1023 75.7477 11.1248H75.4284C75.3948 11.1473 75.3611 11.1754 75.3275 11.2091C75.2939 11.2429 75.2547 11.271 75.2099 11.2935H75.3275C75.2939 11.316 75.2547 11.3441 75.2099 11.3778C75.1763 11.4116 75.137 11.4397 75.0922 11.4622H75.0586C74.9577 11.5184 74.8569 11.5747 74.7561 11.6309C74.6552 11.6871 74.5488 11.7434 74.4367 11.7996H74.3863C74.3527 11.8109 74.319 11.8221 74.2854 11.8333C74.2518 11.8446 74.2182 11.8615 74.1846 11.884C74.1061 11.9177 74.0277 11.9514 73.9493 11.9852C73.882 12.0077 73.8036 12.0302 73.714 12.0527H73.6971C73.3274 12.1651 72.924 12.2495 72.487 12.3057H72.5038C72.3245 12.3282 72.134 12.3451 71.9323 12.3563C71.7418 12.3676 71.5513 12.3732 71.3608 12.3732C71.1591 12.3732 70.963 12.3676 70.7725 12.3563C70.5821 12.3451 70.3916 12.3282 70.2011 12.3057C69.7753 12.2607 69.3663 12.1764 68.9741 12.0527H68.9909C68.9125 12.0302 68.834 12.0077 68.7556 11.9852C68.6772 11.9514 68.5987 11.9177 68.5203 11.884H68.5035C68.4699 11.8615 68.4362 11.8446 68.4026 11.8333C68.369 11.8221 68.3354 11.8109 68.3018 11.7996H68.3522C68.2401 11.7434 68.1337 11.6871 68.0328 11.6309C67.932 11.5747 67.8311 11.5184 67.7303 11.4622H67.7639L67.5118 11.2935H67.4109C67.3661 11.271 67.3269 11.2429 67.2933 11.2091C67.2597 11.1754 67.2261 11.1473 67.1924 11.1248H67.5118L67.3101 10.9561H67.1084C67.0972 10.9336 67.086 10.9167 67.0748 10.9054C67.0636 10.8942 67.0468 10.8829 67.0244 10.8717H66.8563C66.8115 10.8267 66.7666 10.7873 66.7218 10.7536C66.6882 10.7086 66.6546 10.6636 66.621 10.6186H66.4361L66.2344 10.3656H66.8563L66.7554 10.1969H66.2176C66.1952 10.1519 66.1728 10.1125 66.1503 10.0788C66.1279 10.0338 66.1055 9.98878 66.0831 9.94379H66.184C66.1503 9.88755 66.1223 9.83132 66.0999 9.77508H65.9486C65.9262 9.73009 65.9038 9.69073 65.8814 9.65698C65.8702 9.61199 65.8534 9.567 65.831 9.52202H66.0327L65.9318 9.26895H65.9823C65.9711 9.22396 65.9599 9.18459 65.9486 9.15085C65.9374 9.10586 65.9262 9.06087 65.915 9.01588H66.0999C66.0887 8.99339 66.0831 8.96527 66.0831 8.93153H65.915C65.915 8.90903 65.9094 8.89216 65.8982 8.88092C65.8982 8.86967 65.8982 8.85842 65.8982 8.84717H65.8646C65.8534 8.79094 65.8422 8.7347 65.831 8.67846C65.8198 8.62223 65.8086 8.56599 65.7974 8.50975H65.8814C65.8702 8.45352 65.859 8.39728 65.8478 8.34104C65.8478 8.28481 65.8478 8.22857 65.8478 8.17233H65.7469L65.7301 8.00362H65.8478V7.81804C65.8478 7.79555 65.8422 7.77305 65.831 7.75056C65.831 7.71681 65.831 7.6887 65.831 7.6662H65.6125C65.6013 7.60996 65.5957 7.55373 65.5957 7.49749C65.5957 7.44125 65.5957 7.38502 65.5957 7.32878H65.7133V7.24443H65.6629V6.99136H65.9991V6.82265H65.4108V6.73829H65.7301V6.65394H65.7133V6.40087H65.6293V6.06345H65.7301V5.72603H65.6125V5.47297H64.9906V5.13555H65.7133C65.7245 5.11305 65.7301 5.08493 65.7301 5.05119H65.9991V4.96684H65.7974V4.79812H65.8142L65.8478 4.4607H65.8142C65.8142 4.41571 65.8142 4.37635 65.8142 4.34261C65.8254 4.29762 65.8366 4.25263 65.8478 4.20764H65.7974C65.7974 4.16265 65.7974 4.12328 65.7974 4.08954C65.8086 4.04455 65.8198 3.99956 65.831 3.95457H65.7974C65.8086 3.90958 65.8198 3.87022 65.831 3.83648C65.8422 3.79149 65.8534 3.7465 65.8646 3.70151H65.394C65.394 3.67901 65.394 3.66214 65.394 3.65089C65.4052 3.63965 65.4108 3.6284 65.4108 3.61715H65.915L65.9655 3.44844H65.9318L65.9655 3.36409H66.2176C66.2288 3.34159 66.24 3.31347 66.2512 3.27973C66.2624 3.24599 66.2736 3.21787 66.2848 3.19538H66.1167C66.1503 3.09415 66.1952 2.98168 66.2512 2.85796H66.2008C66.2344 2.80172 66.2624 2.74548 66.2848 2.68925C66.3184 2.62176 66.352 2.56552 66.3857 2.52054H66.4361L66.4865 2.43618H66.2176L66.268 2.35182H66.5369L66.5874 2.26747H66.5537L66.7554 2.0144H66.6378L66.8563 1.76134C66.9123 1.7051 66.9683 1.64886 67.0244 1.59263C67.0916 1.52514 67.1588 1.46891 67.2261 1.42392H67.058L67.1588 1.33956H66.9739C66.9963 1.31707 67.0132 1.3002 67.0244 1.28895C67.0468 1.2777 67.0692 1.26645 67.0916 1.25521H67.5118C67.5566 1.23271 67.6014 1.20459 67.6463 1.17085C67.6911 1.13711 67.7359 1.10899 67.7807 1.0865H67.8311C67.9432 1.03026 68.0553 0.974023 68.1673 0.917787C68.2794 0.850302 68.3914 0.794066 68.5035 0.749076H68.5539C68.778 0.64785 69.0245 0.563495 69.2934 0.496011H69.3775C69.7024 0.406032 70.0442 0.338548 70.4028 0.293558C70.7613 0.248569 71.1311 0.226074 71.5121 0.226074C72.3077 0.226074 73.0136 0.316053 73.6299 0.496011H73.5291C73.6523 0.529753 73.7756 0.569119 73.8988 0.614108C74.0221 0.64785 74.1398 0.69284 74.2518 0.749076H74.1846C74.3078 0.794066 74.4199 0.850302 74.5207 0.917787C74.6328 0.974023 74.7448 1.03026 74.8569 1.0865H74.7897L75.0418 1.25521H74.6216C74.644 1.26645 74.6608 1.2777 74.672 1.28895C74.6944 1.3002 74.7168 1.31707 74.7392 1.33956H74.9241C74.9465 1.35081 74.969 1.36206 74.9914 1.3733C75.0138 1.38455 75.0306 1.40142 75.0418 1.42392H75.2099C75.2771 1.46891 75.3387 1.52514 75.3948 1.59263C75.462 1.64886 75.5236 1.7051 75.5796 1.76134H75.5965C75.6413 1.80633 75.6805 1.85132 75.7141 1.89631C75.7477 1.93005 75.7813 1.96941 75.815 2.0144H75.9326L76.1343 2.26747H76.1679C76.2015 2.30121 76.224 2.32933 76.2352 2.35182H75.9662L76.0166 2.43618H76.3024L76.3528 2.52054H76.3024C76.336 2.56552 76.364 2.62176 76.3864 2.68925C76.42 2.74548 76.4537 2.80172 76.4873 2.85796H76.5377L76.689 3.19538H76.8571L76.9075 3.36409H76.6554L76.689 3.44844H76.7226L76.773 3.61715H76.7226C76.7226 3.6284 76.7226 3.63965 76.7226 3.65089C76.7338 3.66214 76.7394 3.67901 76.7394 3.70151H76.0335C76.0559 3.7465 76.0671 3.79149 76.0671 3.83648C76.0783 3.87022 76.0895 3.90958 76.1007 3.95457H76.9747C76.9859 3.99956 76.9915 4.04455 76.9915 4.08954C77.0027 4.12328 77.0083 4.16265 77.0083 4.20764H76.773C76.7842 4.25263 76.7898 4.29762 76.7898 4.34261C76.801 4.37635 76.8066 4.41571 76.8066 4.4607H77.0251L77.0588 4.79812H76.8403V4.84874C76.8403 4.85999 76.8403 4.87686 76.8403 4.89935C76.8515 4.92185 76.8571 4.94434 76.8571 4.96684H77.3109V5.05119H76.9075C76.9187 5.07369 76.9243 5.1018 76.9243 5.13555H77.2268C77.238 5.19178 77.2436 5.24802 77.2436 5.30426C77.2436 5.36049 77.2436 5.41673 77.2436 5.47297H76.7394V5.72603ZM73.0584 6.06345H73.2097V5.72603H72.3693V5.47297H72.8736C72.8736 5.41673 72.8736 5.36049 72.8736 5.30426C72.8736 5.24802 72.8679 5.19178 72.8567 5.13555H72.5542C72.5542 5.11305 72.5486 5.09618 72.5374 5.08493C72.5374 5.07369 72.5374 5.06244 72.5374 5.05119H72.9408V4.96684H72.487C72.487 4.94434 72.4814 4.92747 72.4702 4.91622C72.4702 4.90497 72.4702 4.89373 72.4702 4.88248V4.79812H72.6719C72.6719 4.74189 72.6663 4.68565 72.6551 4.62941C72.6551 4.56193 72.6494 4.50569 72.6382 4.4607H72.4197C72.4085 4.41571 72.3973 4.37635 72.3861 4.34261C72.3749 4.29762 72.3581 4.25263 72.3357 4.20764H72.571C72.5374 4.11766 72.4926 4.0333 72.4365 3.95457H71.5625C71.5065 3.86459 71.4169 3.78024 71.2936 3.70151H71.9995C71.9323 3.65652 71.8819 3.6284 71.8483 3.61715H71.8987C71.7306 3.54967 71.5457 3.51593 71.344 3.51593C71.1423 3.51593 70.9574 3.54967 70.7894 3.61715H70.3019C70.2571 3.6284 70.2011 3.65652 70.1338 3.70151H70.6045C70.5148 3.75774 70.4252 3.8421 70.3355 3.95457H70.3692C70.3131 4.0333 70.2683 4.11766 70.2347 4.20764H70.2851C70.2739 4.25263 70.2627 4.29762 70.2515 4.34261C70.2403 4.37635 70.2235 4.41571 70.2011 4.4607H70.2347C70.2235 4.50569 70.2123 4.56193 70.2011 4.62941C70.2011 4.68565 70.2011 4.74189 70.2011 4.79812H70.1675V4.96684H70.3692V5.05119H70.1002V5.13555H69.3607V5.47297H69.9826V5.72603H70.1002V6.06345H69.9994V6.40087H70.0834V6.65394H70.1002C70.1002 6.68768 70.1058 6.7158 70.117 6.73829H69.7809V6.82265H70.3692V6.99136H70.033V7.24443H70.0834V7.32878H69.9658C69.9658 7.38502 69.9658 7.44125 69.9658 7.49749C69.977 7.55373 69.9826 7.60996 69.9826 7.6662H70.2179V7.71681C70.2179 7.7618 70.2179 7.81242 70.2179 7.86865C70.2179 7.91364 70.2235 7.95863 70.2347 8.00362H70.117C70.1282 8.02612 70.1338 8.05423 70.1338 8.08798C70.1338 8.12172 70.1394 8.14984 70.1507 8.17233H70.2515C70.2627 8.22857 70.2795 8.28481 70.3019 8.34104C70.3243 8.39728 70.3467 8.45352 70.3692 8.50975H70.2851C70.3523 8.63347 70.442 8.74595 70.554 8.84717H70.5877C70.6101 8.85842 70.6325 8.87529 70.6549 8.89779C70.6773 8.90903 70.6997 8.92028 70.7221 8.93153H70.8734C70.907 8.94278 70.9406 8.95965 70.9742 8.98214C71.0079 8.99339 71.0415 9.00464 71.0751 9.01588H70.8734C71.0079 9.06087 71.1647 9.08337 71.344 9.08337C71.5233 9.08337 71.6802 9.06087 71.8146 9.01588H72.1004C72.134 9.00464 72.1676 8.99339 72.2012 8.98214C72.2348 8.95965 72.2685 8.94278 72.3021 8.93153H72.0332C72.0556 8.92028 72.078 8.90903 72.1004 8.89779C72.1228 8.87529 72.1452 8.85842 72.1676 8.84717H71.9827C72.0836 8.76844 72.1732 8.65597 72.2517 8.50975H72.4029C72.459 8.38603 72.5038 8.27356 72.5374 8.17233H72.3693C72.3805 8.14984 72.3861 8.12172 72.3861 8.08798C72.3861 8.05423 72.3917 8.02612 72.4029 8.00362H72.487C72.4982 7.95863 72.5038 7.91364 72.5038 7.86865C72.5038 7.81242 72.5038 7.7618 72.5038 7.71681V7.6662H72.5374C72.5374 7.60996 72.5374 7.55373 72.5374 7.49749C72.5374 7.44125 72.543 7.38502 72.5542 7.32878H72.5374V7.24443H73.0248V6.99136H72.218V6.82265H72.6887V6.73829H72.5542V6.65394H72.9072V6.40087H73.0584V6.06345Z" fill="black"/>
<path d="M30.0549 25.4801C30.1221 25.57 30.1557 25.6825 30.1557 25.8175H31.3323V25.8512C31.3323 25.9637 31.3099 26.0649 31.265 26.1549L31.1642 26.3236H29.9204L29.5842 26.9985H29.8532L29.6851 27.3359H30.2229L30.1221 27.5046H29.0464L28.8111 28.0107H29.0128L28.9119 28.1794H28.5085L28.3404 28.5169H30.5927L30.2566 29.1917H28.2732L28.206 29.3604H27.769L27.5 29.8665H28.4413L28.1051 30.5414H28.8111L28.7102 30.7101H28.4749L28.3741 30.8788H28.1724L27.8362 31.5536H27.8698L27.7017 31.8911H28.206L28.1051 32.0598H27.769L27.6681 32.2285H28.4077L28.2396 32.5659H29.4834L29.3153 32.9033H26.2226L26.0546 33.2407H28.1724L27.9034 33.7469H27.4664L27.2311 34.253H26.3907L26.3235 34.4217H26.5252L26.3571 34.7591H26.1554L26.0882 34.9278H26.7941L26.626 35.2653H26.9622L26.7269 35.7714H26.0882L26.0209 35.9401H25.8529L25.5167 36.615H25.4159L25.315 36.7837H26.1554L25.9873 37.1211H26.5252L26.2899 37.6272H24.2729L24.1048 37.9646H25.2478L24.9788 38.4708H24.5082L24.4074 38.6395L24.1384 39.1456H24.8108L24.7099 39.3143H25.9537L25.8865 39.483L25.7184 39.8204H22.9955L22.8274 40.1579H26.2563L25.9201 40.8327H24.0712L23.9031 41.1701V41.5076H22.9619V41.845H23.13V42.5198H24.004V43.1947H20.1717V43.8695H24.1048V44.3756H22.7602V44.8818H23.13V45.0505H23.6006V45.7253H23.8695V45.894H22.9955V46.2314H23.6342V46.9063H21.2138V47.5811H20.676V47.9185H23.0291C23.0291 48.211 22.8946 48.4359 22.6257 48.5934H22.2223C22.1103 48.6834 21.9534 48.7284 21.7517 48.7284H15.163C14.9613 48.7284 14.8044 48.6834 14.6924 48.5934H15.0622C14.8381 48.4359 14.7036 48.211 14.6588 47.9185H12.272V47.5811H12.8099V46.9063H15.2302V46.2314H14.5915V45.894H15.4656V45.7253H15.1966V45.0505H14.726V44.8818H14.3562V44.3756H15.7009V43.8695H11.7678V43.1947H15.6V42.5198H14.726V41.845H14.5579V41.5076H15.4992V41.1701L15.3311 40.8327H17.18L16.8438 40.1579H13.415L13.2469 39.8204H15.9362L15.7681 39.483L15.7009 39.3143H14.4571L14.3562 39.1456H13.6839L13.4486 38.6395H13.4822L13.3814 38.4708H13.852L13.6167 37.9646H12.4737L12.3056 37.6272H14.3226L14.0537 37.1211H13.5158L13.3477 36.7837H12.5073L12.4065 36.615H12.541L12.2048 35.9401H12.3393L12.272 35.7714H12.8771L12.6082 35.2653H12.272L12.104 34.9278H11.398L11.2972 34.7591H11.4989L11.3308 34.4217H11.1291L11.0282 34.253H11.8686L11.5997 33.7469H12.0367L11.7678 33.2407H9.64998L9.4819 32.9033H12.5746L12.4065 32.5659H9.31382L9.14574 32.2285H9.81806L9.75083 32.0598H11.2972L11.2299 31.8911H11.398L11.2299 31.5536H10.0534L9.71721 30.8788H9.88529L9.78444 30.7101H9.51551L9.41467 30.5414H9.38105L9.04489 29.8665H8.27172L8.00279 29.3604H8.40618L8.33895 29.1917H5.44798L5.11182 28.5169H5.88499L5.71691 28.1794H7.76748L7.70025 28.0107H8.54065L8.27172 27.5046H6.89346L6.82623 27.3359H8.67511L8.50703 26.9985H6.52369L6.15391 26.3236H7.26324L7.16239 26.1549C7.11757 26.0649 7.09516 25.9637 7.09516 25.8512V25.8175H8.00279C8.00279 25.75 8.014 25.6938 8.03641 25.6488C8.05882 25.5813 8.08123 25.5251 8.10364 25.4801H8.70873C8.84319 25.2326 9.05609 25.1089 9.34743 25.1089H15.6673C15.9138 25.1089 16.1155 25.1426 16.2723 25.2101C16.4516 25.2776 16.5973 25.3676 16.7093 25.4801H16.1043C16.1715 25.5251 16.2275 25.5813 16.2723 25.6488C16.3396 25.7163 16.3844 25.7725 16.4068 25.8175H15.4992C15.544 25.9075 15.5664 25.9525 15.5664 25.9525L15.7345 26.3236H14.6588L14.9949 26.9985H17.0119L17.18 27.3359H15.2975L15.3983 27.5046H16.7766L17.0119 28.0107H16.1715L16.2723 28.1794H14.2218L14.3898 28.5169H13.5831L13.9192 29.1917H16.8102L16.911 29.3604H16.474L16.743 29.8665H17.5161L17.8523 30.5414H17.8859L17.9868 30.7101H18.2557L18.3229 30.8788H18.1548L18.491 31.5536H19.365L19.7011 30.8788H19.9028L20.0037 30.7101H20.2726L20.3398 30.5414H19.6339L19.97 29.8665H19.0289L19.2641 29.3604H19.7347L19.802 29.1917H21.7853L22.1215 28.5169H19.8356L20.0037 28.1794H20.4407L20.5079 28.0107H20.3062L20.5415 27.5046H21.6172L21.7181 27.3359H21.1802L21.3483 26.9985H21.0794L21.4155 26.3236H22.6593L22.861 25.9525C22.861 25.9525 22.8834 25.9075 22.9283 25.8175H21.7517C21.7965 25.7725 21.8413 25.7163 21.8862 25.6488C21.931 25.5813 21.987 25.5251 22.0542 25.4801H23.7687C23.8807 25.3676 24.0264 25.2776 24.2057 25.2101C24.385 25.1426 24.5867 25.1089 24.8108 25.1089H31.1306C31.4219 25.1089 31.6348 25.2326 31.7693 25.4801H30.0549ZM19.802 32.5659L19.97 32.2285H19.2305L19.2977 32.0598H18.1885L18.2893 32.2285H17.5834L17.7514 32.5659H19.802ZM53.6893 46.9063L53.9246 47.5811H53.3532L53.4204 47.7498C53.4204 47.7723 53.4204 47.8061 53.4204 47.8511C53.4428 47.8736 53.454 47.8961 53.454 47.9185H53.2523V47.986C53.2523 48.256 53.1515 48.4584 52.9498 48.5934H52.9834C52.8713 48.6834 52.7257 48.7284 52.5464 48.7284H46.3274C46.1705 48.7284 46.0361 48.7171 45.924 48.6946C45.8344 48.6496 45.7335 48.6159 45.6215 48.5934C45.4422 48.5034 45.3077 48.4022 45.2181 48.2897C45.1284 48.1547 45.0612 48.031 45.0164 47.9185H45.1845V47.8848L45.1172 47.7498L45.05 47.5811H45.6215L45.3862 46.9063H44.7475L44.6466 46.5689H46.0249L45.7896 45.894H45.3862L45.2853 45.6578H38.0579L37.9906 45.894H37.5872L37.3519 46.5689H36.9822L36.8477 46.9063H36.646L36.4107 47.5811H36.4443L36.3771 47.7498L36.3435 47.8848L36.3098 47.9185H36.1418C36.0969 48.031 36.0297 48.1547 35.9401 48.2897C35.8504 48.4022 35.716 48.5034 35.5367 48.5934H36.5451C36.4555 48.6159 36.3547 48.6496 36.2426 48.6946C36.1305 48.7171 35.9961 48.7284 35.8392 48.7284H29.6202C29.441 48.7284 29.3065 48.6834 29.2168 48.5934H28.2084C27.9843 48.4359 27.8722 48.2335 27.8722 47.986V47.9185H28.0739C28.0739 47.8511 28.0851 47.7948 28.1075 47.7498L28.1411 47.5811H28.1075L28.3428 46.9063H28.5445L28.679 46.5689H29.0488L29.2841 45.894H29.6539L29.8892 45.2192H28.5781L28.7126 44.8818H28.6118L28.7798 44.3756H29.116L29.1832 44.2069H28.4437L28.679 43.5321H29.8219L29.9228 43.1947H28.8807L28.9479 43.0259H29.116L29.3513 42.3511H29.2505L29.4185 41.845H29.553L29.7883 41.1701H30.2253L30.3934 40.664L30.4606 40.4953H32.1414L32.2087 40.3266H32.1078L32.2759 39.8204H30.3934L30.6287 39.1456H31.2338L31.301 38.9769H30.9313L30.9985 38.8082H32.0742L32.3095 38.1333H30.9985L31.133 37.7959H31.6372L31.8725 37.1211H31.57L31.7381 36.615H32.1078L32.3431 35.9401H32.2423L32.3095 35.7714H31.5364L31.6708 35.434H32.4104L32.5785 34.9278H32.2423L32.2759 34.7591H32.881L33.1163 34.0843H32.3768L32.5448 33.5782H32.1751L32.2759 33.2407H29.9564L30.0572 32.9033H29.6202L29.8556 32.2285H29.4185L29.6202 31.7224H30.9313L31.1666 31.0475H34.5282L34.6963 30.5414H33.0827L33.2172 30.204H34.4609L34.6963 29.5291H33.5869L33.755 29.023H34.4609L34.6963 28.3481H34.5954L34.8307 27.6733H33.8895L33.9231 27.5046H37.1502L37.3855 26.8298H37.2847L37.3519 26.661H36.1754L36.3098 26.2224L36.4107 25.9862H36.7468L36.9485 25.6488H36.8477C36.9597 25.4913 37.1166 25.3676 37.3183 25.2776C37.52 25.1651 37.7665 25.1089 38.0579 25.1089H45.3526C45.6439 25.1089 45.8904 25.1651 46.0921 25.2776C46.2938 25.3676 46.4507 25.4913 46.5627 25.6488H46.6972L46.8989 25.9862H46.5627C46.6076 26.0762 46.63 26.1549 46.63 26.2224L46.798 26.661H47.9746L48.0082 26.8298H48.1091L48.3444 27.5046H45.1509L45.2181 27.6733H46.1593L46.3946 28.3481H46.4955L46.7308 29.023H46.0249L46.193 29.5291H47.3023L47.5376 30.204H46.2938L46.4283 30.5414H48.0418L48.2099 31.0475H44.8483L45.0836 31.7224H43.7726L43.9407 32.2285H44.3441L44.5794 32.9033H43.2684L43.4028 33.2407H48.7478L48.8486 33.5782H48.5797L48.7478 34.0843H48.0755L48.3108 34.7591H47.504L47.5376 34.9278H48.7478L48.9159 35.434H48.9495L49.0839 35.7714H47.9746L48.0418 35.9401H49.1175L49.3529 36.615H49.7226L49.8907 37.1211H49.7899L50.0252 37.7959H50.563L50.6975 38.1333H49.7226L49.958 38.8082H50.6303L50.6639 38.9769H50.4958L50.563 39.1456H49.958L50.1597 39.8204H52.0758L52.2438 40.3266H52.3447L52.4119 40.4953H50.6975L50.7647 40.664H50.7984L50.9664 41.1701H50.5294L50.7647 41.845H50.5967L50.7984 42.3511H50.8992L51.1345 43.0259H50.9664L51.0337 43.1947H52.0758L52.2102 43.5321H51.0337L51.269 44.2069H52.0085L52.0758 44.3756H51.7396L51.9413 44.8818H52.0085L52.143 45.2192H53.454L53.6893 45.894H54.0927L54.328 46.5689H52.9498L53.0506 46.9063H53.6893ZM39.6378 33.5782H40.0412L39.8731 34.0843H41.2514L41.0833 33.5782H41.3522L41.2514 33.2407H39.7387L39.6378 33.5782ZM40.7472 34.7591L40.5791 34.1855L40.411 34.7591H40.7472ZM38.7302 38.8082L38.663 38.9769H39.0327L38.9991 39.0781H42.7977L42.7641 38.9769H42.9322L42.8986 38.8082H42.2263L42.0246 38.1333H42.9994L42.8986 37.7959H42.3271L42.1254 37.1211H42.2263L42.0918 36.615H41.722L41.5203 35.9401H40.4446L40.3774 35.7714H41.4867L41.3859 35.434H41.3522L41.1842 34.9278H40.1084L39.974 35.434H39.2344L39.1336 35.7714H39.8731L39.8395 35.9401H39.9404L39.7387 36.615H39.3689L39.2008 37.1211H39.5034L39.3017 37.7959H38.7974L38.6966 38.1333H40.0076L39.8059 38.8082H38.7302ZM78.2924 46.9063L78.6958 47.5811H77.2167L77.2503 47.6149C77.2727 47.6374 77.2839 47.6824 77.2839 47.7498C77.3063 47.8173 77.3287 47.8736 77.3511 47.9185H77.2503V47.986C77.2503 48.076 77.2391 48.1547 77.2167 48.2222C77.1942 48.2897 77.1606 48.3572 77.1158 48.4247H77.5528C77.508 48.4922 77.452 48.5484 77.3847 48.5934H75.435C75.3229 48.6834 75.1773 48.7284 74.998 48.7284H67.3335C67.1991 48.7284 67.0758 48.7171 66.9638 48.6946C66.8517 48.6496 66.7509 48.6159 66.6612 48.5934H68.6109C68.5437 48.5709 68.4429 48.5147 68.3084 48.4247H67.8714C67.7593 48.3347 67.6697 48.2447 67.6025 48.1547C67.5576 48.0648 67.5128 47.9973 67.468 47.9523L67.4344 47.9185H67.5352L67.3671 47.5811H68.8126L68.4429 46.9063H71.4683L71.3675 46.7376H68.7454L68.7118 46.6701V46.7376H63.4677V46.9063H66.9638V47.5811H64.8123V47.9185H61.5516C61.5516 48.0085 61.5292 48.0985 61.4843 48.1885C61.4395 48.2785 61.3947 48.3572 61.3499 48.4247H61.0473C60.9577 48.5147 60.8905 48.5709 60.8456 48.5934H58.6606C58.5485 48.6834 58.3917 48.7284 58.19 48.7284H51.7693C51.5676 48.7284 51.4107 48.6834 51.2987 48.5934H53.4501C53.4053 48.5709 53.338 48.5147 53.2484 48.4247H53.551C53.5061 48.3572 53.4613 48.2785 53.4165 48.1885C53.3717 48.0985 53.3493 48.0085 53.3493 47.9185H56.5764V47.5811H58.7278V46.9063H55.2318V46.7376H60.4759V46.2314H54.0552V45.7253H54.6603V45.0505H55.1981V44.7131H55.0973V44.0382H55.0301V43.3634H54.7611V42.8572H54.9628V42.5198H55.3326V41.845H56.5428V41.3388H52.2735V41.0014H51.971V40.8327H55.8032V40.4953H56.1394V40.3266H51.7693V39.8204H52.3408V39.483H52.5425V38.8082H55.8368V38.4708H56.7445V37.9646H52.5089V37.2898H53.6518V36.7837H55.1309V36.615H57.3832V36.2775H58.5597V35.7714H58.7951V35.6027H58.0891V35.0966H55.8368V34.9278H54.2569V34.253H60.5431V33.9156H52.8114V33.5782H58.627V33.072H53.0131V32.7346H55.1981V32.3972H57.2823V31.7224H56.61V31.2162H56.8117V30.7101H55.8368V30.5414H55.1309V30.0352H54.9292V29.8665H55.3662V29.5291H55.8032V28.8543H52.1055V28.6856H52.3072V28.5169H53.6854V28.3481H53.2148V28.1794H55.8032V28.0107H55.1645V27.842H55.1309V27.1672H55.299V26.8298H57.6185V26.4923H57.921V26.1549H58.0555V25.9862H54.4586C54.481 25.7388 54.593 25.5138 54.7947 25.3114H55.1645C55.299 25.1764 55.4895 25.1089 55.736 25.1089H62.1567C62.3808 25.1089 62.5713 25.1764 62.7281 25.3114H62.3584C62.5825 25.4913 62.6945 25.7163 62.6945 25.9862H66.2914V26.1549H66.157V26.4923H65.8544V26.8298H63.5349V27.1672H63.3668V27.842H63.4005V28.0107H64.0392V28.1794H61.4507V28.3481H61.9213V28.5169H60.5431V28.6856H60.3414V28.8543H63.5013L63.6021 28.6856H64.6779L64.7451 28.5169H66.6948L66.7957 28.3481H64.8459L64.9468 28.1794H65.5183L65.6191 28.0107H65.7872L65.888 27.842H66.1906L66.2578 27.6733H66.6276L66.8965 27.1672H66.7284L66.9301 26.8298H68.8463L69.0143 26.4923H67.468L67.6361 26.1549H69.3169L69.3841 25.9862H67.0982L67.1654 25.8512C67.2775 25.6263 67.4456 25.4463 67.6697 25.3114H67.4008C67.6025 25.1764 67.8714 25.1089 68.2076 25.1089H75.6367C75.8384 25.1089 76.0065 25.1764 76.1409 25.3114H76.4435C76.6004 25.4688 76.6788 25.6488 76.6788 25.8512C76.6788 25.9187 76.6676 25.9637 76.6452 25.9862H78.9647C78.9647 26.0087 78.9535 26.0312 78.9311 26.0537C78.9311 26.0762 78.9311 26.1099 78.9311 26.1549H77.2839L77.2167 26.2224L77.0822 26.4923H78.6285L78.4268 26.8298H76.5107L76.309 27.1672H76.4771L76.1746 27.6733H75.8384L75.7375 27.842H75.435L75.3341 28.0107H75.1661L75.0652 28.1794H74.4601L74.3593 28.3481H76.3426L76.2418 28.5169H74.2921L74.1912 28.6856H73.1155L73.0146 28.8543H73.2163L72.8466 29.5291H74.1912L73.9895 29.8665H74.2921L74.1912 30.0352H74.2248L73.9223 30.5414H74.3929L74.2921 30.7101H74.3257L74.0231 31.2162H73.3508L73.0483 31.7224H73.7542L73.3508 32.3972H72.981L72.7793 32.7346H70.5943L70.3926 33.072H76.0065L75.7039 33.5782H69.8883L69.6867 33.9156H77.4183L77.2167 34.253H70.9304L70.5271 34.9278H72.107L72.0062 35.0966H74.2584L73.9559 35.6027H74.6618L74.561 35.7714H74.3257L74.0231 36.2775H72.8466L72.7793 36.4125L72.9138 36.615H70.6615L70.7624 36.7837H69.2833L69.5858 37.2898H68.4092L68.8126 37.9646H73.0483L73.3508 38.4708H72.4432L72.6449 38.8082H69.3505L69.7539 39.483H69.5522L69.7539 39.8204H69.1824L69.485 40.3266H73.855L73.9559 40.4953H73.5861L73.7878 40.8327H72.8466L72.9474 41.0014H72.6112L72.8129 41.3388H70.3254L70.6279 41.845H73.5189L73.9223 42.5198H73.855L74.0567 42.8572H74.3257L74.6282 43.3634H75.2333L75.6367 44.0382H75.0316L75.435 44.7131H75.4686L75.6367 45.0505H75.7039L76.1073 45.7253H76.309L76.6116 46.2314H78.2924L78.5949 46.7376H81.217L81.3178 46.9063H78.2924ZM63.3668 30.5414H64.0728V30.7101H64.8459L64.9468 30.5414H64.4762L64.7451 30.0352H64.7115L64.8123 29.8665H64.5098L64.6779 29.5291H63.6021V29.8665H63.1651V30.0352H63.3668V30.5414ZM63.6021 32.3972H63.4341V32.7009L63.6021 32.3972ZM64.0392 40.8327H64.14L64.0392 40.5965V40.8327ZM60.2069 41.0014H60.5095V41.3388H63.1651L62.9634 41.0014H63.2996L63.1988 40.8327H60.2069V41.0014ZM62.2911 46.2314H66.7957L66.5267 45.7253H66.2914L65.9217 45.0505H65.8544L65.6863 44.7131H65.6527L65.283 44.0382H65.888L65.5183 43.3634H64.9132L64.6106 42.8572H64.3417L64.1736 42.5198H64.2409L63.8375 41.845H63.5685V42.5198H63.1988V42.8572H62.9971V43.3634H63.266V44.0382H63.3332V44.7131H63.4341V45.0505H62.8962V45.7253H62.2911V46.2314ZM99.4257 35.7714H101.106V36.4462H100.804V37.1211H100.501V37.6272H99.7954V37.7959H100.064V37.9646H99.1231V38.3021H100.737V38.8082H99.7618V38.9769H99.7954C99.7954 39.0894 99.7842 39.2018 99.7618 39.3143C99.7618 39.4268 99.7618 39.5393 99.7618 39.6517H99.7282C99.7058 39.7192 99.6946 39.8205 99.6946 39.9554V40.3266H99.5265C99.5041 40.3716 99.4929 40.4278 99.4929 40.4953C99.4929 40.5628 99.4929 40.619 99.4929 40.664H99.829L99.7282 41.3388H99.4257C99.4032 41.4513 99.3808 41.5638 99.3584 41.6763C99.3584 41.7887 99.336 41.9012 99.2912 42.0137H99.661C99.661 42.0362 99.6498 42.0587 99.6274 42.0812C99.6274 42.1037 99.6274 42.1374 99.6274 42.1824H100.132C100.132 42.2049 100.12 42.2274 100.098 42.2499C100.098 42.2724 100.098 42.3061 100.098 42.3511H99.4929C99.4705 42.4411 99.4481 42.5311 99.4257 42.621C99.4032 42.6885 99.3808 42.7673 99.3584 42.8572H99.2576L99.0559 43.3634H98.6861C98.6637 43.4533 98.6301 43.5433 98.5853 43.6333C98.5404 43.7008 98.4956 43.7795 98.4508 43.8695H98.7533C98.7085 43.982 98.6525 44.0944 98.5853 44.2069H98.3836C98.3611 44.2969 98.3163 44.3869 98.2491 44.4769C98.2043 44.5443 98.1594 44.6231 98.1146 44.7131H99.1567L98.9214 45.0505H97.6776L97.3078 45.5566H97.6776L97.207 46.0627H97.5768C97.5544 46.0852 97.5207 46.1077 97.4759 46.1302C97.4535 46.1527 97.4311 46.1865 97.4087 46.2314H97.8121C97.7449 46.2764 97.6776 46.3327 97.6104 46.4002C97.5656 46.4676 97.5095 46.5239 97.4423 46.5689H96.8036C96.7364 46.6139 96.6691 46.6701 96.6019 46.7376C96.5347 46.8051 96.4562 46.8613 96.3666 46.9063H96.6019C96.5347 46.9513 96.4562 47.0075 96.3666 47.075C96.2994 47.1425 96.2209 47.1987 96.1313 47.2437H96.0641C95.8624 47.3562 95.6607 47.4687 95.459 47.5811C95.2573 47.6936 95.0444 47.8061 94.8203 47.9185H94.7194C94.6522 47.941 94.5849 47.9635 94.5177 47.986C94.4505 48.0085 94.3832 48.0423 94.316 48.0873C94.1591 48.1547 94.0023 48.2222 93.8454 48.2897C93.7109 48.3347 93.5541 48.3797 93.3748 48.4247H93.3411C92.6016 48.6496 91.7948 48.8183 90.9208 48.9308H90.9544C90.5958 48.9758 90.2149 49.0095 89.8115 49.032C89.4305 49.0545 89.0495 49.0658 88.6685 49.0658C88.2651 49.0658 87.8729 49.0545 87.492 49.032C87.111 49.0095 86.73 48.9758 86.349 48.9308C85.4974 48.8408 84.6794 48.6721 83.895 48.4247H83.9287C83.7718 48.3797 83.6149 48.3347 83.458 48.2897C83.3012 48.2222 83.1443 48.1547 82.9874 48.0873H82.9538C82.8866 48.0423 82.8193 48.0085 82.7521 47.986C82.6849 47.9635 82.6176 47.941 82.5504 47.9185H82.6512C82.4271 47.8061 82.2142 47.6936 82.0125 47.5811C81.8108 47.4687 81.6091 47.3562 81.4075 47.2437H81.4747L80.9704 46.9063H80.7687C80.6791 46.8613 80.6007 46.8051 80.5334 46.7376C80.4662 46.6701 80.399 46.6139 80.3317 46.5689H80.9704L80.567 46.2314H80.1637C80.1412 46.1865 80.1188 46.1527 80.0964 46.1302C80.074 46.1077 80.0404 46.0852 79.9956 46.0627H79.6594C79.5698 45.9728 79.4801 45.894 79.3905 45.8265C79.3233 45.7366 79.256 45.6466 79.1888 45.5566H78.819L78.4156 45.0505H79.6594L79.4577 44.7131H78.382C78.3372 44.6231 78.2924 44.5443 78.2475 44.4769C78.2027 44.3869 78.1579 44.2969 78.1131 44.2069H78.3148C78.2475 44.0944 78.1915 43.982 78.1467 43.8695H77.8441C77.7993 43.7795 77.7545 43.7008 77.7097 43.6333C77.6873 43.5433 77.6537 43.4533 77.6088 43.3634H78.0122L77.8105 42.8572H77.9114C77.889 42.7673 77.8666 42.6885 77.8441 42.621C77.8217 42.5311 77.7993 42.4411 77.7769 42.3511H78.1467C78.1243 42.3061 78.1131 42.2499 78.1131 42.1824H77.7769C77.7769 42.1374 77.7657 42.1037 77.7433 42.0812C77.7433 42.0587 77.7433 42.0362 77.7433 42.0137H77.6761C77.6537 41.9012 77.6312 41.7887 77.6088 41.6763C77.5864 41.5638 77.564 41.4513 77.5416 41.3388H77.7097C77.6873 41.2264 77.6649 41.1139 77.6425 41.0014C77.6425 40.8889 77.6425 40.7765 77.6425 40.664H77.4408L77.4071 40.3266H77.6425V39.9554C77.6425 39.9104 77.6312 39.8654 77.6088 39.8204C77.6088 39.753 77.6088 39.6967 77.6088 39.6517H77.1718C77.1494 39.5393 77.1382 39.4268 77.1382 39.3143C77.1382 39.2018 77.1382 39.0894 77.1382 38.9769H77.3735V38.8082H77.2727V38.3021H77.945V37.9646H76.7684V37.7959H77.4071V37.6272H77.3735V37.1211H77.2054V36.4462H77.4071V35.7714H77.1718V35.2653H75.928V34.5904H77.3735C77.3959 34.5454 77.4071 34.4892 77.4071 34.4217H77.945V34.253H77.5416V33.9156H77.5752L77.6425 33.2407H77.5752C77.5752 33.1508 77.5752 33.072 77.5752 33.0046C77.5976 32.9146 77.62 32.8246 77.6425 32.7346H77.5416C77.5416 32.6446 77.5416 32.5659 77.5416 32.4984C77.564 32.4084 77.5864 32.3185 77.6088 32.2285H77.5416C77.564 32.1385 77.5864 32.0598 77.6088 31.9923C77.6312 31.9023 77.6537 31.8123 77.6761 31.7224H76.7348C76.7348 31.6774 76.7348 31.6436 76.7348 31.6211C76.7572 31.5986 76.7684 31.5761 76.7684 31.5536H77.7769L77.8778 31.2162H77.8105L77.8778 31.0475H78.382C78.4044 31.0025 78.4268 30.9463 78.4492 30.8788C78.4716 30.8113 78.4941 30.7551 78.5165 30.7101H78.1803C78.2475 30.5076 78.3372 30.2827 78.4492 30.0352H78.3484C78.4156 29.9228 78.4716 29.8103 78.5165 29.6978C78.5837 29.5629 78.6509 29.4504 78.7182 29.3604H78.819L78.9199 29.1917H78.382L78.4829 29.023H79.0207L79.1216 28.8543H79.0543L79.4577 28.3481H79.2224L79.6594 27.842C79.7715 27.7295 79.8835 27.6171 79.9956 27.5046C80.13 27.3696 80.2645 27.2572 80.399 27.1672H80.0628L80.2645 26.9985H79.8947C79.9395 26.9535 79.9732 26.9197 79.9956 26.8972C80.0404 26.8747 80.0852 26.8522 80.13 26.8298H80.9704C81.0601 26.7848 81.1497 26.7285 81.2394 26.661C81.329 26.5936 81.4187 26.5373 81.5083 26.4923H81.6091C81.8333 26.3799 82.0574 26.2674 82.2815 26.1549C82.5056 26.0199 82.7297 25.9075 82.9538 25.8175H83.0546C83.5029 25.615 83.9959 25.4463 84.5337 25.3114H84.7018C85.3517 25.1314 86.0353 24.9964 86.7524 24.9065C87.4695 24.8165 88.2091 24.7715 88.9711 24.7715C90.5622 24.7715 91.9741 24.9514 93.2067 25.3114H93.005C93.2515 25.3788 93.498 25.4576 93.7445 25.5476C93.9911 25.615 94.2264 25.705 94.4505 25.8175H94.316C94.5625 25.9075 94.7866 26.0199 94.9883 26.1549C95.2124 26.2674 95.4366 26.3799 95.6607 26.4923H95.5262L96.0304 26.8298H95.19C95.2349 26.8522 95.2685 26.8747 95.2909 26.8972C95.3357 26.9197 95.3805 26.9535 95.4253 26.9985H95.7951C95.8399 27.021 95.8848 27.0435 95.9296 27.0659C95.9744 27.0884 96.008 27.1222 96.0304 27.1672H96.3666C96.5011 27.2572 96.6243 27.3696 96.7364 27.5046C96.8708 27.6171 96.9941 27.7295 97.1061 27.842H97.1398C97.2294 27.932 97.3078 28.022 97.3751 28.112C97.4423 28.1794 97.5095 28.2582 97.5768 28.3481H97.8121L98.2155 28.8543H98.2827C98.3499 28.9218 98.3948 28.978 98.4172 29.023H97.8793L97.9802 29.1917H98.5516L98.6525 29.3604H98.5516C98.6189 29.4504 98.6749 29.5629 98.7197 29.6978C98.7869 29.8103 98.8542 29.9228 98.9214 30.0352H99.0223L99.3248 30.7101H99.661L99.7618 31.0475H99.2576L99.3248 31.2162H99.392L99.4929 31.5536H99.392C99.392 31.5761 99.392 31.5986 99.392 31.6211C99.4145 31.6436 99.4257 31.6774 99.4257 31.7224H98.0138C98.0586 31.8123 98.081 31.9023 98.081 31.9923C98.1034 32.0598 98.1258 32.1385 98.1482 32.2285H99.8963C99.9187 32.3185 99.9299 32.4084 99.9299 32.4984C99.9523 32.5659 99.9635 32.6446 99.9635 32.7346H99.4929C99.5153 32.8246 99.5265 32.9146 99.5265 33.0046C99.5489 33.072 99.5601 33.1508 99.5601 33.2407H99.9971L100.064 33.9156H99.6274V34.0168C99.6274 34.0393 99.6274 34.073 99.6274 34.118C99.6498 34.163 99.661 34.208 99.661 34.253H100.569V34.4217H99.7618C99.7842 34.4667 99.7954 34.5229 99.7954 34.5904H100.401C100.423 34.7029 100.434 34.8154 100.434 34.9278C100.434 35.0403 100.434 35.1528 100.434 35.2653H99.4257V35.7714ZM92.0637 36.4462H92.3663V35.7714H90.6855V35.2653H91.694C91.694 35.1528 91.694 35.0403 91.694 34.9278C91.694 34.8154 91.6828 34.7029 91.6603 34.5904H91.0553C91.0553 34.5454 91.0441 34.5117 91.0216 34.4892C91.0216 34.4667 91.0216 34.4442 91.0216 34.4217H91.8284V34.253H90.9208C90.9208 34.208 90.9096 34.1743 90.8872 34.1518C90.8872 34.1293 90.8872 34.1068 90.8872 34.0843V33.9156H91.2906C91.2906 33.8031 91.2794 33.6906 91.257 33.5782C91.257 33.4432 91.2458 33.3307 91.2233 33.2407H90.7863C90.7639 33.1508 90.7415 33.072 90.7191 33.0046C90.6967 32.9146 90.6631 32.8246 90.6183 32.7346H91.0889C91.0216 32.5547 90.932 32.3859 90.8199 32.2285H89.0719C88.9599 32.0485 88.7806 31.8798 88.5341 31.7224H89.9459C89.8115 31.6324 89.7106 31.5761 89.6434 31.5536H89.7442C89.4081 31.4187 89.0383 31.3512 88.6349 31.3512C88.2315 31.3512 87.8617 31.4187 87.5256 31.5536H86.5507C86.4611 31.5761 86.349 31.6324 86.2145 31.7224H87.1558C86.9765 31.8348 86.7972 32.0035 86.6179 32.2285H86.6852C86.5731 32.3859 86.4835 32.5547 86.4162 32.7346H86.5171C86.4947 32.8246 86.4723 32.9146 86.4499 33.0046C86.4274 33.072 86.3938 33.1508 86.349 33.2407H86.4162C86.3938 33.3307 86.3714 33.4432 86.349 33.5782C86.349 33.6906 86.349 33.8031 86.349 33.9156H86.2818V34.253H86.6852V34.4217H86.1473V34.5904H84.6682V35.2653H85.912V35.7714H86.1473V36.4462H85.9456V37.1211H86.1137V37.6272H86.1473C86.1473 37.6947 86.1585 37.7509 86.1809 37.7959H85.5086V37.9646H86.6852V38.3021H86.0128V38.8082H86.1137V38.9769H85.8784C85.8784 39.0894 85.8784 39.2018 85.8784 39.3143C85.9008 39.4268 85.912 39.5393 85.912 39.6517H86.3826V39.753C86.3826 39.8429 86.3826 39.9442 86.3826 40.0566C86.3826 40.1466 86.3938 40.2366 86.4162 40.3266H86.1809C86.2033 40.3716 86.2145 40.4278 86.2145 40.4953C86.2145 40.5628 86.2258 40.619 86.2482 40.664H86.4499C86.4723 40.7765 86.5059 40.8889 86.5507 41.0014C86.5955 41.1139 86.6403 41.2264 86.6852 41.3388H86.5171C86.6516 41.5863 86.8308 41.8112 87.0549 42.0137H87.1222C87.167 42.0362 87.2118 42.0699 87.2566 42.1149C87.3015 42.1374 87.3463 42.1599 87.3911 42.1824H87.6937C87.7609 42.2049 87.8281 42.2386 87.8954 42.2836C87.9626 42.3061 88.0298 42.3286 88.097 42.3511H87.6937C87.9626 42.4411 88.2763 42.4861 88.6349 42.4861C88.9935 42.4861 89.3072 42.4411 89.5761 42.3511H90.1476C90.2149 42.3286 90.2821 42.3061 90.3493 42.2836C90.4166 42.2386 90.4838 42.2049 90.551 42.1824H90.0132C90.058 42.1599 90.1028 42.1374 90.1476 42.1149C90.1924 42.0699 90.2373 42.0362 90.2821 42.0137H89.9123C90.114 41.8562 90.2933 41.6313 90.4502 41.3388H90.7527C90.8648 41.0914 90.9544 40.8665 91.0216 40.664H90.6855C90.7079 40.619 90.7191 40.5628 90.7191 40.4953C90.7191 40.4278 90.7303 40.3716 90.7527 40.3266H90.9208C90.9432 40.2366 90.9544 40.1466 90.9544 40.0566C90.9544 39.9442 90.9544 39.8429 90.9544 39.753V39.6517H91.0216C91.0216 39.5393 91.0216 39.4268 91.0216 39.3143C91.0216 39.2018 91.0328 39.0894 91.0553 38.9769H91.0216V38.8082H91.9965V38.3021H90.3829V37.9646H91.3242V37.7959H91.0553V37.6272H91.7612V37.1211H92.0637V36.4462Z" fill="black"/>
</g>
</g>
<defs>
<filter id="filter0_d_44_250" x="0.395996" y="0" width="105" height="57" filterUnits="userSpaceOnUse" color-interpolation-filters="sRGB">
<feFlood flood-opacity="0" result="BackgroundImageFix"/>
<feColorMatrix in="SourceAlpha" type="matrix" values="0 0 0 0 0 0 0 0 0 0 0 0 0 0 0 0 0 0 127 0" result="hardAlpha"/>
<feOffset dy="4"/>
<feGaussianBlur stdDeviation="2"/>
<feComposite in2="hardAlpha" operator="out"/>
<feColorMatrix type="matrix" values="0 0 0 0 0 0 0 0 0 0 0 0 0 0 0 0 0 0 0.25 0"/>
<feBlend mode="normal" in2="BackgroundImageFix" result="effect1_dropShadow_44_250"/>
<feBlend mode="normal" in="SourceGraphic" in2="effect1_dropShadow_44_250" result="shape"/>
</filter>
<clipPath id="clip0_44_250">
<rect width="97" height="49" fill="white" transform="matrix(-1 0 0 1 101.396 0)"/>
</clipPath>
</defs>
</svg>
