<svg width="343" height="248" viewBox="0 0 343 248" fill="none" xmlns="http://www.w3.org/2000/svg">
<path fill-rule="evenodd" clip-rule="evenodd" d="M17.6238 1H309.5C327.449 1 342 15.5507 342 33.5V235C342 241.627 336.627 247 330 247H289C282.373 247 277 241.627 277 235V153.124C277 149.422 275.292 145.928 272.371 143.654L175.854 68.5304C173.747 66.8904 171.153 66 168.483 66H19.6238L1 47.3762V17.6238L17.6238 1Z" fill="#ABF13C"/>
<path d="M17.6238 1V0H17.2096L16.9167 0.292893L17.6238 1ZM272.371 143.654L271.756 144.444L271.756 144.444L272.371 143.654ZM175.854 68.5304L175.24 69.3195L175.24 69.3195L175.854 68.5304ZM19.6238 66L18.9167 66.7071L19.2096 67H19.6238V66ZM1 47.3762H0V47.7904L0.292893 48.0833L1 47.3762ZM1 17.6238L0.292893 16.9167L0 17.2096V17.6238H1ZM17.6238 2H309.5V0H17.6238V2ZM309.5 2C326.897 2 341 16.103 341 33.5H343C343 14.9985 328.002 0 309.5 0V2ZM341 33.5V235H343V33.5H341ZM341 235C341 241.075 336.075 246 330 246V248C337.18 248 343 242.18 343 235H341ZM330 246H289V248H330V246ZM289 246C282.925 246 278 241.075 278 235H276C276 242.18 281.82 248 289 248V246ZM278 235V153.124H276V235H278ZM278 153.124C278 149.114 276.149 145.328 272.985 142.865L271.756 144.444C274.434 146.528 276 149.731 276 153.124H278ZM272.985 142.865L176.468 67.7413L175.24 69.3195L271.756 144.444L272.985 142.865ZM176.468 67.7413C174.186 65.9646 171.376 65 168.483 65V67C170.931 67 173.308 67.8162 175.24 69.3195L176.468 67.7413ZM168.483 65H19.6238V67H168.483V65ZM20.3309 65.2929L1.70711 46.6691L0.292893 48.0833L18.9167 66.7071L20.3309 65.2929ZM2 47.3762V17.6238H0V47.3762H2ZM1.70711 18.3309L18.3309 1.70711L16.9167 0.292893L0.292893 16.9167L1.70711 18.3309Z" fill="black"/>
</svg>
