<svg width="79" height="34" viewBox="0 0 79 34" fill="none" xmlns="http://www.w3.org/2000/svg">
<rect x="0.1" y="0.1" width="78.8" height="33.8" rx="7.9" fill="#ABF13C" stroke="black" stroke-width="0.2"/>
<path d="M16.2522 18.726V15.99H25.7922V18.726H16.2522ZM23.8662 11.4H26.9082V24H23.8662V11.4ZM15.4062 11.4H18.4482V24H15.4062V11.4ZM28.8006 19.86C28.8006 18.984 29.0046 18.222 29.4126 17.574C29.8206 16.926 30.3846 16.422 31.1046 16.062C31.8246 15.702 32.6346 15.522 33.5346 15.522C34.4346 15.522 35.2386 15.702 35.9466 16.062C36.6666 16.422 37.2306 16.926 37.6386 17.574C38.0586 18.222 38.2686 18.984 38.2686 19.86C38.2686 20.724 38.0586 21.48 37.6386 22.128C37.2306 22.776 36.6666 23.28 35.9466 23.64C35.2386 24 34.4346 24.18 33.5346 24.18C32.6346 24.18 31.8246 24 31.1046 23.64C30.3846 23.28 29.8206 22.776 29.4126 22.128C29.0046 21.48 28.8006 20.724 28.8006 19.86ZM31.5906 19.86C31.5906 20.292 31.6806 20.664 31.8606 20.976C32.0406 21.276 32.2746 21.51 32.5626 21.678C32.8506 21.846 33.1746 21.93 33.5346 21.93C33.8826 21.93 34.2006 21.846 34.4886 21.678C34.7886 21.51 35.0226 21.276 35.1906 20.976C35.3706 20.664 35.4606 20.292 35.4606 19.86C35.4606 19.428 35.3706 19.056 35.1906 18.744C35.0226 18.432 34.7886 18.192 34.4886 18.024C34.2006 17.856 33.8826 17.772 33.5346 17.772C33.1746 17.772 32.8506 17.856 32.5626 18.024C32.2746 18.192 32.0406 18.432 31.8606 18.744C31.6806 19.056 31.5906 19.428 31.5906 19.86ZM52.5398 18.672V24H49.8038V18.96C49.8038 18.456 49.7198 18.078 49.5518 17.826C49.3958 17.562 49.1318 17.43 48.7598 17.43C48.5198 17.43 48.3038 17.49 48.1118 17.61C47.9318 17.718 47.7878 17.886 47.6798 18.114C47.5838 18.342 47.5358 18.624 47.5358 18.96V24H44.7998V18.96C44.7998 18.456 44.7158 18.078 44.5478 17.826C44.3918 17.562 44.1278 17.43 43.7558 17.43C43.5158 17.43 43.2998 17.49 43.1078 17.61C42.9278 17.718 42.7838 17.886 42.6758 18.114C42.5798 18.342 42.5318 18.624 42.5318 18.96V24H39.9038V15.72H42.5318V16.944C42.7598 16.5 43.0718 16.152 43.4678 15.9C43.8758 15.648 44.3618 15.522 44.9258 15.522C45.5738 15.522 46.0898 15.642 46.4738 15.882C46.8578 16.11 47.1338 16.446 47.3018 16.89C47.6018 16.458 47.9738 16.122 48.4178 15.882C48.8618 15.642 49.3658 15.522 49.9298 15.522C50.5778 15.522 51.0878 15.648 51.4598 15.9C51.8438 16.14 52.1198 16.494 52.2878 16.962C52.4558 17.43 52.5398 18 52.5398 18.672ZM58.8814 24.18C57.9214 24.18 57.0874 24.006 56.3794 23.658C55.6834 23.298 55.1434 22.794 54.7594 22.146C54.3754 21.498 54.1834 20.736 54.1834 19.86C54.1834 18.972 54.3694 18.204 54.7414 17.556C55.1134 16.908 55.6474 16.41 56.3434 16.062C57.0514 15.714 57.8854 15.54 58.8454 15.54C59.8054 15.54 60.6154 15.708 61.2754 16.044C61.9354 16.368 62.4394 16.842 62.7874 17.466C63.1354 18.09 63.3094 18.846 63.3094 19.734C63.3094 19.866 63.3094 19.998 63.3094 20.13C63.3094 20.25 63.2974 20.352 63.2734 20.436H55.7134V18.924H60.8254L60.1774 19.752C60.2374 19.668 60.2854 19.566 60.3214 19.446C60.3694 19.314 60.3934 19.206 60.3934 19.122C60.3934 18.762 60.3274 18.45 60.1954 18.186C60.0634 17.922 59.8774 17.718 59.6374 17.574C59.3974 17.43 59.1154 17.358 58.7914 17.358C58.3834 17.358 58.0414 17.448 57.7654 17.628C57.4894 17.808 57.2794 18.084 57.1354 18.456C57.0034 18.816 56.9314 19.272 56.9194 19.824C56.9194 20.328 56.9914 20.76 57.1354 21.12C57.2794 21.48 57.4954 21.756 57.7834 21.948C58.0714 22.128 58.4254 22.218 58.8454 22.218C59.3254 22.218 59.7334 22.128 60.0694 21.948C60.4174 21.768 60.6934 21.498 60.8974 21.138L63.3274 21.732C62.8954 22.548 62.3074 23.16 61.5634 23.568C60.8314 23.976 59.9374 24.18 58.8814 24.18Z" fill="black"/>
</svg>
