<svg width="409" height="750" viewBox="0 0 409 750" fill="none" xmlns="http://www.w3.org/2000/svg">
<path d="M394 715.865L387.919 719.212L389.439 608.525L394 610.087L394 715.865Z" fill="#ABF13C" stroke="#ABF13C" stroke-width="3"/>
<path d="M378.291 583.307L387.919 578.621L387.919 623.699L378.291 618.343L378.291 583.307Z" fill="#ABF13C" stroke="#ABF13C" stroke-width="3"/>
<path d="M265.288 741.751L18 741.751L18 648.47L40.8032 633.742L40.8032 333.59L66.1402 316.853L253.633 316.853L278.464 299L363.596 299L383.865 313.729L383.865 397.191L363.596 410.581L363.596 502.969L388.426 519.037L388.426 727.692L284.544 727.692L265.288 741.751Z" fill="#ABF13C" stroke="#ABF13C" stroke-width="3"/>
<path d="M31.6814 748L25.6006 741.751L89.4496 741.751L80.3283 748L31.6814 748Z" fill="#ABF13C" stroke="#ABF13C" stroke-width="3"/>
<rect x="31.1753" y="732.825" width="9.37276" height="12.1617" transform="rotate(-90 31.1753 732.825)" fill="black"/>
<rect x="31.1753" y="717.204" width="9.37276" height="12.1617" transform="rotate(-90 31.1753 717.204)" fill="black"/>
<rect x="31.1753" y="701.583" width="9.37276" height="12.1617" transform="rotate(-90 31.1753 701.583)" fill="black"/>
<rect x="32.6753" y="684.461" width="6.37276" height="9.16172" transform="rotate(-90 32.6753 684.461)" stroke="black" stroke-width="3"/>
<mask id="mask0_44_249" style="mask-type:alpha" maskUnits="userSpaceOnUse" x="275" y="730" width="107" height="12">
<rect x="275.423" y="741.751" width="11.6044" height="106.415" transform="rotate(-90 275.423 741.751)" fill="#D9D9D9"/>
</mask>
<g mask="url(#mask0_44_249)">
<line y1="-2" x2="24.2927" y2="-2" transform="matrix(0.834387 -0.55118 0.959502 0.281702 278.463 742.645)" stroke="#ABF13C" stroke-width="4"/>
<line y1="-2" x2="24.2927" y2="-2" transform="matrix(0.834387 -0.55118 0.959502 0.281702 289.611 742.645)" stroke="#ABF13C" stroke-width="4"/>
<line y1="-2" x2="24.2927" y2="-2" transform="matrix(0.834387 -0.55118 0.959502 0.281702 300.76 742.645)" stroke="#ABF13C" stroke-width="4"/>
<line y1="-2" x2="24.2927" y2="-2" transform="matrix(0.834387 -0.55118 0.959502 0.281702 311.908 742.645)" stroke="#ABF13C" stroke-width="4"/>
<line y1="-2" x2="24.2927" y2="-2" transform="matrix(0.834387 -0.55118 0.959502 0.281702 323.057 742.645)" stroke="#ABF13C" stroke-width="4"/>
<line y1="-2" x2="24.2927" y2="-2" transform="matrix(0.834387 -0.55118 0.959502 0.281702 334.205 742.645)" stroke="#ABF13C" stroke-width="4"/>
<line y1="-2" x2="24.2927" y2="-2" transform="matrix(0.834387 -0.55118 0.959502 0.281702 345.353 742.645)" stroke="#ABF13C" stroke-width="4"/>
<line y1="-2" x2="24.2927" y2="-2" transform="matrix(0.834387 -0.55118 0.959502 0.281702 356.501 742.645)" stroke="#ABF13C" stroke-width="4"/>
<line y1="-2" x2="24.2927" y2="-2" transform="matrix(0.834387 -0.55118 0.959502 0.281702 367.649 742.645)" stroke="#ABF13C" stroke-width="4"/>
<line y1="-2" x2="24.2927" y2="-2" transform="matrix(0.834387 -0.55118 0.959502 0.281702 378.797 742.645)" stroke="#ABF13C" stroke-width="4"/>
</g>
<path fill-rule="evenodd" clip-rule="evenodd" d="M235.393 0C238.575 0 241.628 1.26428 243.878 3.51472L405.037 164.673C409.723 169.359 409.723 176.957 405.037 181.644L364.676 222.004C359.99 226.69 352.392 226.69 347.706 222.004L212.76 87.0584C208.074 82.3721 200.476 82.3721 195.79 87.0584L60.845 222.003C56.1587 226.69 48.5607 226.69 43.8744 222.003L3.51471 181.644C-1.17159 176.957 -1.17159 169.359 3.5147 164.673L164.673 3.51472C166.924 1.26428 169.976 0 173.158 0H235.393Z" fill="#ABF13C"/>
<rect width="191.407" height="76.9096" transform="matrix(-1 0 0 1 299.077 72.2119)" fill="#ABF13C"/>
<mask id="path-22-inside-1_44_249" fill="white">
<path fill-rule="evenodd" clip-rule="evenodd" d="M142.544 239.125C137.259 242.155 134 247.781 134 253.872V362C134 366.418 137.582 370 142 370H270C274.418 370 278 366.418 278 362V234C278 229.582 274.418 226 270 226H169.961C166.994 226 164.079 226.777 161.505 228.252L142.544 239.125Z"/>
</mask>
<path d="M161.505 228.252L161.008 227.385L161.505 228.252ZM135 362V253.872H133V362H135ZM142 369C138.134 369 135 365.866 135 362H133C133 366.971 137.029 371 142 371V369ZM270 369H142V371H270V369ZM277 362C277 365.866 273.866 369 270 369V371C274.971 371 279 366.971 279 362H277ZM277 234V362H279V234H277ZM270 227C273.866 227 277 230.134 277 234H279C279 229.029 274.971 225 270 225V227ZM169.961 227H270V225H169.961V227ZM161.008 227.385L142.046 238.257L143.041 239.992L162.003 229.12L161.008 227.385ZM169.961 225C166.82 225 163.733 225.822 161.008 227.385L162.003 229.12C164.425 227.731 167.169 227 169.961 227V225ZM135 253.872C135 248.139 138.068 242.844 143.041 239.992L142.046 238.257C136.451 241.466 133 247.423 133 253.872H135Z" fill="#ABF13C" mask="url(#path-22-inside-1_44_249)"/>
<line x1="206.5" y1="138" x2="206.5" y2="226" stroke="#ABF13C"/>
</svg>
