<svg width="34" height="109" viewBox="0 0 34 109" fill="none" xmlns="http://www.w3.org/2000/svg">
<rect x="33.9" y="0.1" width="108.8" height="33.8" rx="7.9" transform="rotate(90 33.9 0.1)" fill="#ABF13C" stroke="black" stroke-width="0.2"/>
<path d="M15.706 22.5523L15.706 25.7023L10 29.6443L10 26.0803L15.706 22.5523ZM22.6 19.4023L22.6 22.4443L10 22.4443L10 19.4023L22.6 19.4023ZM20.026 21.3103L22.6 21.3103L22.6 23.9923C22.6 25.0723 22.426 25.9723 22.078 26.6923C21.73 27.4123 21.244 27.9583 20.62 28.3303C20.008 28.7023 19.294 28.8883 18.478 28.8883C17.674 28.8883 16.96 28.7023 16.336 28.3303C15.724 27.9583 15.244 27.4123 14.896 26.6923C14.548 25.9723 14.374 25.0723 14.374 23.9923L14.374 21.3103L16.732 21.3103L16.732 23.7763C16.732 24.1843 16.792 24.5323 16.912 24.8203C17.044 25.1203 17.23 25.3483 17.47 25.5043C17.722 25.6603 18.022 25.7383 18.37 25.7383C18.718 25.7383 19.012 25.6603 19.252 25.5043C19.504 25.3483 19.696 25.1203 19.828 24.8203C19.96 24.5323 20.026 24.1843 20.026 23.7763L20.026 21.3103ZM12.592 32.8926C12.376 32.8926 12.19 32.9466 12.034 33.0546C11.89 33.1626 11.776 33.3066 11.692 33.4866C11.62 33.6666 11.584 33.8646 11.584 34.0806C11.584 34.3926 11.65 34.6806 11.782 34.9446C11.914 35.2086 12.112 35.4246 12.376 35.5926C12.64 35.7606 12.964 35.8446 13.348 35.8446L12.268 36.1326C11.74 36.1326 11.29 35.9886 10.918 35.7006C10.558 35.4126 10.282 35.0406 10.09 34.5846C9.91 34.1286 9.82 33.6366 9.82 33.1086C9.82 32.5806 9.916 32.0886 10.108 31.6326C10.312 31.1886 10.612 30.8286 11.008 30.5526C11.404 30.2886 11.884 30.1566 12.448 30.1566C13.24 30.1566 13.864 30.4386 14.32 31.0026C14.788 31.5666 15.022 32.3646 15.022 33.3966C15.022 33.9006 14.974 34.3506 14.878 34.7466C14.782 35.1546 14.662 35.5026 14.518 35.7906C14.374 36.0786 14.224 36.2946 14.068 36.4386L12.862 36.4386C13.078 36.1506 13.24 35.8146 13.348 35.4306C13.468 35.0586 13.528 34.6626 13.528 34.2426C13.528 33.9186 13.492 33.6606 13.42 33.4686C13.348 33.2766 13.24 33.1326 13.096 33.0366C12.964 32.9406 12.796 32.8926 12.592 32.8926ZM15.742 31.6866L17.56 30.7686C17.788 31.2366 18.004 31.8006 18.208 32.4606C18.412 33.1206 18.514 33.8406 18.514 34.6206C18.514 35.3526 18.406 36.0066 18.19 36.5826C17.986 37.1586 17.686 37.6146 17.29 37.9506C16.894 38.2866 16.408 38.4546 15.832 38.4546L10 38.4546L10 35.8446L15.22 35.8446C15.424 35.8446 15.598 35.8086 15.742 35.7366C15.898 35.6766 16.03 35.5806 16.138 35.4486C16.246 35.3166 16.324 35.1486 16.372 34.9446C16.42 34.7526 16.444 34.5306 16.444 34.2786C16.444 33.9066 16.402 33.5406 16.318 33.1806C16.234 32.8326 16.132 32.5266 16.012 32.2626C15.904 31.9986 15.814 31.8066 15.742 31.6866ZM18.28 48.8798L6.04 43.4798L6.04 40.7438L10.666 42.7598L18.28 39.1778L18.28 42.1658L11.638 44.8478L11.656 43.4438L18.28 46.0898L18.28 48.8798ZM24.04 56.0706L24.04 58.7886L10 58.7886L10 56.0706L24.04 56.0706ZM14.14 49.3026C15.076 49.3026 15.862 49.4886 16.498 49.8606C17.134 50.2446 17.62 50.7366 17.956 51.3366C18.292 51.9366 18.46 52.5726 18.46 53.2446C18.46 53.9406 18.286 54.5526 17.938 55.0806C17.59 55.6206 17.092 56.0466 16.444 56.3586C15.808 56.6706 15.04 56.8266 14.14 56.8266C13.252 56.8266 12.484 56.6706 11.836 56.3586C11.188 56.0466 10.69 55.6206 10.342 55.0806C9.994 54.5526 9.82 53.9406 9.82 53.2446C9.82 52.5726 9.988 51.9366 10.324 51.3366C10.66 50.7366 11.146 50.2446 11.782 49.8606C12.43 49.4886 13.216 49.3026 14.14 49.3026ZM14.14 52.1646C13.708 52.1646 13.33 52.2546 13.006 52.4346C12.694 52.6146 12.448 52.8546 12.268 53.1546C12.1 53.4546 12.016 53.7846 12.016 54.1446C12.016 54.4566 12.1 54.7566 12.268 55.0446C12.436 55.3446 12.676 55.5906 12.988 55.7826C13.312 55.9746 13.696 56.0706 14.14 56.0706C14.584 56.0706 14.962 55.9746 15.274 55.7826C15.598 55.5906 15.844 55.3446 16.012 55.0446C16.18 54.7566 16.264 54.4566 16.264 54.1446C16.264 53.7846 16.174 53.4546 15.994 53.1546C15.826 52.8546 15.58 52.6146 15.256 52.4346C14.944 52.2546 14.572 52.1646 14.14 52.1646ZM21.394 60.7359C21.826 60.7359 22.174 60.8919 22.438 61.2039C22.714 61.5159 22.852 61.8879 22.852 62.3199C22.852 62.7639 22.714 63.1359 22.438 63.4359C22.174 63.7479 21.826 63.9039 21.394 63.9039C20.962 63.9039 20.608 63.7479 20.332 63.4359C20.056 63.1359 19.918 62.7639 19.918 62.3199C19.918 61.8879 20.056 61.5159 20.332 61.2039C20.608 60.8919 20.962 60.7359 21.394 60.7359ZM18.28 61.0059L18.28 63.6339L10 63.6339L10 61.0059L18.28 61.0059ZM13.24 68.7165C12.76 68.7165 12.382 68.8065 12.106 68.9865C11.842 69.1665 11.71 69.4785 11.71 69.9225C11.71 70.2225 11.77 70.4745 11.89 70.6785C12.01 70.8945 12.184 71.0625 12.412 71.1825C12.64 71.3025 12.916 71.3625 13.24 71.3625L18.28 71.3625L18.28 74.0805L10 74.0805L10 71.3625L11.242 71.3625C10.798 71.1105 10.444 70.7805 10.18 70.3725C9.928 69.9645 9.802 69.4545 9.802 68.8425C9.802 67.8105 10.078 67.0545 10.63 66.5745C11.194 66.1065 11.968 65.8725 12.952 65.8725L18.28 65.8725L18.28 68.7165L13.24 68.7165ZM15.328 88.8621L10 88.8621L10 86.1261L15.04 86.1261C15.544 86.1261 15.922 86.0421 16.174 85.8741C16.438 85.7181 16.57 85.4541 16.57 85.0821C16.57 84.8421 16.51 84.6261 16.39 84.4341C16.282 84.2541 16.114 84.1101 15.886 84.0021C15.658 83.9061 15.376 83.8581 15.04 83.8581L10 83.8581L10 81.1221L15.04 81.1221C15.544 81.1221 15.922 81.0381 16.174 80.8701C16.438 80.7141 16.57 80.4501 16.57 80.0781C16.57 79.8381 16.51 79.6221 16.39 79.4301C16.282 79.2501 16.114 79.1061 15.886 78.9981C15.658 78.9021 15.376 78.8541 15.04 78.8541L10 78.8541L10 76.2261L18.28 76.2261L18.28 78.8541L17.056 78.8541C17.5 79.0821 17.848 79.3941 18.1 79.7901C18.352 80.1981 18.478 80.6841 18.478 81.2481C18.478 81.8961 18.358 82.4121 18.118 82.7961C17.89 83.1801 17.554 83.4561 17.11 83.6241C17.542 83.9241 17.878 84.2961 18.118 84.7401C18.358 85.1841 18.478 85.6881 18.478 86.2521C18.478 86.9001 18.352 87.4101 18.1 87.7821C17.86 88.1661 17.506 88.4421 17.038 88.6101C16.57 88.7781 16 88.8621 15.328 88.8621Z" fill="black"/>
</svg>
