<svg width="129" height="104" viewBox="0 0 129 104" fill="none" xmlns="http://www.w3.org/2000/svg">
<mask id="path-1-inside-1_42_157" fill="white">
<path fill-rule="evenodd" clip-rule="evenodd" d="M0 12C0 5.37258 5.37258 0 12 0H26.648C32.3652 0 37 4.63477 37 10.352V10.352C37 13.5403 38.4691 16.5507 40.9824 18.5124L103.69 67.4595C105.799 69.1058 108.398 70 111.073 70H117C123.627 70 129 75.3726 129 82V92C129 98.6274 123.627 104 117 104H101C100.648 104 100.302 103.97 99.9665 103.911C96.6571 103.709 93.3725 102.538 90.5613 100.343L7.46062 35.4781V35.4781C5.99701 34.3357 4.36351 33.3651 2.92827 32.1872C1.14051 30.72 0 28.4932 0 26V12Z"/>
</mask>
<path fill-rule="evenodd" clip-rule="evenodd" d="M0 12C0 5.37258 5.37258 0 12 0H26.648C32.3652 0 37 4.63477 37 10.352V10.352C37 13.5403 38.4691 16.5507 40.9824 18.5124L103.69 67.4595C105.799 69.1058 108.398 70 111.073 70H117C123.627 70 129 75.3726 129 82V92C129 98.6274 123.627 104 117 104H101C100.648 104 100.302 103.97 99.9665 103.911C96.6571 103.709 93.3725 102.538 90.5613 100.343L7.46062 35.4781V35.4781C5.99701 34.3357 4.36351 33.3651 2.92827 32.1872C1.14051 30.72 0 28.4932 0 26V12Z" fill="#ABF13C"/>
<path d="M99.9665 103.911L100.001 103.714L99.9898 103.712L99.9788 103.712L99.9665 103.911ZM90.5613 100.343L90.4383 100.501L90.4383 100.501L90.5613 100.343ZM2.92827 32.1872L2.80139 32.3418L2.92827 32.1872ZM103.69 67.4595L103.567 67.6171L103.69 67.4595ZM40.9824 18.5124L40.8593 18.6701L40.9824 18.5124ZM26.648 -0.2H12V0.2H26.648V-0.2ZM40.8593 18.6701L103.567 67.6171L103.813 67.3018L41.1054 18.3548L40.8593 18.6701ZM117 69.8H111.073V70.2H117V69.8ZM129.2 92V82H128.8V92H129.2ZM101 104.2H117V103.8H101V104.2ZM99.9323 104.108C100.279 104.169 100.636 104.2 101 104.2V103.8C100.659 103.8 100.325 103.771 100.001 103.714L99.9323 104.108ZM99.9788 103.712C96.7084 103.511 93.4627 102.354 90.6844 100.186L90.4383 100.501C93.2823 102.721 96.6058 103.906 99.9543 104.111L99.9788 103.712ZM90.6844 100.186L7.58368 35.3204L7.33756 35.6358L90.4383 100.501L90.6844 100.186ZM-0.2 26C-0.2 28.5556 0.969328 30.8383 2.80139 32.3418L3.05514 32.0326C1.31169 30.6018 0.2 28.4308 0.2 26H-0.2ZM-0.2 12V26H0.2V12H-0.2ZM7.58368 35.3204C6.84624 34.7448 6.06638 34.2128 5.29752 33.6814C4.52658 33.1486 3.76565 32.6157 3.05514 32.0326L2.80139 32.3418C3.52613 32.9366 4.29957 33.4779 5.07009 34.0105C5.84269 34.5444 6.61138 35.0689 7.33756 35.6358L7.58368 35.3204ZM128.8 92C128.8 98.517 123.517 103.8 117 103.8V104.2C123.738 104.2 129.2 98.7379 129.2 92H128.8ZM117 70.2C123.517 70.2 128.8 75.483 128.8 82H129.2C129.2 75.2621 123.738 69.8 117 69.8V70.2ZM103.567 67.6171C105.711 69.2909 108.353 70.2 111.073 70.2V69.8C108.442 69.8 105.887 68.9207 103.813 67.3018L103.567 67.6171ZM36.8 10.352C36.8 13.6019 38.2975 16.6704 40.8593 18.6701L41.1054 18.3548C38.6407 16.4309 37.2 13.4787 37.2 10.352H36.8ZM12 -0.2C5.26213 -0.2 -0.2 5.26213 -0.2 12H0.2C0.2 5.48304 5.48304 0.2 12 0.2V-0.2ZM26.648 0.2C32.2548 0.2 36.8 4.74522 36.8 10.352H37.2C37.2 4.52431 32.4757 -0.2 26.648 -0.2V0.2Z" fill="black" mask="url(#path-1-inside-1_42_157)"/>
<path d="M36.2145 29.6386L37.8869 27.496L45.7477 33.6319L44.0753 35.7744L41.3368 33.6369L35.2563 41.4267L32.8583 39.555L38.9388 31.7651L36.2145 29.6386ZM40.6643 45.8763C39.9075 45.2856 39.3571 44.6353 39.0132 43.9253C38.686 43.2133 38.5705 42.4837 38.6665 41.7366C38.7625 40.9895 39.08 40.2707 39.619 39.5802C40.1654 38.8802 40.7846 38.3892 41.4765 38.1073C42.1685 37.8254 42.8959 37.7614 43.6586 37.9153C44.4309 38.0767 45.1954 38.4527 45.9521 39.0434C46.7089 39.6341 47.244 40.2649 47.5576 40.9358C47.8785 41.5974 47.9841 42.2811 47.8745 42.9871C47.7649 43.6932 47.4368 44.3962 46.8905 45.0962C46.8092 45.2002 46.728 45.3043 46.6468 45.4083C46.573 45.5029 46.5007 45.5759 46.4301 45.6274L40.4707 40.9757L41.401 39.7838L45.4307 42.9292L44.4105 43.1832C44.5094 43.1539 44.61 43.103 44.7123 43.0306C44.8313 42.9561 44.9167 42.8857 44.9684 42.8195C45.1899 42.5357 45.3298 42.2492 45.3882 41.9598C45.4466 41.6705 45.4255 41.3952 45.3249 41.1341C45.2243 40.8729 45.0463 40.6426 44.7909 40.4432C44.4693 40.1922 44.1443 40.0527 43.816 40.0248C43.4877 39.9968 43.1523 40.0852 42.8099 40.2898C42.4844 40.4924 42.147 40.8075 41.7979 41.2353C41.4878 41.6326 41.2787 42.0174 41.1707 42.3898C41.0628 42.7622 41.0632 43.1127 41.1721 43.4412C41.2884 43.7603 41.512 44.0491 41.8431 44.3075C42.2215 44.6029 42.5985 44.783 42.9741 44.8478C43.3592 44.9201 43.7429 44.8771 44.1252 44.7188L45.6753 46.6822C44.8326 47.0597 43.9925 47.1803 43.155 47.0441C42.3269 46.9153 41.4967 46.5261 40.6643 45.8763ZM54.2275 38.4242L56.3842 40.1076L47.7453 51.1752L45.5886 49.4917L54.2275 38.4242ZM52.6225 55.2105C51.8658 54.6198 51.3154 53.9694 50.9714 53.2595C50.6443 52.5475 50.5287 51.8179 50.6247 51.0708C50.7207 50.3237 51.0383 49.6049 51.5773 48.9144C52.1237 48.2144 52.7428 47.7234 53.4348 47.4415C54.1268 47.1596 54.8541 47.0956 55.6169 47.2495C56.3891 47.4108 57.1536 47.7868 57.9104 48.3775C58.6671 48.9682 59.2023 49.599 59.5158 50.27C59.8367 50.9315 59.9424 51.6153 59.8327 52.3213C59.7231 53.0273 59.3951 53.7303 58.8487 54.4303C58.7675 54.5344 58.6863 54.6384 58.605 54.7425C58.5312 54.8371 58.459 54.9101 58.3884 54.9616L52.4289 50.3098L53.3593 49.1179L57.389 52.2634L56.3687 52.5174C56.4677 52.4881 56.5683 52.4372 56.6705 52.3648C56.7896 52.2902 56.8749 52.2199 56.9266 52.1537C57.1481 51.8699 57.2881 51.5833 57.3465 51.294C57.4049 51.0047 57.3838 50.7294 57.2832 50.4682C57.1826 50.207 57.0046 49.9768 56.7492 49.7774C56.4276 49.5264 56.1026 49.3869 55.7743 49.3589C55.446 49.331 55.1106 49.4194 54.7682 49.624C54.4426 49.8266 54.1053 50.1417 53.7562 50.5695C53.4461 50.9668 53.237 51.3516 53.129 51.724C53.021 52.0964 53.0215 52.4468 53.1303 52.7754C53.2466 53.0945 53.4703 53.3833 53.8014 53.6417C54.1797 53.937 54.5567 54.1171 54.9324 54.182C55.3174 54.2542 55.7011 54.2112 56.0835 54.053L57.6335 56.0164C56.7909 56.3938 55.9508 56.5145 55.1133 56.3783C54.2852 56.2495 53.4549 55.8602 52.6225 55.2105ZM56.9401 59.1058L59.0117 60.7229C58.8334 61.0099 58.7355 61.2912 58.7182 61.567C58.7104 61.8501 58.782 62.1191 58.9331 62.374C59.0768 62.6385 59.2859 62.8777 59.5602 63.0919C59.8629 63.3281 60.1926 63.4713 60.5493 63.5214C60.8986 63.581 61.2513 63.5289 61.6073 63.3654C61.9654 63.2186 62.2995 62.9466 62.6096 62.5493L67.5936 56.1642L69.651 57.7702L64.667 64.1553C64.0173 64.9877 63.3238 65.5349 62.5866 65.7967C61.8589 66.0659 61.1331 66.1083 60.4094 65.924C59.6782 65.749 58.9768 65.3995 58.3052 64.8752C57.5011 64.2476 56.9302 63.6041 56.5925 62.9446C56.2642 62.2926 56.1411 61.6409 56.2233 60.9896C56.2981 60.3477 56.537 59.7198 56.9401 59.1058ZM59.7776 55.1782C60.3535 54.4403 60.98 53.9399 61.6572 53.6769C62.3439 53.4213 63.0197 53.3551 63.6846 53.4784C64.3496 53.6016 64.9469 53.87 65.4767 54.2835C66.0253 54.7117 66.4044 55.2207 66.6138 55.8105C66.8402 56.3981 66.8843 57.0339 66.7463 57.7178C66.6083 58.4016 66.2624 59.0983 65.7086 59.8078C65.1622 60.5078 64.5704 61.0124 63.9331 61.3218C63.3032 61.6217 62.6721 61.738 62.0396 61.6706C61.4241 61.6011 60.842 61.3522 60.2933 60.924C59.7636 60.5105 59.3582 59.9962 59.0772 59.3811C58.8036 58.7565 58.7074 58.0801 58.7887 57.3519C58.8794 56.6311 59.209 55.9066 59.7776 55.1782ZM62.0336 56.9392C61.7752 57.2703 61.6209 57.6142 61.5709 57.9709C61.5282 58.3181 61.5771 58.6455 61.7176 58.9531C61.8581 59.2606 62.0702 59.5252 62.354 59.7467C62.5999 59.9387 62.8807 60.0665 63.1963 60.1302C63.5288 60.1918 63.863 60.1635 64.199 60.0451C64.5349 59.9268 64.8395 59.6926 65.1127 59.3426C65.3194 59.0777 65.453 58.809 65.5135 58.5366C65.5834 58.2715 65.5944 58.0136 65.5464 57.7631C65.5079 57.5199 65.4246 57.295 65.2966 57.0885C65.1685 56.882 65.0146 56.7086 64.8349 56.5683C64.5511 56.3468 64.243 56.2052 63.9105 56.1436C63.578 56.082 63.2486 56.1141 62.9221 56.2398C62.5956 56.3655 62.2994 56.5987 62.0336 56.9392ZM73.4162 60.7091L68.3214 67.2361L66.2072 65.5858L71.302 59.0588L73.4162 60.7091ZM73.5755 64.3956C73.5506 64.1935 73.4978 64.0077 73.417 63.8381C73.3458 63.6759 73.2155 63.5209 73.0263 63.3733C72.8182 63.2108 72.5895 63.1236 72.34 63.1116C72.0906 63.0996 71.8384 63.1691 71.5835 63.3202C71.3285 63.4713 71.0792 63.703 70.8356 64.0151L70.9117 62.8644C71.3178 62.3441 71.779 61.9582 72.2951 61.7065C72.8207 61.4621 73.3414 61.3509 73.857 61.3729C74.3727 61.3948 74.8103 61.5461 75.1697 61.8267C75.4062 62.0113 75.5963 62.2358 75.7401 62.5002C75.8838 62.7646 75.946 63.0263 75.9266 63.2851L73.5755 64.3956ZM75.2959 69.3919C75.163 69.5622 75.0911 69.7421 75.0802 69.9315C75.0768 70.1115 75.1201 70.2899 75.2103 70.4669C75.3079 70.6344 75.4418 70.7846 75.6121 70.9175C75.8581 71.1095 76.1257 71.2347 76.415 71.2931C76.7044 71.3515 76.9965 71.3283 77.2913 71.2235C77.5862 71.1188 77.8518 70.9151 78.0881 70.6124L77.6506 71.6409C77.3257 72.0572 76.9353 72.3233 76.4793 72.4393C76.0308 72.5459 75.5677 72.5346 75.0901 72.4053C74.6199 72.2667 74.1767 72.0349 73.7605 71.71C73.3443 71.3851 73.0155 71.0067 72.7742 70.5748C72.5497 70.1408 72.4505 69.6828 72.4766 69.2008C72.5122 68.7262 72.7035 68.2666 73.0505 67.822C73.5378 67.1977 74.1441 66.8793 74.8692 66.8669C75.6018 66.845 76.3748 67.1515 77.1884 67.7865C77.5857 68.0966 77.9108 68.4114 78.1639 68.7307C78.4265 69.0574 78.627 69.3661 78.7654 69.6569C78.9038 69.9476 78.9818 70.1987 78.9993 70.4103L78.2573 71.361C78.1631 71.0135 77.998 70.6791 77.7617 70.3577C77.5423 70.0342 77.2671 69.7432 76.936 69.4848C76.6806 69.2854 76.455 69.155 76.2594 69.0937C76.0637 69.0323 75.8838 69.0288 75.7195 69.0833C75.5626 69.1282 75.4214 69.2311 75.2959 69.3919ZM76.2834 66.1668L76.6784 64.1688C77.1876 64.2771 77.7651 64.4538 78.4109 64.6991C79.0567 64.9444 79.687 65.307 80.3019 65.787C80.8789 66.2374 81.328 66.7249 81.6491 67.2496C81.9777 67.7648 82.1525 68.2819 82.1737 68.8008C82.1949 69.3197 82.0283 69.8062 81.6739 70.2602L78.0854 74.8575L76.028 73.2516L79.2399 69.1367C79.3654 68.9759 79.4441 68.8166 79.476 68.6588C79.5247 68.4989 79.5302 68.3358 79.4926 68.1694C79.455 68.003 79.3706 67.8382 79.2393 67.6748C79.1175 67.5189 78.9572 67.3633 78.7586 67.2083C78.4653 66.9794 78.151 66.7873 77.8155 66.632C77.4895 66.4841 77.1855 66.3762 76.9036 66.3084C76.629 66.2311 76.4223 66.1839 76.2834 66.1668ZM92.9289 79.6848L89.6505 83.8848L87.4937 82.2013L90.5949 78.2283C90.905 77.831 91.0714 77.4814 91.094 77.1794C91.1335 76.8753 91.0066 76.6088 90.7133 76.3799C90.5242 76.2322 90.317 76.1466 90.0918 76.123C89.8834 76.0974 89.6665 76.1412 89.4411 76.2545C89.2252 76.3752 89.0138 76.5679 88.8071 76.8328L85.7059 80.8058L83.5492 79.1223L86.6503 75.1493C86.9604 74.752 87.1268 74.4024 87.1494 74.1004C87.1889 73.7963 87.062 73.5298 86.7688 73.3009C86.5796 73.1532 86.3724 73.0676 86.1472 73.044C85.9388 73.0184 85.722 73.0622 85.4965 73.1755C85.2806 73.2962 85.0692 73.4889 84.8625 73.7538L81.7613 77.7268L79.6897 76.1098L84.7844 69.5827L86.8561 71.1998L86.1029 72.1646C86.5559 71.9549 87.0159 71.8726 87.4831 71.9176C87.9598 71.97 88.4205 72.1697 88.8651 72.5167C89.3759 72.9154 89.7088 73.3275 89.8638 73.753C90.0262 74.169 90.0371 74.6037 89.8963 75.0571C90.3986 74.9011 90.8986 74.8652 91.3962 74.9492C91.8939 75.0332 92.3651 75.2487 92.8096 75.5957C93.3205 75.9944 93.645 76.4076 93.7831 76.8351C93.9382 77.2606 93.9379 77.7095 93.7824 78.1818C93.6269 78.654 93.3423 79.1551 92.9289 79.6848Z" fill="black"/>
</svg>
