<svg width="73" height="71" viewBox="0 0 73 71" fill="none" xmlns="http://www.w3.org/2000/svg">
<path d="M37.4062 11.8898C37.405 11.9531 37.381 12.0147 37.3342 12.0746L37.8584 12.4838L37.8467 12.4988C37.8078 12.5487 37.7627 12.5858 37.7116 12.6102L37.6082 12.65L37.054 12.2174L36.6704 12.4001L36.7903 12.4936L36.5985 12.5849L36.8381 12.772L36.7347 12.8118L36.2554 12.4377L35.9752 12.5805L36.0651 12.6506L35.9617 12.6904L35.782 12.5501L35.5902 12.6415L36.5937 13.4248L36.2101 13.6074L35.3264 12.9176L35.238 12.9691L35.0433 12.8171L34.7481 12.9483L35.1675 13.2756L34.7839 13.4583L35.0984 13.7038L34.995 13.7436L34.8902 13.6618L34.7868 13.7016L34.6969 13.6314L34.3133 13.814L34.3283 13.8257L34.1365 13.9171L34.3612 14.0924L34.2578 14.1322L34.108 14.0153L34.0046 14.0551L34.3341 14.3123L34.1423 14.4037L34.6965 14.8362L34.5047 14.9275L33.1268 13.852L32.935 13.9433L33.8785 14.6798L33.5833 14.811L33.3886 14.659L33.1084 14.8018L32.734 14.5095L32.6456 14.561L32.7355 14.6312L32.5437 14.7225L32.4538 14.6523L32.3654 14.7038L32.6799 14.9493L32.4881 15.0407L32.6379 15.1576L32.3577 15.3004L32.0731 15.0783L31.9847 15.1298L31.9098 15.0713L31.5262 15.2539L31.4813 15.2189L31.3779 15.2587L31.7523 15.551L31.5605 15.6423L31.8002 15.8293L31.52 15.9722L30.6213 15.2707L30.4295 15.362L30.9388 15.7595L30.6436 15.8906L30.4339 15.727L30.3305 15.7668L30.0353 15.8979L30.3349 16.1317L30.2315 16.1715L30.7856 16.6041L30.6972 16.6556L30.5054 16.7469L29.2923 15.7999L29.1005 15.8913L30.6281 17.0838L30.2445 17.2664L29.4208 16.6234L29.229 16.7147L29.1121 16.8645L28.6927 16.5371L28.5758 16.6869L28.6507 16.7453L28.4169 17.0449L28.8063 17.3489L28.5725 17.6484L26.8651 16.3156L26.6312 16.6152L28.3836 17.983L28.2082 18.2077L27.6091 17.74L27.4338 17.9647L27.5985 18.0933L27.54 18.1682L27.7497 18.3319L27.5159 18.6314L27.6357 18.7249L27.5773 18.7998L27.1879 18.4958L27.0709 18.6456L27.3555 18.8677L27.1217 19.1673L26.0433 18.3255L25.8095 18.6251L25.5699 18.438L25.453 18.5878L26.5014 19.4062C26.4 19.536 26.2622 19.5891 26.0878 19.5654L25.9081 19.4251C25.827 19.4261 25.7415 19.3915 25.6516 19.3214L22.7161 17.0299C22.6262 16.9597 22.5719 16.8852 22.5532 16.8063L22.7179 16.9349C22.6727 16.7871 22.6907 16.6405 22.772 16.4951L21.7087 15.665L21.8256 15.5152L22.0652 15.7023L22.299 15.4027L23.3774 16.2445L23.6112 15.945L23.3266 15.7228L23.4436 15.5731L23.833 15.877L23.8914 15.8021L23.7716 15.7086L24.0054 15.4091L23.7957 15.2454L23.8542 15.1705L23.6894 15.0419L23.8648 14.8172L24.4639 15.2849L24.6393 15.0602L22.8869 13.6924L23.1208 13.3928L24.8282 14.7256L25.062 14.4261L24.6726 14.1221L24.9064 13.8226L24.8315 13.7641L24.9484 13.6143L25.3678 13.9417L25.4847 13.7919L25.5267 13.5837L26.3505 14.2267L26.4345 13.8102L24.9068 12.6177L24.9489 12.4095L26.147 13.3448L26.1891 13.1366L26.2176 13.0383L25.6634 12.6057L25.6769 12.4958L25.3774 12.262L25.4479 11.9555L25.4629 11.9671L25.4764 11.8572L25.6861 12.0209L25.7566 11.7144L25.2474 11.3169L25.2894 11.1086L26.1881 11.8101L26.2436 11.4919L26.004 11.3049L26.046 11.0966L25.6716 10.8044L25.6851 10.6944L25.745 10.7412L25.8291 10.3247L25.889 10.3715L25.9175 10.2732L26.1871 10.4836L26.2426 10.1655L26.0928 10.0485L26.1349 9.84032L25.8203 9.5948L25.8339 9.48484L25.9237 9.55499L25.9658 9.34676L25.8759 9.27661L25.8894 9.16666L26.2638 9.45893L26.3194 9.14075L26.5141 9.29273L26.5696 8.97454L25.6261 8.238L25.6681 8.02977L27.046 9.10536L27.088 8.89713L25.7101 7.82155L25.7522 7.61332L26.0517 7.84714L26.0802 7.74887L26.7692 8.28666L26.7977 8.1884L26.8725 8.24685L26.9146 8.03862L26.3904 7.62943L26.4744 7.21298L26.5493 7.27143L26.5628 7.16147L26.443 7.06795L26.4565 6.95799L26.4416 6.94629L26.5256 6.52984L26.1811 6.26094L26.2367 5.94276L26.4164 6.08305L26.4449 5.98478L25.1569 4.97934L25.2409 4.56289L25.5854 4.83178L25.6274 4.62355L26.541 5.33671L26.5695 5.23845L26.944 5.53072L26.9995 5.21254L26.3854 4.7332L26.4139 4.63493L27.2377 5.27795L27.2797 5.06972L26.3961 4.37994L26.4651 3.95179L26.9594 4.3376L26.9729 4.22764C26.9841 4.17211 27.0092 4.11939 27.0482 4.06946L27.0599 4.05449L27.4642 4.37015C27.4876 4.34019 27.5121 4.31913 27.5377 4.30695C27.571 4.28479 27.6005 4.26762 27.6261 4.25545L27.8957 4.46589C28.0413 4.40282 28.179 4.42195 28.3089 4.52327L31.1246 6.72121C31.2344 6.80694 31.3126 6.89207 31.3591 6.97658C31.4156 7.06889 31.4493 7.15949 31.4603 7.24838L31.1907 7.03794C31.205 7.08129 31.2105 7.12574 31.2071 7.17128C31.2137 7.22462 31.2142 7.26517 31.2086 7.29293L30.8042 6.97727C30.793 7.0328 30.7874 7.06056 30.7874 7.06056L30.7336 7.28377L30.2544 6.90965L30.1703 7.32611L31.069 8.02758L31.0269 8.2358L30.1882 7.5811L30.1747 7.69106L30.7887 8.1704L30.7182 8.47689L30.3438 8.18461L30.3303 8.29457L29.4167 7.58141L29.3746 7.78964L29.0152 7.50905L28.9311 7.92551L30.2192 8.93095L30.2056 9.04091L30.0109 8.88892L29.9554 9.20711L30.2999 9.47601L30.2158 9.89246L30.2308 9.90415L30.2173 10.0141L30.3371 10.1076L30.3086 10.2059L30.2337 10.1475L30.1496 10.5639L30.5391 10.8679L30.9227 10.6852L31.0125 10.7554L31.1159 10.7156L31.2357 10.8091L31.3241 10.7576L31.0096 10.5121L31.3932 10.3295L30.9738 10.0021L31.254 9.85929L31.4637 10.023L31.5521 9.97146L32.4358 10.6612L32.8194 10.4786L31.8009 9.68361L31.9927 9.59229L32.1874 9.74428L32.2759 9.69277L32.186 9.62262L32.4662 9.4798L32.9455 9.85392L33.0489 9.81411L32.8092 9.62705L33.001 9.53573L32.8812 9.4422L33.2648 9.25957L33.819 9.69214L34.0374 9.59754C34.0374 9.59754 34.063 9.58537 34.1141 9.56101L33.5899 9.15182C33.6255 9.14744 33.6649 9.13807 33.7083 9.1237C33.7516 9.10934 33.7961 9.10386 33.8416 9.10727L34.6055 9.70352C34.6944 9.69257 34.7904 9.70329 34.8937 9.73569C34.997 9.76809 35.0985 9.82326 35.1984 9.9012L38.0141 12.0991C38.1439 12.2005 38.1959 12.3294 38.1701 12.486L37.4062 11.8898ZM30.383 11.4692L30.5748 11.3779L30.2453 11.1207L30.3337 11.0692L29.8395 10.6833L29.826 10.7933L29.5114 10.5478L29.4694 10.756L30.383 11.4692ZM40.5124 29.62L40.3834 30.0014L40.1288 29.8026L40.1003 29.9009C40.0925 29.9109 40.0808 29.9259 40.0652 29.9458C40.0674 29.9636 40.0646 29.9775 40.0568 29.9875L39.9669 29.9173L39.9436 29.9473C39.85 30.0671 39.735 30.1219 39.5983 30.1117L39.6133 30.1233C39.5322 30.1243 39.4517 30.0936 39.3718 30.0313L36.601 27.8684C36.5312 27.8138 36.4751 27.7621 36.433 27.7131C36.4087 27.662 36.3754 27.6119 36.3333 27.563C36.2846 27.4607 36.2598 27.369 36.2588 27.2879C36.2656 27.1968 36.2785 27.1185 36.2975 27.053L36.3724 27.1115L36.3841 27.0965L36.4009 27.0132L36.4294 26.9149L36.684 27.1137L36.813 26.7323L36.5284 26.5102L36.6004 26.3253L37.2145 26.8046L37.3435 26.4233L37.1637 26.283L37.2006 26.1431L33.9805 23.6295L33.8688 23.7109L33.689 23.5706L33.3504 23.7883L33.1856 23.6597L33.0088 23.7627L32.9189 23.6926L32.5803 23.9103L32.5952 23.922L32.5068 23.9735L32.4451 24.0217L32.4184 24.025L32.3435 23.9665C32.2846 24.0009 32.2118 24.0324 32.1251 24.0611C32.0462 24.0799 31.9512 24.0781 31.8401 24.0556L32.2894 24.4064C32.2417 24.3852 32.1851 24.3651 32.1196 24.3461C32.0619 24.3171 31.998 24.2753 31.9282 24.2208L29.1574 22.0579C29.0775 21.9956 29.0332 21.9288 29.0244 21.8577L28.5751 21.507C28.5298 21.3591 28.55 21.2303 28.6358 21.1205L28.6591 21.0905L28.749 21.1607C28.7724 21.1307 28.7969 21.1096 28.8224 21.0975L28.8959 21.0343L28.8809 21.0226L29.2196 20.8049L29.3094 20.875L29.4862 20.772L29.651 20.9006L29.9897 20.6829L30.1544 20.8115L30.4931 20.5938L29.909 20.1379L30.0858 20.0348L30.0408 19.9998L30.2911 19.8336L30.4409 19.9505L30.5293 19.899L30.1998 19.6418L30.5384 19.4241L31.0477 19.8216L31.2095 19.7069L30.7452 19.3444L30.8336 19.2929L30.9085 19.3514L31.2472 19.1337L31.2022 19.0986L31.4525 18.9324L31.5124 18.9792L31.8511 18.7615L32.0458 18.9135L32.296 18.7472L32.3844 18.6957L33.1333 19.2803L33.2217 19.2288L33.1768 19.1937L33.427 19.0275L32.5883 18.3728L32.927 18.1551L33.1966 18.3656L33.285 18.314L33.1202 18.1854L33.2086 18.1339L33.6879 18.5081L34.0266 18.2904L33.4425 17.8344L33.6193 17.7314L33.8439 17.9068L34.1826 17.689L34.0478 17.5838L34.2981 17.4176L34.4628 17.5462L34.8015 17.3285L34.7565 17.2934L34.8449 17.2419L34.5005 16.973L34.6773 16.87L35.0068 17.1272L35.257 16.961L35.1073 16.8441L35.1807 16.7809L35.4503 16.9914L35.789 16.7737L35.4595 16.5165L35.7097 16.3503L35.545 16.2217L35.7068 16.107L34.6734 15.3003L34.8352 15.1856L34.6405 15.0336L34.9792 14.8159L34.7845 14.6639L35.0497 14.5094L35.6338 14.9653L35.9725 14.7476L37.4702 15.9167L37.7205 15.7505L37.0015 15.1894L37.1784 15.0864L37.7325 15.5189L38.0712 15.3012L37.5769 14.9154L37.8272 14.7492L38.1417 14.9947L38.4804 14.777L38.4354 14.742L38.7741 14.5242L38.3547 14.1969L38.4282 14.1337L39.866 15.2561L40.2047 15.0383L40.1597 15.0033L40.2481 14.9518L39.7239 14.5426L39.9358 14.3946L40.0626 14.3249L40.2124 14.4418L40.4191 14.3622L40.3742 14.3271C40.4787 14.2962 40.5915 14.2958 40.7125 14.326C40.8413 14.3462 40.9706 14.407 41.1005 14.5083L44.3505 17.0453C44.4803 17.1466 44.5707 17.2573 44.6216 17.3774C44.6802 17.4875 44.7073 17.597 44.7026 17.7058L44.7625 17.7526L44.7355 17.9725L44.5857 17.8556C44.5745 17.9111 44.5572 17.9539 44.5338 17.9838L44.4567 18.237L44.9809 18.6462L44.9375 18.7327L44.9824 18.7678L44.8534 19.1492L43.4306 18.0385L43.4021 18.1368L43.8214 18.4642L43.6925 18.8455L43.7374 18.8806L43.6084 19.262L43.2939 19.0165L43.1934 19.2996L43.6876 19.6854L43.5587 20.0668L43.0045 19.6342L42.9475 19.8308L43.6664 20.3919L43.5659 20.675L42.0682 19.5059L41.9392 19.8873L41.3551 19.4314L41.2546 19.7145L41.4344 19.8548L41.3054 20.2361L40.7213 19.7802L40.6643 19.9767L43.0456 21.8356L42.9737 22.0205L42.8538 21.9269L42.7534 22.2101L42.4538 21.9762L42.3248 22.3576L41.9654 22.077L41.9219 22.1636L42.4611 22.5845L42.3606 22.8676L42.3756 22.8793L42.3186 23.0758L41.8243 22.69L41.7958 22.7883L42.2751 23.1624L42.1461 23.5438L42.3109 23.6724L42.2104 23.9555L42.1655 23.9204L42.0365 24.3018L42.2761 24.4889L42.2191 24.6854L41.7848 24.3464L41.6558 24.7277L41.9553 24.9616L41.9118 25.0481L41.837 24.9897L41.8085 25.088L41.5389 24.8775L41.3949 25.2472L42.2486 25.9136L42.1481 26.1967L42.1931 26.2318L42.1646 26.3301L41.4007 25.7338L41.3722 25.8321L41.3872 25.8438L41.2867 26.1269L41.092 25.9749L40.963 26.3563L40.8881 26.2978L40.8026 26.5926L40.8476 26.6277L40.7186 27.0091L40.6437 26.9506L40.6152 27.0489L41.0795 27.4113L41.0225 27.6079L40.4983 27.1987L40.3693 27.5801L40.6988 27.8373L40.6703 27.9355L40.5205 27.8186L40.435 28.1134L40.465 28.1368L40.408 28.3333L40.9921 28.7893L40.8631 29.1707L41.0428 29.311L40.9139 29.6924L40.2998 29.213L40.2278 29.3979L40.5124 29.62ZM38.8699 18.8171L39.0496 18.9574L38.7994 19.1236L39.4134 19.6029L39.5139 19.3198L39.6337 19.4133L39.7057 19.2285L39.0317 18.7024L38.8699 18.8171ZM38.955 19.7271L39.0788 19.414L38.8052 19.6102L38.955 19.7271ZM36.6534 20.8229L36.565 20.8744L36.7297 21.003L36.6797 21.0363L38.3721 22.3573L38.3922 22.3007L38.4671 22.3592L38.5106 22.2726L38.211 22.0388L38.355 21.6691L38.7893 22.0081L38.8613 21.8233L38.6067 21.6245L38.7506 21.2548L38.7956 21.2899L38.911 21.0185L38.7463 20.8899L38.8902 20.5202L38.411 20.1461L38.4395 20.0478L38.9337 20.4336L39.0057 20.2488L38.9907 20.2371L39.0912 19.954L38.6119 19.5799L38.3767 19.7578L38.0472 19.5005L37.8853 19.6152L38.2148 19.8725L38.1414 19.9356L38.1863 19.9707L37.8626 20.2001L37.6979 20.0715L37.4476 20.2377L37.5824 20.3429L37.2587 20.5723L37.0341 20.397L36.8722 20.5117L37.4563 20.9676L37.1327 21.197L36.6534 20.8229ZM51.474 38.1765L51.4199 38.6164L50.7609 38.102L50.7641 38.1286C50.7663 38.1464 50.7557 38.1703 50.7324 38.2002C50.719 38.238 50.7095 38.2707 50.7039 38.2985L50.6589 38.2634L50.6355 38.2934C50.6044 38.3333 50.5721 38.3644 50.5387 38.3865C50.5054 38.4087 50.467 38.427 50.4236 38.4413L50.6184 38.5933C50.575 38.6077 50.5306 38.6132 50.485 38.6097L49.6163 37.9317C49.5352 37.9326 49.4547 37.9019 49.3749 37.8396L45.9601 35.174C45.9001 35.1272 45.8491 35.0794 45.807 35.0304C45.7727 34.9715 45.7394 34.9214 45.7073 34.8803L46.576 35.5584C46.5538 35.525 46.5283 35.465 46.4996 35.3782L46.3049 35.2263C46.2862 35.1474 46.2774 35.0762 46.2786 35.0129C46.2898 34.9574 46.2932 34.9118 46.2889 34.8763L46.2856 34.8496L46.3305 34.8847L46.3725 34.6765L47.0166 35.1792L47.0856 34.751L48.4336 35.8032L48.4471 35.6933L47.2789 34.7814L47.2873 34.7397L47.2639 34.7697L44.9275 32.9459L44.869 33.0207L46.4266 34.2366L46.1928 34.5362L45.2343 33.7879L45.1174 33.9377L43.6646 32.8037C43.6334 32.8436 43.5922 32.8758 43.5411 32.9001C43.4899 32.9245 43.4427 32.9438 43.3993 32.9582L43.2645 32.853C43.1934 32.8617 43.144 32.8633 43.1162 32.8577L42.1427 32.0978C42.0616 32.0987 41.9761 32.0642 41.8863 31.994L39.0256 29.761C38.9357 29.6909 38.8814 29.6163 38.8627 29.5374L39.8212 30.2856C39.8091 30.2601 39.7986 30.2117 39.7898 30.1406L39.9246 30.2458C39.928 30.2003 39.9353 30.1498 39.9465 30.0942C39.9578 30.0387 39.9789 29.991 40.0101 29.951L41.4479 31.0734L41.5648 30.9236L42.5234 31.6718L42.7572 31.3723L41.1996 30.1564L41.258 30.0815L43.5945 31.9054L43.7698 31.6807L40.9092 29.4477L41.0846 29.223L41.3542 29.4335L41.588 29.1339L41.8276 29.321L41.9445 29.1712L41.8996 29.1361L42.1334 28.8366L42.1035 28.8132L42.3373 28.5137L42.2175 28.4201L42.3928 28.1955L42.4827 28.2656L42.5996 28.1158L42.7644 28.2445L42.9982 27.9449L43.5374 28.3658L43.7127 28.1411L41.8106 26.6564L41.9275 26.5066L41.7927 26.4014L41.8512 26.3265L43.5586 27.6593L43.6755 27.5095L43.8253 27.6264L43.8837 27.5515L41.9367 26.0317L42.1121 25.807L42.3667 26.0058L42.4836 25.856L42.5735 25.9261L42.8073 25.6266L44.275 26.7723L44.392 26.6226L44.7963 26.9382L44.9717 26.7136L43.0846 25.2405L43.3184 24.9409L43.8276 25.3384L44.003 25.1138L44.662 25.6282L44.7204 25.5533L45.7239 26.3366L45.8408 26.1868L46.365 26.596L46.5404 26.3714L46.6452 26.4532L46.7037 26.3783L46.3892 26.1328L46.5645 25.9081L45.5611 25.1248L45.6195 25.0499L44.9156 24.5005L45.1494 24.2009L47.9502 26.3872L48.0671 26.2374L44.6223 23.5484L44.7392 23.3987L47.3303 25.4212L47.5056 25.1966L45.0044 23.2441L45.1214 23.0944L46.0949 23.8543L46.2118 23.7045L47.1404 24.4294L47.3742 24.1298L47.0747 23.896L47.25 23.6713L47.3399 23.7415L47.5153 23.5168L47.0809 23.1778L47.1394 23.1029L46.8249 22.8574L47.0002 22.6327L46.9104 22.5626L46.9688 22.4877L47.1635 22.6397L47.2804 22.4899L47.4751 22.6419L47.709 22.3424L46.0615 21.0563L46.1199 20.9814L46.2098 21.0516L46.2682 20.9767L46.8823 21.456L46.9408 21.3812L46.7311 21.2175L46.7895 21.1426L47.9428 22.0428L48.0012 21.9679L47.7167 21.7458L47.7751 21.6709L47.7601 21.6592L47.994 21.3597L48.0689 21.4181L48.1858 21.2684L49.2192 22.075L49.3361 21.9253L49.4709 22.0305L49.5878 21.8807L49.6477 21.9275L49.7062 21.8526L48.1036 20.6016C48.1993 20.4996 48.3272 20.4387 48.4872 20.419L48.652 20.5476C48.7586 20.5345 48.8669 20.5708 48.9767 20.6565L51.8374 22.8895C51.9372 22.9674 51.9987 23.0637 52.0218 23.1781L51.8571 23.0495C51.8946 23.2073 51.8666 23.3462 51.773 23.466L53.3756 24.7169L53.3171 24.7918L53.2572 24.745L53.1403 24.8948L53.0055 24.7896L52.8886 24.9394L51.8552 24.1327L51.7383 24.2825L51.6634 24.224L51.4296 24.5235L51.4445 24.5352L51.3861 24.6101L51.6706 24.8323L51.6122 24.9071L50.4589 24.0069L50.4005 24.0818L50.6102 24.2455L50.5517 24.3204L49.9377 23.841L49.8792 23.9159L49.7893 23.8458L49.7309 23.9207L51.1387 25.0196L51.2421 24.9798L51.7214 25.3539L51.8098 25.3024L52.6785 25.9805L52.7819 25.9407L51.9132 25.2626L52.0166 25.2228L52.2712 25.4215L52.3746 25.3817L52.4495 25.4402L52.5529 25.4004L52.6876 25.5056L52.7761 25.4541L52.9408 25.5827L53.236 25.4516L53.1611 25.3931L53.3679 25.3135L54.2216 25.9799L54.4134 25.8886L53.7244 25.3508L53.9162 25.2595L54.6651 25.844L54.7535 25.7925L53.735 24.9975L53.8118 24.961C53.9396 24.9001 54.0769 24.8787 54.2235 24.8967L54.1037 24.8032C54.2403 24.8134 54.3835 24.877 54.5333 24.9939L57.8432 27.5777C57.9331 27.6478 57.9846 27.7362 57.9977 27.8429L58.1325 27.9481C58.1479 28.0726 58.1205 28.1797 58.0503 28.2696C58.0269 28.2995 58.0064 28.3156 57.9886 28.3178L59.022 29.1245C59.0142 29.1345 59.0014 29.1406 58.9836 29.1428C58.9759 29.1527 58.9642 29.1677 58.9486 29.1877L58.2147 28.6148L58.1614 28.6214L58.0079 28.6944L58.6969 29.2322L58.4901 29.3119L57.6364 28.6455L57.4296 28.7251L57.5045 28.7835L57.1943 28.903L57.0446 28.7861L56.9412 28.8259L56.8064 28.7207L56.703 28.7605L56.6281 28.702L56.5247 28.7418L56.2551 28.5314L56.1517 28.5712L57.0354 29.261L56.932 29.3008L56.0633 28.6227L55.9599 28.6625L55.4807 28.2884L55.3773 28.3282L55.4672 28.3984L55.0686 28.5693L55.6677 29.037L55.4609 29.1166L55.5957 29.2218L55.4923 29.2616L55.5073 29.2733L55.1971 29.3927L55.4068 29.5564L55.3034 29.5962L55.3184 29.6079L55.0082 29.7274L54.7087 29.4935L54.3985 29.613L54.713 29.8585L54.2995 30.0177L54.1347 29.8891L53.928 29.9688L52.9544 29.2088L52.7477 29.2885L55.2489 31.2409L54.9387 31.3603L52.3476 29.3378L52.1409 29.4174L55.5856 32.1063L55.3789 32.186L52.5781 29.9997L52.1646 30.159L52.8685 30.7085L52.7651 30.7483L53.7686 31.5316L53.4584 31.651L53.7729 31.8965L53.6696 31.9363L53.5647 31.8545L53.2546 31.9739L52.7304 31.5648L52.6536 31.6013L52.6434 31.7379L51.6399 30.9546L51.6264 31.0646L50.9674 30.5501L50.9268 30.88L50.4026 30.4708L50.3485 30.9107L52.2357 32.3838L52.1951 32.7136L51.7907 32.398L51.7637 32.6179L50.2959 31.4722L50.2418 31.912L50.1519 31.8419L50.1249 32.0618L49.8703 31.863L49.8297 32.1929L51.7767 33.7128L51.7632 33.8227L51.5985 33.6941L51.5714 33.914L51.152 33.5867L51.1385 33.6966L50.9888 33.5797L50.9617 33.7996L49.8534 32.9345L49.8128 33.2644L51.1009 34.2698L51.0468 34.7097L51.0168 34.6863L50.9898 34.9062L51.1096 34.9997L51.069 35.3296L51.3386 35.54L51.2845 35.9799L51.0149 35.7694L50.9608 36.2093L50.9758 36.221L50.9338 36.4292L50.9637 36.4526L50.9096 36.8924L50.9995 36.9626L50.9589 37.2924L51.7078 37.877L51.6672 38.2069L52.8354 39.1188L52.8219 39.2287L51.474 38.1765ZM50.4943 25.7217L50.8088 25.9672L50.7503 26.0421L51.0948 26.311L51.1982 26.2712L50.9885 26.1075L51.2837 25.9764L51.2687 25.9647L51.3721 25.9249L51.2373 25.8197L51.4291 25.7284L50.9498 25.3542L50.8329 25.504L50.6382 25.352L50.5798 25.4269L50.6696 25.4971L50.4943 25.7217ZM49.9561 26.6273L49.8812 26.5689L49.776 26.7036L49.9561 26.6273ZM47.228 30.5236L47.2729 30.5587L47.3099 30.4188L47.228 30.5236ZM45.4622 29.2657L45.597 29.3709L45.48 29.5207L46.6632 30.4443L46.6903 30.2244L46.8401 30.3413L46.8536 30.2313L45.5206 29.1908L45.4622 29.2657ZM44.5786 32.312L46.5856 33.8786L46.6411 33.5604L46.5363 33.4786L46.6053 33.0505L46.5754 33.0271L46.6174 32.8188L46.6024 32.8072L46.6715 32.379L46.9411 32.5894L47.0102 32.1613L46.7406 31.9509L46.7812 31.621L46.6613 31.5275L46.7034 31.3192L46.7333 31.3426L46.7874 30.9028L46.6676 30.8092L46.4338 31.1088L46.269 30.9802L46.1521 31.13L46.0623 31.0598L45.8869 31.2845L46.0067 31.378L45.7729 31.6775L45.8028 31.7009L45.569 32.0005L45.6139 32.0355L45.497 32.1853L45.2574 31.9983L45.0236 32.2978L44.754 32.0874L44.5786 32.312ZM64.7477 40.5839L65.4965 41.1684L65.2627 41.468L65.1279 41.3627L64.8941 41.6623L64.7593 41.5571L64.5839 41.7817L64.2694 41.5362L64.2109 41.6111L64.3308 41.7046L64.2723 41.7795L63.8529 41.4522L63.736 41.6019L64.4549 42.1631L64.2796 42.3878L63.8452 42.0487L63.7868 42.1236L63.8018 42.1353C63.7628 42.1852 63.7188 42.2312 63.6699 42.2734C63.6309 42.3233 63.5919 42.3732 63.553 42.4232L63.538 42.4115C63.5046 42.4336 63.4645 42.4747 63.4178 42.5346L63.2892 42.6993L63.2143 42.6409C63.1887 42.653 63.1642 42.6741 63.1409 42.7041C63.1175 42.734 63.098 42.759 63.0824 42.7789L63.2322 42.8959L62.9534 43.1603L62.8186 43.0551C62.7697 43.0972 62.7207 43.1394 62.6718 43.1815C62.6328 43.2314 62.5838 43.2735 62.5249 43.3079L62.6896 43.4365C62.6819 43.4465 62.6691 43.4526 62.6513 43.4547C62.6435 43.4647 62.6318 43.4797 62.6162 43.4997L62.8409 43.675C62.8331 43.685 62.8203 43.6911 62.8025 43.6933C62.7947 43.7033 62.783 43.7183 62.7674 43.7382L62.4978 43.5278C62.4567 43.5599 62.4155 43.5921 62.3744 43.6242C62.341 43.6464 62.3037 43.6735 62.2626 43.7057L62.2176 43.6706L61.9524 43.8251L61.7877 43.6965C61.7465 43.7287 61.7003 43.7569 61.6492 43.7813C61.6059 43.7956 61.5586 43.815 61.5075 43.8394L61.6423 43.9446C61.5833 43.9789 61.5194 44.0093 61.4505 44.0359L61.3606 43.9657C61.3194 43.9979 61.2683 44.0222 61.2072 44.0388C61.1638 44.0532 61.1166 44.0725 61.0654 44.0969L61.5297 44.4593L61.3079 44.5272L60.7538 44.0947L60.4137 44.1907L60.5784 44.3193L60.1934 44.3803L60.3581 44.5089C60.3403 44.5111 60.3176 44.5094 60.2898 44.5038C60.272 44.506 60.2504 44.5132 60.2248 44.5253L60.4045 44.6656C60.359 44.6622 60.3095 44.6638 60.2562 44.6704C60.2128 44.6847 60.1684 44.6902 60.1228 44.6868L59.8383 44.4647C59.7927 44.4612 59.7433 44.4628 59.69 44.4694C59.6366 44.476 59.5822 44.4737 59.5267 44.4624L59.6315 44.5443C59.586 44.5409 59.5315 44.5386 59.4682 44.5373C59.4149 44.5439 59.3604 44.5416 59.3049 44.5304L59.275 44.507C59.1461 44.4868 59.0173 44.4666 58.8885 44.4463C58.7596 44.4261 58.6258 44.402 58.487 44.374L58.442 44.3389C58.4043 44.3255 58.3665 44.3121 58.3288 44.2987C58.2911 44.2853 58.2494 44.2769 58.2039 44.2735C58.1106 44.2489 58.0173 44.2243 57.924 44.1997C57.8485 44.1729 57.7631 44.1383 57.6676 44.0959L57.6526 44.0842C57.2452 43.9269 56.8273 43.7212 56.3989 43.4671L56.4139 43.4788C56.2385 43.3741 56.0571 43.2566 55.8696 43.1262C55.692 43.0037 55.5184 42.8762 55.3486 42.7437C55.1689 42.6034 54.9981 42.462 54.8361 42.3196C54.6742 42.1771 54.5161 42.0296 54.362 41.8771C54.0137 41.541 53.7077 41.1816 53.444 40.799L53.459 40.8107C53.4047 40.7362 53.3504 40.6616 53.2961 40.5871C53.2496 40.5026 53.2031 40.4181 53.1565 40.3336L53.1416 40.3219C53.1272 40.2785 53.1089 40.2402 53.0868 40.2068C53.0646 40.1734 53.0425 40.1401 53.0203 40.1067L53.0652 40.1418C53.0043 40.0139 52.9485 39.8899 52.8976 39.7699C52.8467 39.6498 52.7958 39.5297 52.7449 39.4097L52.7748 39.433L52.6671 39.1079L52.5772 39.0378C52.5529 38.9866 52.5374 38.9344 52.5308 38.881C52.5243 38.8277 52.5138 38.7794 52.4994 38.736L52.784 38.9581L52.7212 38.6681L52.5415 38.5278C52.5471 38.5 52.5488 38.4772 52.5466 38.4595C52.5444 38.4417 52.5372 38.42 52.525 38.3944L52.3753 38.2775C52.3665 38.2064 52.3538 38.1403 52.3373 38.0792C52.3385 38.0158 52.3397 37.9525 52.341 37.8892L52.1762 37.7606L52.1718 37.3956L52.726 37.8282L52.753 37.6083L52.2738 37.2342C52.285 37.1786 52.2923 37.1281 52.2957 37.0826C52.3069 37.027 52.3181 36.9715 52.3293 36.916L52.4192 36.9861C52.4282 36.9128 52.4422 36.8434 52.4612 36.7779L52.3264 36.6727C52.3376 36.6172 52.3449 36.5666 52.3483 36.5211C52.3695 36.4733 52.3857 36.4217 52.3969 36.3662L52.5767 36.5065L52.6622 36.2117L52.7071 36.2467C52.7283 36.199 52.7456 36.1563 52.759 36.1185C52.7802 36.0708 52.8014 36.0231 52.8226 35.9753L52.9873 36.1039C52.9929 36.0762 53.0074 36.0473 53.0308 36.0173L52.881 35.9004C52.8966 35.8805 52.9033 35.8616 52.9011 35.8438C52.9089 35.8338 52.9167 35.8238 52.9245 35.8139L52.8945 35.7905C52.9235 35.7328 52.9525 35.675 52.9815 35.6173C53.0105 35.5596 53.0395 35.5019 53.0685 35.4442L53.1433 35.5026C53.1723 35.4449 53.2013 35.3872 53.2303 35.3295C53.2693 35.2795 53.3082 35.2296 53.3472 35.1797L53.2574 35.1095L53.3593 34.9481L53.4641 35.0299L53.5927 34.8652C53.6083 34.8452 53.6189 34.8213 53.6245 34.7936C53.6479 34.7636 53.6674 34.7387 53.683 34.7187L53.4883 34.5667C53.5173 34.509 53.5512 34.4552 53.5902 34.4052C53.6292 34.3553 53.6681 34.3054 53.7071 34.2555L53.812 34.3373L53.8704 34.2624L53.8255 34.2273L54.0008 34.0027L54.3004 34.2365L54.4173 34.0867L53.8931 33.6775L53.9516 33.6027L54.2361 33.8248L54.2946 33.7499L54.2796 33.7382L54.455 33.5136L54.3801 33.4551L54.6139 33.1556L54.7038 33.2257L54.9376 32.9262L54.8327 32.8443L55.0081 32.6197L54.454 32.1871L54.6878 31.8875L55.3318 32.3903C55.3574 32.3781 55.3819 32.357 55.4052 32.3271L55.6449 32.5141L55.7033 32.4392L55.5236 32.299L55.6405 32.1492L55.6555 32.1609L55.9193 31.8847L55.8893 31.8613C55.9205 31.8214 55.9478 31.7864 55.9711 31.7565C56.0123 31.7243 56.0535 31.6922 56.0946 31.66L56.0497 31.625C56.0809 31.585 56.1082 31.5501 56.1315 31.5201C56.1727 31.488 56.2139 31.4558 56.255 31.4237L56.2251 31.4003C56.2662 31.3682 56.3035 31.341 56.3369 31.3189C56.378 31.2867 56.4192 31.2546 56.4603 31.2224L56.041 30.8951C56.0566 30.8751 56.0683 30.8601 56.0761 30.8501C56.0938 30.8479 56.1066 30.8419 56.1144 30.8319L56.5637 31.1826L56.7256 31.0679L56.6956 31.0445L56.784 30.993L57.0087 31.1684C57.0343 31.1562 57.0637 31.1391 57.0971 31.1169C57.1305 31.0947 57.1599 31.0776 57.1855 31.0654L57.0357 30.9485C57.1358 30.882 57.2537 30.8133 57.3894 30.7425L57.3444 30.7074C57.4134 30.6808 57.4773 30.6504 57.5362 30.6161C57.613 30.5795 57.6819 30.553 57.743 30.5364L57.7879 30.5715L57.8913 30.5317L57.6517 30.3446L57.7551 30.3048L57.9947 30.4919L58.0981 30.4521L58.0682 30.4287L58.4233 30.3443L58.3184 30.2625L58.6885 30.1898C58.7774 30.1789 58.8663 30.1679 58.9552 30.157C59.0618 30.1438 59.1607 30.1407 59.2518 30.1475L59.102 30.0306L59.2504 30.0258L59.0856 29.8972C59.1212 29.8928 59.1478 29.8896 59.1656 29.8874C59.1934 29.893 59.2211 29.8986 59.2489 29.9042L59.6233 30.1965C59.6789 30.2077 59.7383 30.2139 59.8016 30.2151C59.8649 30.2163 59.9243 30.2225 59.9799 30.2337L60.0248 30.2688C60.1636 30.2968 60.3024 30.3249 60.4413 30.3529C60.5879 30.3709 60.7267 30.3989 60.8577 30.4369L60.9026 30.472C61.1725 30.538 61.4506 30.6346 61.737 30.7617L61.8119 30.8202C62.1638 30.9664 62.5151 31.1442 62.8658 31.3536C63.2165 31.5631 63.5616 31.8003 63.9011 32.0653C64.61 32.6187 65.1767 33.1896 65.6011 33.7781L65.5113 33.7079C65.5977 33.8236 65.6803 33.9443 65.7589 34.07C65.8454 34.1856 65.919 34.3074 65.9799 34.4353L65.92 34.3885C65.9987 34.5142 66.0596 34.6421 66.1027 34.7721C66.1635 34.9 66.2244 35.0279 66.2853 35.1557L66.2254 35.109L66.3331 35.4341L65.9587 35.1418C65.9709 35.1674 65.9781 35.1891 65.9802 35.2068C65.9924 35.2324 66.0007 35.263 66.0051 35.2985L66.1698 35.4271C66.182 35.4527 66.1942 35.4783 66.2064 35.5039C66.2185 35.5294 66.2218 35.5561 66.2162 35.5839L66.366 35.7008C66.3947 35.7875 66.4107 35.8803 66.4138 35.9792C66.4348 36.0758 66.4507 36.1686 66.4617 36.2575L66.4766 36.2692C66.4854 36.3403 66.4892 36.4076 66.4879 36.4709C66.4945 36.5242 66.4972 36.5825 66.496 36.6459L66.6008 36.7277L66.6052 37.0926L66.6351 37.116C66.6417 37.1694 66.6422 37.2099 66.6366 37.2377L66.3969 37.0506L66.3834 37.1606L66.638 37.3593L66.6245 37.4693L66.5796 37.4342C66.5784 37.4975 66.5643 37.5669 66.5376 37.6424C66.5285 37.7158 66.5195 37.7891 66.5105 37.8624L66.5554 37.8974L66.4564 38.3022L66.6062 38.4191L66.5342 38.604L66.3095 38.4286L66.281 38.5269L66.311 38.5502L66.239 38.7351L66.1941 38.7C66.1863 38.71 66.1785 38.72 66.1707 38.73C66.1729 38.7477 66.1662 38.7666 66.1506 38.7866L65.5216 38.2956C65.5104 38.3511 65.4892 38.3988 65.458 38.4388C65.4446 38.4765 65.4273 38.5193 65.4061 38.567L66.1849 39.1749C66.1637 39.2227 66.1375 39.2665 66.1064 39.3064C66.093 39.3442 66.0707 39.383 66.0395 39.423L65.8298 39.2593C65.8086 39.307 65.7825 39.3509 65.7513 39.3908C65.7379 39.4286 65.7156 39.4674 65.6844 39.5073L65.8791 39.6593L65.6752 39.9822L65.4805 39.8303L65.4455 39.8752C65.4377 39.8852 65.426 39.9002 65.4104 39.9201C65.4048 39.9479 65.3942 39.9718 65.3786 39.9917L65.783 40.3074L65.7245 40.3823L65.3651 40.1017C65.3595 40.1294 65.345 40.1583 65.3216 40.1883L65.5912 40.3987C65.5622 40.4564 65.5282 40.5102 65.4893 40.5602C65.4503 40.6101 65.4113 40.66 65.3724 40.7099L64.923 40.3592L64.7477 40.5839ZM61.2338 38.323L61.3686 38.4283L61.6025 38.1287L60.8536 37.5442L61.029 37.3195L61.4783 37.6702C61.5172 37.6203 61.5562 37.5704 61.5952 37.5205C61.6342 37.4705 61.6681 37.4167 61.6971 37.359L61.4275 37.1486C61.4431 37.1286 61.4498 37.1097 61.4476 37.0919C61.4554 37.082 61.4632 37.072 61.471 37.062L61.8305 37.3426L61.8889 37.2677L61.4845 36.952C61.5001 36.9321 61.5068 36.9132 61.5046 36.8954C61.5124 36.8854 61.5202 36.8754 61.528 36.8654L61.5865 36.7906L61.7662 36.9309C61.8052 36.8809 61.8391 36.8271 61.8681 36.7694C61.9149 36.7095 61.9489 36.6557 61.9701 36.6079L61.7754 36.4559C61.7966 36.4082 61.8138 36.3655 61.8272 36.3277C61.8484 36.28 61.8646 36.2284 61.8758 36.1728L62.0855 36.3365C62.1179 36.2332 62.1364 36.1272 62.1411 36.0183L61.3623 35.4104C61.3747 35.2915 61.3533 35.1543 61.298 34.9987L61.927 35.4897C61.8983 35.403 61.8729 35.343 61.8507 35.3096L61.8956 35.3447C61.7926 35.1678 61.6512 35.0093 61.4715 34.869C61.2918 34.7287 61.1037 34.63 60.9071 34.573L60.4728 34.234C60.4251 34.2128 60.3556 34.1988 60.2646 34.192L60.6839 34.5193C60.5651 34.5069 60.4267 34.5194 60.2689 34.5569L60.2989 34.5803C60.1944 34.6112 60.096 34.6549 60.0037 34.7114L60.0486 34.7465C60.0075 34.7787 59.9663 34.8108 59.9251 34.8429C59.8918 34.8651 59.8495 34.8884 59.7984 34.9127L59.8283 34.9361C59.7872 34.9682 59.7382 35.0104 59.6815 35.0625C59.6425 35.1124 59.6035 35.1623 59.5645 35.2123L59.5346 35.1889L59.4177 35.3386L59.5974 35.4789L59.5389 35.5538L59.2993 35.3668L59.2409 35.4417L58.5819 34.9272L58.348 35.2268L58.9022 35.6594L58.7268 35.884L58.8317 35.9659L58.5978 36.2654L58.508 36.1953L58.2742 36.4948L58.349 36.5533L58.1737 36.7779L58.1887 36.7896C58.1653 36.8196 58.1508 36.8484 58.1452 36.8762L57.8456 36.6424L57.7872 36.7172L58.3114 37.1264L58.1945 37.2762L57.8949 37.0424L57.7196 37.267L57.7645 37.3021L57.706 37.377L57.6012 37.2952C57.5622 37.3451 57.5232 37.395 57.4843 37.4449C57.4553 37.5027 57.4213 37.5565 57.3823 37.6064L57.592 37.7701L57.557 37.815C57.5258 37.8549 57.4907 37.8999 57.4517 37.9498C57.4206 37.9897 57.3944 38.0336 57.3732 38.0813L57.2683 37.9995C57.2627 38.0272 57.2482 38.0561 57.2249 38.0861C57.2015 38.116 57.187 38.1449 57.1814 38.1726L57.2712 38.2428C57.2423 38.3005 57.2183 38.3621 57.1993 38.4276C57.1803 38.4931 57.1613 38.5586 57.1423 38.6242L57.0674 38.5657C57.0416 38.7223 57.0435 38.8845 57.0732 39.0523L57.1031 39.0757C57.1153 39.1013 57.1236 39.1318 57.128 39.1674C57.1402 39.193 57.1523 39.2185 57.1645 39.2441L57.2993 39.3493C57.3215 39.3827 57.3397 39.421 57.3541 39.4644C57.3763 39.4978 57.3984 39.5311 57.4206 39.5645L57.2408 39.4242C57.3295 39.5577 57.4537 39.6868 57.6134 39.8115C57.7732 39.9362 57.9286 40.0253 58.0796 40.0789L58.3342 40.2777C58.3719 40.2911 58.4097 40.3045 58.4474 40.3179C58.493 40.3213 58.5346 40.3297 58.5724 40.3431L58.3327 40.156C58.3605 40.1616 58.3883 40.1672 58.416 40.1728C58.4516 40.1684 58.4832 40.1691 58.511 40.1747L58.3463 40.0461C58.4907 40.0463 58.6485 40.0088 58.8197 39.9336L58.9545 40.0388C59.0902 39.9679 59.208 39.8993 59.3081 39.8328L59.1584 39.7159C59.1839 39.7037 59.2084 39.6826 59.2318 39.6527C59.2552 39.6227 59.2797 39.6016 59.3052 39.5895L59.3801 39.6479C59.4213 39.6158 59.4575 39.5797 59.4886 39.5398C59.5276 39.4899 59.5627 39.4449 59.5939 39.405L59.6289 39.3601L59.6589 39.3835C59.6979 39.3335 59.7368 39.2836 59.7758 39.2337C59.8148 39.1838 59.8587 39.1377 59.9077 39.0956L59.8927 39.0839L59.9512 39.009L60.3855 39.3481L60.5609 39.1234L59.842 38.5622L59.9589 38.4125L60.3782 38.7398L60.4367 38.6649L60.3169 38.5714L60.3753 38.4965L60.6898 38.742L60.8652 38.5174L61 38.6226L61.2338 38.323Z" fill="black"/>
<path d="M47.5811 8.34269C47.5803 8.38269 47.5652 8.4216 47.5356 8.45944L47.8667 8.71787L47.8593 8.72733C47.8347 8.75886 47.8063 8.78232 47.774 8.7977L47.7087 8.82284L47.3587 8.54964L47.1164 8.66499L47.1921 8.72406L47.0709 8.78173L47.2223 8.89987L47.157 8.92502L46.8543 8.68874L46.6773 8.77894L46.7341 8.82324L46.6688 8.84839L46.5553 8.75978L46.4341 8.81745L47.0679 9.31217L46.8256 9.42752L46.2675 8.99187L46.2117 9.0244L46.0887 8.92841L45.9023 9.01123L46.1671 9.21798L45.9249 9.33332L46.1235 9.48838L46.0582 9.51353L45.992 9.46184L45.9267 9.48699L45.87 9.44268L45.6277 9.55803L45.6371 9.56542L45.516 9.62309L45.6579 9.73385L45.5926 9.75899L45.498 9.68515L45.4327 9.7103L45.6408 9.87274L45.5197 9.93042L45.8697 10.2036L45.7485 10.2613L44.8783 9.58198L44.7571 9.63965L45.3531 10.1048L45.1667 10.1877L45.0437 10.0917L44.8667 10.1819L44.6302 9.99727L44.5744 10.0298L44.6311 10.0741L44.51 10.1318L44.4533 10.0875L44.3974 10.12L44.5961 10.2751L44.4749 10.3327L44.5695 10.4066L44.3925 10.4968L44.2128 10.3565L44.157 10.389L44.1097 10.3521L43.8674 10.4674L43.839 10.4453L43.7737 10.4704L44.0102 10.655L43.8891 10.7127L44.0404 10.8308L43.8635 10.921L43.2959 10.478L43.1748 10.5357L43.4964 10.7867L43.3099 10.8696L43.1775 10.7662L43.1122 10.7913L42.9258 10.8741L43.115 11.0218L43.0497 11.047L43.3997 11.3202L43.3438 11.3527L43.2227 11.4104L42.4565 10.8123L42.3354 10.87L43.3002 11.6231L43.0579 11.7385L42.5377 11.3323L42.4165 11.39L42.3427 11.4846L42.0778 11.2779L42.004 11.3725L42.0513 11.4094L41.9036 11.5986L42.1496 11.7905L42.0019 11.9797L40.9235 11.138L40.7758 11.3272L41.8826 12.1911L41.7718 12.333L41.3935 12.0376L41.2827 12.1795L41.3867 12.2607L41.3498 12.308L41.4823 12.4114L41.3346 12.6006L41.4103 12.6596L41.3733 12.7069L41.1274 12.515L41.0536 12.6095L41.2333 12.7498L41.0856 12.939L40.4045 12.4074L40.2569 12.5966L40.1055 12.4784L40.0317 12.573L40.6938 13.0899C40.6298 13.1719 40.5428 13.2054 40.4326 13.1905L40.3191 13.1019C40.2679 13.1025 40.2139 13.0806 40.1572 13.0363L38.3031 11.5891C38.2464 11.5448 38.2121 11.4977 38.2002 11.4479L38.3043 11.5291C38.2757 11.4357 38.2871 11.3431 38.3385 11.2513L37.6668 10.7271L37.7407 10.6325L37.892 10.7506L38.0397 10.5614L38.7208 11.0931L38.8685 10.9039L38.6887 10.7636L38.7626 10.669L39.0085 10.861L39.0454 10.8137L38.9698 10.7546L39.1174 10.5654L38.985 10.462L39.0219 10.4147L38.9179 10.3335L39.0286 10.1916L39.407 10.487L39.5178 10.3451L38.411 9.48118L38.5587 9.29199L39.6371 10.1338L39.7847 9.94457L39.5388 9.75259L39.6865 9.5634L39.6392 9.52648L39.713 9.43189L39.9779 9.63864L40.0517 9.54405L40.0783 9.41253L40.5985 9.81865L40.6516 9.55562L39.6868 8.80247L39.7133 8.67096L40.47 9.26167L40.4966 9.13015L40.5146 9.06809L40.1646 8.79489L40.1731 8.72544L39.9839 8.57776L40.0285 8.38418L40.0379 8.39157L40.0465 8.32212L40.1789 8.42549L40.2235 8.23192L39.9018 7.98086L39.9284 7.84935L40.4959 8.29238L40.531 8.09142L40.3797 7.97328L40.4062 7.84177L40.1697 7.65717L40.1783 7.58772L40.2161 7.61726L40.2692 7.35424L40.307 7.38377L40.325 7.32171L40.4953 7.45462L40.5304 7.25366L40.4358 7.17982L40.4623 7.04831L40.2637 6.89324L40.2722 6.8238L40.329 6.8681L40.3555 6.73659L40.2988 6.69228L40.3073 6.62284L40.5438 6.80743L40.5789 6.60647L40.7019 6.70246L40.7369 6.5015L40.141 6.03632L40.1676 5.9048L41.0378 6.58412L41.0643 6.45261L40.1941 5.77329L40.2206 5.64178L40.4098 5.78946L40.4278 5.72739L40.863 6.06705L40.881 6.00499L40.9282 6.04191L40.9548 5.91039L40.6237 5.65196L40.6768 5.38893L40.7241 5.42585L40.7326 5.35641L40.657 5.29733L40.6655 5.22789L40.656 5.2205L40.7091 4.95748L40.4916 4.78765L40.5267 4.58669L40.6402 4.67529L40.6582 4.61323L39.8447 3.97822L39.8977 3.71519L40.1153 3.88502L40.1419 3.75351L40.7189 4.20393L40.7369 4.14186L40.9734 4.32646L41.0084 4.1255L40.6206 3.82276L40.6386 3.76069L41.1589 4.16681L41.1854 4.03529L40.6273 3.59965L40.6709 3.32924L40.9831 3.57291L40.9916 3.50346C40.9987 3.46839 41.0146 3.43509 41.0392 3.40356L41.0466 3.3941L41.302 3.59346C41.3167 3.57454 41.3322 3.56124 41.3483 3.55355C41.3694 3.53955 41.388 3.52871 41.4042 3.52102L41.5744 3.65393C41.6664 3.6141 41.7534 3.62618 41.8354 3.69017L43.6137 5.07834C43.6831 5.13249 43.7325 5.18625 43.7619 5.23963C43.7975 5.29793 43.8188 5.35515 43.8258 5.41129L43.6555 5.27838C43.6646 5.30576 43.668 5.33384 43.6659 5.3626C43.67 5.39629 43.6703 5.4219 43.6668 5.43943L43.4114 5.24007C43.4043 5.27514 43.4008 5.29267 43.4008 5.29267L43.3668 5.43364L43.0641 5.19736L43.0111 5.46038L43.5786 5.90342L43.5521 6.03493L43.0224 5.62143L43.0138 5.69088L43.4016 5.99362L43.3571 6.1872L43.1206 6.0026L43.1121 6.07205L42.5351 5.62163L42.5085 5.75314L42.2815 5.57593L42.2284 5.83895L43.0419 6.47397L43.0334 6.54342L42.9104 6.44743L42.8753 6.64839L43.0929 6.81822L43.0398 7.08124L43.0492 7.08862L43.0407 7.15807L43.1164 7.21714L43.0984 7.27921L43.0511 7.24229L42.998 7.50531L43.2439 7.69729L43.4862 7.58195L43.543 7.62625L43.6083 7.6011L43.6839 7.66018L43.7398 7.62765L43.5411 7.47259L43.7834 7.35724L43.5185 7.15049L43.6955 7.06029L43.8279 7.16366L43.8838 7.13113L44.4419 7.56678L44.6842 7.45143L44.0409 6.94933L44.1621 6.89166L44.285 6.98765L44.3409 6.95512L44.2841 6.91082L44.4611 6.82061L44.7638 7.0569L44.8291 7.03175L44.6777 6.91361L44.7989 6.85594L44.7232 6.79687L44.9655 6.68152L45.3155 6.95472L45.4534 6.89497C45.4534 6.89497 45.4696 6.88728 45.5019 6.8719L45.1708 6.61347C45.1933 6.6107 45.2182 6.60478 45.2456 6.59571C45.2729 6.58663 45.301 6.58318 45.3298 6.58533L45.8122 6.96191C45.8684 6.95499 45.929 6.96176 45.9942 6.98222C46.0595 7.00269 46.1236 7.03753 46.1867 7.08676L47.965 8.47493C48.047 8.53892 48.0798 8.62037 48.0635 8.71927L47.5811 8.34269ZM43.1454 8.07706L43.2665 8.01939L43.0584 7.85694L43.1143 7.82442L42.8021 7.58075L42.7936 7.6502L42.5949 7.49513L42.5684 7.62665L43.1454 8.07706ZM49.5429 19.5407L49.4614 19.7816L49.3006 19.6561L49.2826 19.7181C49.2777 19.7245 49.2703 19.7339 49.2605 19.7465C49.2618 19.7578 49.2601 19.7665 49.2552 19.7728L49.1984 19.7285L49.1836 19.7474C49.1246 19.8231 49.0519 19.8577 48.9656 19.8513L48.975 19.8586C48.9238 19.8592 48.873 19.8399 48.8225 19.8005L47.0726 18.4345C47.0284 18.4 46.993 18.3673 46.9664 18.3364C46.9511 18.3041 46.9301 18.2725 46.9035 18.2416C46.8727 18.177 46.857 18.119 46.8564 18.0678C46.8607 18.0103 46.8689 17.9608 46.8809 17.9195L46.9282 17.9564L46.9355 17.9469L46.9462 17.8943L46.9642 17.8323L47.125 17.9578L47.2064 17.7169L47.0267 17.5766L47.0722 17.4599L47.46 17.7626L47.5415 17.5217L47.428 17.4331L47.4513 17.3448L45.4175 15.7572L45.3469 15.8087L45.2334 15.7201L45.0195 15.8576L44.9155 15.7764L44.8038 15.8414L44.747 15.7971L44.5331 15.9346L44.5426 15.942L44.4867 15.9745L44.4478 16.005L44.4309 16.007L44.3836 15.9701C44.3464 15.9918 44.3004 16.0117 44.2456 16.0299C44.1958 16.0417 44.1358 16.0406 44.0657 16.0264L44.3494 16.2479C44.3193 16.2345 44.2835 16.2218 44.2422 16.2098C44.2057 16.1915 44.1654 16.1652 44.1213 16.1307L42.3713 14.7647C42.3208 14.7253 42.2929 14.6831 42.2873 14.6382L42.0035 14.4167C41.9749 14.3233 41.9877 14.242 42.0419 14.1726L42.0566 14.1537L42.1134 14.198C42.1281 14.1791 42.1436 14.1658 42.1598 14.1581L42.2061 14.1182L42.1967 14.1108L42.4106 13.9733L42.4673 14.0176L42.579 13.9525L42.6831 14.0338L42.8969 13.8963L43.001 13.9775L43.2149 13.84L42.846 13.552L42.9577 13.487L42.9293 13.4648L43.0873 13.3598L43.1819 13.4337L43.2378 13.4011L43.0297 13.2387L43.2436 13.1012L43.5652 13.3522L43.6674 13.2798L43.3741 13.0509L43.43 13.0184L43.4773 13.0553L43.6912 12.9178L43.6628 12.8956L43.8209 12.7907L43.8587 12.8202L44.0726 12.6827L44.1956 12.7787L44.3536 12.6737L44.4094 12.6412L44.8824 13.0104L44.9382 12.9779L44.9099 12.9557L45.0679 12.8508L44.5382 12.4373L44.7521 12.2998L44.9224 12.4327L44.9782 12.4001L44.8742 12.3189L44.93 12.2864L45.2327 12.5227L45.4466 12.3852L45.0777 12.0972L45.1893 12.0321L45.3312 12.1429L45.5451 12.0054L45.46 11.9389L45.618 11.834L45.7221 11.9152L45.936 11.7777L45.9076 11.7555L45.9635 11.723L45.7459 11.5532L45.8576 11.4881L46.0657 11.6506L46.2237 11.5456L46.1291 11.4718L46.1755 11.4319L46.3458 11.5648L46.5597 11.4273L46.3516 11.2648L46.5096 11.1599L46.4056 11.0786L46.5078 11.0062L45.8551 10.4967L45.9573 10.4243L45.8343 10.3283L46.0482 10.1908L45.9253 10.0948L46.0928 9.99719L46.4617 10.2852L46.6756 10.1477L47.6215 10.8861L47.7796 10.7811L47.3255 10.4267L47.4372 10.3616L47.7872 10.6348L48.0011 10.4973L47.6889 10.2536L47.847 10.1487L48.0456 10.3037L48.2595 10.1662L48.2311 10.1441L48.445 10.0066L48.1802 9.79983L48.2265 9.75992L49.1346 10.4688L49.3485 10.3313L49.3202 10.3091L49.376 10.2766L49.0449 10.0182L49.1787 9.92472L49.2588 9.88066L49.3534 9.95449L49.484 9.9042L49.4556 9.88205C49.5216 9.86252 49.5928 9.8623 49.6693 9.88137C49.7506 9.89415 49.8323 9.93253 49.9143 9.99652L51.967 11.5988C52.0489 11.6628 52.106 11.7327 52.1381 11.8086C52.1752 11.8781 52.1923 11.9472 52.1894 12.016L52.2272 12.0455L52.2101 12.1844L52.1155 12.1106C52.1084 12.1457 52.0975 12.1727 52.0827 12.1916L52.0341 12.3515L52.3651 12.6099L52.3377 12.6646L52.366 12.6867L52.2846 12.9276L51.386 12.2261L51.368 12.2882L51.6328 12.4949L51.5513 12.7358L51.5797 12.758L51.4983 12.9988L51.2996 12.8438L51.2362 13.0226L51.5483 13.2663L51.4669 13.5071L51.1169 13.2339L51.0809 13.3581L51.5349 13.7125L51.4714 13.8913L50.5255 13.1529L50.444 13.3938L50.0751 13.1058L50.0117 13.2846L50.1252 13.3732L50.0437 13.6141L49.6748 13.3261L49.6388 13.4503L51.1428 14.6243L51.0974 14.741L51.0217 14.682L50.9582 14.8608L50.7691 14.7131L50.6876 14.954L50.4606 14.7768L50.4331 14.8314L50.7736 15.0973L50.7102 15.2761L50.7196 15.2834L50.6836 15.4076L50.3715 15.1639L50.3535 15.226L50.6562 15.4623L50.5747 15.7031L50.6788 15.7844L50.6153 15.9632L50.5869 15.941L50.5055 16.1819L50.6568 16.3L50.6208 16.4242L50.3465 16.21L50.265 16.4509L50.4542 16.5986L50.4268 16.6533L50.3795 16.6163L50.3615 16.6784L50.1912 16.5455L50.1003 16.779L50.6395 17.1999L50.576 17.3787L50.6044 17.4008L50.5864 17.4629L50.1039 17.0863L50.0859 17.1484L50.0954 17.1558L50.0319 17.3346L49.909 17.2386L49.8275 17.4794L49.7802 17.4425L49.7262 17.6287L49.7546 17.6509L49.6731 17.8917L49.6258 17.8548L49.6078 17.9169L49.9011 18.1458L49.8651 18.2699L49.534 18.0115L49.4525 18.2524L49.6606 18.4148L49.6426 18.4769L49.548 18.403L49.494 18.5892L49.513 18.604L49.4769 18.7281L49.8459 19.0161L49.7644 19.257L49.8779 19.3456L49.7964 19.5864L49.4086 19.2837L49.3632 19.4004L49.5429 19.5407ZM48.5055 12.7178L48.619 12.8065L48.461 12.9114L48.8488 13.2142L48.9123 13.0354L48.988 13.0944L49.0334 12.9777L48.6077 12.6454L48.5055 12.7178ZM48.5593 13.2926L48.6375 13.0949L48.4647 13.2188L48.5593 13.2926ZM47.1056 13.9847L47.0498 14.0172L47.1538 14.0984L47.1222 14.1194L48.1911 14.9538L48.2038 14.918L48.2511 14.955L48.2786 14.9003L48.0894 14.7526L48.1803 14.5191L48.4546 14.7332L48.5001 14.6165L48.3393 14.491L48.4302 14.2575L48.4586 14.2796L48.5315 14.1082L48.4275 14.027L48.5184 13.7935L48.2157 13.5572L48.2337 13.4951L48.5458 13.7388L48.5913 13.6221L48.5818 13.6147L48.6453 13.4359L48.3426 13.1996L48.194 13.312L47.9859 13.1495L47.8837 13.2219L48.0918 13.3844L48.0454 13.4243L48.0738 13.4465L47.8694 13.5913L47.7653 13.5101L47.6073 13.6151L47.6924 13.6815L47.488 13.8264L47.3461 13.7157L47.2438 13.7881L47.6128 14.0761L47.4083 14.221L47.1056 13.9847ZM56.466 24.9449L56.4318 25.2227L56.0156 24.8978L56.0177 24.9146C56.0191 24.9258 56.0124 24.9409 55.9976 24.9598C55.9891 24.9837 55.9831 25.0044 55.9796 25.0219L55.9512 24.9997L55.9365 25.0187C55.9168 25.0439 55.8964 25.0635 55.8753 25.0775C55.8542 25.0915 55.83 25.103 55.8026 25.1121L55.9256 25.2081C55.8982 25.2172 55.8701 25.2206 55.8414 25.2185L55.2927 24.7902C55.2415 24.7908 55.1907 24.7714 55.1402 24.7321L52.9835 23.0485C52.9457 23.019 52.9135 22.9888 52.8869 22.9578C52.8652 22.9206 52.8442 22.889 52.8239 22.863L53.3725 23.2913C53.3585 23.2702 53.3424 23.2323 53.3243 23.1775L53.2013 23.0815C53.1895 23.0317 53.1839 22.9868 53.1847 22.9468C53.1918 22.9117 53.194 22.883 53.1912 22.8605L53.1891 22.8437L53.2175 22.8658L53.244 22.7343L53.6508 23.0518L53.6944 22.7814L54.5457 23.4459L54.5543 23.3765L53.8165 22.8006L53.8218 22.7742L53.807 22.7932L52.3313 21.6413L52.2944 21.6886L53.2782 22.4565L53.1305 22.6457L52.5251 22.1731L52.4513 22.2677L51.5337 21.5515C51.514 21.5767 51.488 21.597 51.4557 21.6124C51.4234 21.6278 51.3936 21.64 51.3662 21.6491L51.2811 21.5826C51.2362 21.5881 51.2049 21.5891 51.1874 21.5856L50.5726 21.1056C50.5213 21.1063 50.4673 21.0844 50.4106 21.0401L48.6039 19.6298C48.5471 19.5855 48.5128 19.5384 48.501 19.4886L49.1064 19.9611C49.0987 19.945 49.0921 19.9145 49.0865 19.8695L49.1717 19.936C49.1738 19.9072 49.1784 19.8753 49.1855 19.8403C49.1926 19.8052 49.206 19.775 49.2257 19.7498L50.1338 20.4587L50.2076 20.3641L50.813 20.8366L50.9607 20.6475L49.9769 19.8795L50.0138 19.8322L51.4895 20.9841L51.6002 20.8422L49.7935 19.4319L49.9043 19.29L50.0745 19.4229L50.2222 19.2337L50.3736 19.3519L50.4474 19.2573L50.419 19.2351L50.5667 19.046L50.5478 19.0312L50.6955 18.842L50.6198 18.7829L50.7305 18.641L50.7873 18.6853L50.8611 18.5907L50.9652 18.672L51.1129 18.4828L51.4534 18.7486L51.5642 18.6067L50.3628 17.669L50.4367 17.5744L50.3515 17.5079L50.3884 17.4606L51.4668 18.3024L51.5406 18.2078L51.6352 18.2816L51.6722 18.2343L50.4425 17.2744L50.5532 17.1325L50.714 17.2581L50.7879 17.1635L50.8446 17.2078L50.9923 17.0186L51.9193 17.7422L51.9931 17.6476L52.2485 17.847L52.3593 17.7051L51.1674 16.7747L51.3151 16.5855L51.6367 16.8366L51.7475 16.6947L52.1637 17.0196L52.2006 16.9723L52.8344 17.467L52.9082 17.3724L53.2393 17.6309L53.3501 17.489L53.4163 17.5407L53.4532 17.4934L53.2545 17.3383L53.3653 17.1964L52.7315 16.7017L52.7684 16.6544L52.3239 16.3073L52.4715 16.1182L54.2404 17.4989L54.3143 17.4044L52.1386 15.7061L52.2125 15.6115L53.8489 16.8889L53.9597 16.747L52.38 15.5139L52.4538 15.4193L53.0687 15.8992L53.1425 15.8046L53.729 16.2624L53.8767 16.0733L53.6875 15.9256L53.7982 15.7837L53.855 15.828L53.9658 15.6861L53.6914 15.472L53.7284 15.4247L53.5297 15.2696L53.6405 15.1277L53.5837 15.0834L53.6206 15.0361L53.7436 15.1321L53.8174 15.0375L53.9404 15.1335L54.0881 14.9443L53.0476 14.1321L53.0845 14.0848L53.1412 14.1291L53.1782 14.0818L53.566 14.3846L53.6029 14.3373L53.4705 14.2339L53.5074 14.1866L54.2358 14.7551L54.2727 14.7078L54.093 14.5676L54.1299 14.5203L54.1204 14.5129L54.2681 14.3237L54.3154 14.3606L54.3892 14.266L55.0419 14.7755L55.1158 14.6809L55.2009 14.7474L55.2747 14.6528L55.3126 14.6823L55.3495 14.635L54.3373 13.8449C54.3978 13.7805 54.4786 13.742 54.5796 13.7296L54.6837 13.8108C54.751 13.8025 54.8194 13.8254 54.8888 13.8796L56.6955 15.2899C56.7586 15.3391 56.7974 15.3999 56.812 15.4722L56.708 15.391C56.7316 15.4906 56.7139 15.5783 56.6549 15.654L57.667 16.4441L57.6301 16.4914L57.5923 16.4618L57.5184 16.5564L57.4333 16.49L57.3594 16.5846L56.7068 16.0751L56.6329 16.1697L56.5856 16.1327L56.4379 16.3219L56.4474 16.3293L56.4105 16.3766L56.5902 16.5169L56.5533 16.5642L55.8249 15.9956L55.788 16.0429L55.9204 16.1463L55.8835 16.1936L55.4957 15.8909L55.4588 15.9382L55.402 15.8939L55.3651 15.9412L56.2543 16.6352L56.3196 16.6101L56.6223 16.8464L56.6781 16.8138L57.2267 17.2421L57.292 17.217L56.7434 16.7887L56.8087 16.7636L56.9695 16.8891L57.0348 16.8639L57.0821 16.9009L57.1474 16.8757L57.2325 16.9422L57.2884 16.9096L57.3924 16.9909L57.5788 16.908L57.5316 16.8711L57.6621 16.8208L58.2013 17.2417L58.3225 17.184L57.8873 16.8444L58.0085 16.7867L58.4814 17.1559L58.5373 17.1234L57.894 16.6213L57.9425 16.5982C58.0233 16.5598 58.1099 16.5462 58.2025 16.5576L58.1269 16.4985C58.2131 16.505 58.3036 16.5452 58.3982 16.619L60.4887 18.2508C60.5454 18.2951 60.578 18.351 60.5863 18.4184L60.6714 18.4848C60.6811 18.5634 60.6638 18.6311 60.6195 18.6878C60.6047 18.7068 60.5917 18.7169 60.5805 18.7183L61.2332 19.2278C61.2282 19.2341 61.2202 19.2379 61.2089 19.2393C61.204 19.2456 61.1966 19.2551 61.1868 19.2677L60.7233 18.9059L60.6896 18.91L60.5927 18.9562L61.0278 19.2958L60.8972 19.3461L60.358 18.9252L60.2275 18.9755L60.2747 19.0125L60.0789 19.0879L59.9843 19.014L59.919 19.0392L59.8338 18.9727L59.7685 18.9979L59.7212 18.961L59.6559 18.9861L59.4857 18.8532L59.4204 18.8783L59.9785 19.314L59.9132 19.3391L59.3645 18.9109L59.2992 18.936L58.9965 18.6997L58.9312 18.7249L58.988 18.7692L58.7363 18.8771L59.1146 19.1725L58.984 19.2228L59.0692 19.2892L59.0039 19.3144L59.0133 19.3218L58.8175 19.3972L58.9499 19.5006L58.8846 19.5257L58.894 19.5331L58.6982 19.6085L58.509 19.4609L58.3131 19.5363L58.5117 19.6914L58.2505 19.7919L58.1465 19.7107L58.0159 19.761L57.401 19.2811L57.2704 19.3313L58.8501 20.5645L58.6542 20.6399L57.0178 19.3625L56.8872 19.4128L59.0628 21.1111L58.9322 21.1613L57.1633 19.7806L56.9022 19.8811L57.3467 20.2282L57.2814 20.2533L57.9152 20.748L57.7193 20.8235L57.918 20.9785L57.8527 21.0037L57.7865 20.952L57.5906 21.0274L57.2595 20.769L57.211 20.7921L57.2046 20.8784L56.5708 20.3836L56.5623 20.4531L56.1461 20.1282L56.1204 20.3365L55.7894 20.0781L55.7552 20.3559L56.9471 21.2863L56.9214 21.4946L56.666 21.2952L56.6489 21.4341L55.7219 20.7105L55.6878 20.9883L55.631 20.944L55.6139 21.0829L55.4531 20.9574L55.4275 21.1657L56.6572 22.1256L56.6487 22.1951L56.5446 22.1139L56.5275 22.2528L56.2627 22.046L56.2541 22.1155L56.1595 22.0416L56.1425 22.1805L55.4425 21.6341L55.4168 21.8424L56.2303 22.4775L56.1962 22.7553L56.1773 22.7405L56.1602 22.8794L56.2358 22.9385L56.2102 23.1468L56.3805 23.2797L56.3463 23.5575L56.1761 23.4246L56.1419 23.7024L56.1514 23.7098L56.1248 23.8413L56.1437 23.856L56.1096 24.1338L56.1663 24.1781L56.1407 24.3865L56.6137 24.7557L56.588 24.964L57.3259 25.54L57.3173 25.6094L56.466 24.9449ZM55.8472 17.0787L56.0459 17.2337L56.009 17.281L56.2265 17.4509L56.2918 17.4257L56.1594 17.3223L56.3458 17.2395L56.3364 17.2321L56.4017 17.207L56.3165 17.1405L56.4377 17.0829L56.135 16.8466L56.0611 16.9412L55.9382 16.8452L55.9012 16.8925L55.958 16.9368L55.8472 17.0787ZM55.5073 17.6506L55.46 17.6137L55.3936 17.6988L55.5073 17.6506ZM53.7843 20.1114L53.8127 20.1336L53.836 20.0452L53.7843 20.1114ZM52.6691 19.317L52.7542 19.3834L52.6804 19.478L53.4276 20.0613L53.4447 19.9224L53.5393 19.9963L53.5479 19.9268L52.706 19.2697L52.6691 19.317ZM52.111 21.241L53.3786 22.2304L53.4137 22.0294L53.3474 21.9777L53.3911 21.7073L53.3722 21.6926L53.3987 21.5611L53.3892 21.5537L53.4329 21.2833L53.6031 21.4162L53.6468 21.1458L53.4765 21.0129L53.5021 20.8045L53.4264 20.7454L53.453 20.6139L53.4719 20.6287L53.5061 20.3509L53.4304 20.2918L53.2827 20.481L53.1787 20.3998L53.1048 20.4944L53.0481 20.4501L52.9373 20.592L53.013 20.651L52.8653 20.8402L52.8842 20.855L52.7365 21.0442L52.7649 21.0663L52.6911 21.1609L52.5397 21.0428L52.3921 21.232L52.2218 21.0991L52.111 21.241ZM64.8494 26.4653L65.3223 26.8345L65.1747 27.0237L65.0895 26.9572L64.9419 27.1464L64.8567 27.0799L64.746 27.2218L64.5473 27.0668L64.5104 27.1141L64.5861 27.1731L64.5492 27.2204L64.2843 27.0137L64.2105 27.1083L64.6645 27.4627L64.5537 27.6046L64.2794 27.3905L64.2425 27.4378L64.252 27.4451C64.2274 27.4767 64.1996 27.5057 64.1687 27.5323C64.1441 27.5639 64.1194 27.5954 64.0948 27.6269L64.0854 27.6196C64.0643 27.6336 64.039 27.6595 64.0095 27.6973L63.9282 27.8014L63.8809 27.7644C63.8648 27.7721 63.8493 27.7854 63.8346 27.8043C63.8198 27.8233 63.8075 27.839 63.7976 27.8516L63.8922 27.9255L63.7162 28.0925L63.631 28.0261C63.6001 28.0527 63.5692 28.0793 63.5383 28.1059C63.5137 28.1374 63.4828 28.164 63.4455 28.1857L63.5496 28.2669C63.5447 28.2732 63.5366 28.2771 63.5254 28.2785C63.5204 28.2848 63.513 28.2942 63.5032 28.3069L63.6451 28.4176C63.6402 28.4239 63.6321 28.4278 63.6209 28.4291C63.6159 28.4354 63.6086 28.4449 63.5987 28.4575L63.4284 28.3246C63.4024 28.3449 63.3764 28.3652 63.3505 28.3855C63.3294 28.3995 63.3058 28.4167 63.2798 28.437L63.2515 28.4148L63.084 28.5124L62.9799 28.4312C62.9539 28.4515 62.9248 28.4693 62.8925 28.4847C62.8651 28.4938 62.8352 28.506 62.8029 28.5214L62.8881 28.5878C62.8508 28.6095 62.8105 28.6287 62.7669 28.6455L62.7102 28.6012C62.6842 28.6215 62.6519 28.6369 62.6133 28.6473C62.5859 28.6564 62.556 28.6686 62.5237 28.684L62.817 28.9129L62.6769 28.9558L62.3269 28.6826L62.1121 28.7433L62.2162 28.8245L61.973 28.863L62.077 28.9443C62.0658 28.9456 62.0514 28.9446 62.0339 28.941C62.0227 28.9424 62.009 28.9469 61.9928 28.9546L62.1063 29.0432C62.0776 29.0411 62.0463 29.0421 62.0127 29.0462C61.9853 29.0553 61.9572 29.0588 61.9284 29.0566L61.7487 28.9163C61.7199 28.9142 61.6887 28.9152 61.655 28.9193C61.6214 28.9235 61.587 28.922 61.5519 28.9149L61.6181 28.9666C61.5894 28.9644 61.555 28.963 61.515 28.9622C61.4813 28.9664 61.4469 28.9649 61.4119 28.9578L61.3929 28.9431C61.3116 28.9303 61.2302 28.9175 61.1488 28.9047C61.0675 28.892 60.9829 28.8767 60.8953 28.859L60.8669 28.8369C60.843 28.8284 60.8192 28.82 60.7954 28.8115C60.7715 28.803 60.7452 28.7977 60.7165 28.7956C60.6575 28.78 60.5986 28.7645 60.5397 28.749C60.492 28.732 60.438 28.7102 60.3778 28.6834L60.3683 28.676C60.111 28.5767 59.847 28.4467 59.5765 28.2863L59.5859 28.2937C59.4752 28.2275 59.3606 28.1533 59.2422 28.071C59.13 27.9936 59.0204 27.9131 58.9132 27.8294C58.7996 27.7408 58.6917 27.6515 58.5895 27.5615C58.4872 27.4715 58.3874 27.3784 58.29 27.2821C58.0701 27.0698 57.8768 26.8428 57.7102 26.6012L57.7197 26.6085C57.6854 26.5615 57.6511 26.5144 57.6168 26.4673C57.5874 26.414 57.558 26.3606 57.5287 26.3072L57.5192 26.2998C57.5101 26.2724 57.4986 26.2482 57.4846 26.2271C57.4706 26.2061 57.4566 26.185 57.4426 26.1639L57.471 26.1861C57.4325 26.1053 57.3972 26.027 57.3651 25.9512C57.333 25.8754 57.3008 25.7995 57.2687 25.7237L57.2876 25.7384L57.2195 25.5331L57.1628 25.4888C57.1474 25.4565 57.1376 25.4235 57.1335 25.3898C57.1293 25.3561 57.1227 25.3256 57.1137 25.2982L57.2934 25.4385L57.2537 25.2553L57.1402 25.1667C57.1437 25.1492 57.1448 25.1348 57.1434 25.1236C57.142 25.1123 57.1375 25.0986 57.1298 25.0825L57.0352 25.0086C57.0297 24.9637 57.0217 24.922 57.0112 24.8834C57.012 24.8434 57.0128 24.8034 57.0136 24.7634L56.9095 24.6822L56.9068 24.4517L57.2567 24.7249L57.2738 24.586L56.9711 24.3497C56.9782 24.3146 56.9828 24.2827 56.985 24.2539C56.9921 24.2189 56.9991 24.1838 57.0062 24.1487L57.063 24.193C57.0687 24.1467 57.0775 24.1029 57.0895 24.0615L57.0044 23.9951C57.0115 23.96 57.0161 23.9281 57.0182 23.8993C57.0316 23.8692 57.0418 23.8366 57.0489 23.8015L57.1624 23.8901L57.2164 23.7039L57.2448 23.726C57.2582 23.6959 57.2691 23.6689 57.2776 23.6451C57.291 23.6149 57.3044 23.5848 57.3177 23.5546L57.4218 23.6358C57.4253 23.6183 57.4345 23.6001 57.4492 23.5812L57.3547 23.5073C57.3645 23.4947 57.3687 23.4828 57.3673 23.4716C57.3723 23.4653 57.3772 23.459 57.3821 23.4526L57.3632 23.4379C57.3815 23.4014 57.3998 23.365 57.4181 23.3285C57.4364 23.2921 57.4547 23.2556 57.473 23.2192L57.5203 23.2561C57.5386 23.2196 57.5569 23.1832 57.5753 23.1467C57.5999 23.1152 57.6245 23.0837 57.6491 23.0521L57.5923 23.0078L57.6567 22.9058L57.7229 22.9575L57.8042 22.8535C57.814 22.8409 57.8207 22.8258 57.8242 22.8083C57.839 22.7893 57.8513 22.7736 57.8612 22.761L57.7382 22.665C57.7565 22.6285 57.7779 22.5945 57.8026 22.563C57.8272 22.5315 57.8518 22.4999 57.8764 22.4684L57.9426 22.5201L57.9795 22.4728L57.9512 22.4506L58.0619 22.3088L58.2511 22.4564L58.3249 22.3618L57.9939 22.1034L58.0308 22.0561L58.2105 22.1964L58.2474 22.1491L58.238 22.1417L58.3487 21.9998L58.3014 21.9629L58.4491 21.7737L58.5059 21.818L58.6535 21.6288L58.5873 21.5772L58.6981 21.4353L58.3481 21.1621L58.4958 20.9729L58.9025 21.2904C58.9187 21.2827 58.9341 21.2694 58.9489 21.2505L59.1002 21.3686L59.1372 21.3213L59.0237 21.2327L59.0975 21.1381L59.107 21.1455L59.2735 20.9711L59.2546 20.9563C59.2743 20.9311 59.2915 20.909 59.3063 20.8901C59.3323 20.8698 59.3583 20.8495 59.3843 20.8292L59.3559 20.807C59.3756 20.7818 59.3928 20.7597 59.4076 20.7408C59.4336 20.7205 59.4596 20.7002 59.4856 20.6799L59.4667 20.6651C59.4927 20.6448 59.5162 20.6277 59.5373 20.6137C59.5633 20.5934 59.5893 20.5731 59.6153 20.5528L59.3504 20.346C59.3603 20.3334 59.3676 20.324 59.3726 20.3177C59.3838 20.3163 59.3919 20.3124 59.3968 20.3061L59.6806 20.5276L59.7828 20.4552L59.7639 20.4404L59.8197 20.4079L59.9616 20.5187C59.9778 20.511 59.9964 20.5001 60.0174 20.4861C60.0385 20.4721 60.0571 20.4613 60.0733 20.4536L59.9787 20.3798C60.0419 20.3378 60.1164 20.2944 60.202 20.2497L60.1737 20.2275C60.2172 20.2107 60.2576 20.1915 60.2948 20.1698C60.3433 20.1468 60.3868 20.13 60.4254 20.1195L60.4538 20.1417L60.5191 20.1166L60.3677 19.9984L60.433 19.9733L60.5844 20.0914L60.6497 20.0663L60.6307 20.0515L60.855 19.9982L60.7888 19.9465L61.0225 19.9006C61.0787 19.8937 61.1348 19.8868 61.191 19.8799C61.2583 19.8716 61.3208 19.8696 61.3783 19.8739L61.2837 19.8L61.3774 19.7971L61.2733 19.7158C61.2958 19.7131 61.3126 19.711 61.3239 19.7096C61.3414 19.7131 61.3589 19.7167 61.3765 19.7202L61.613 19.9048C61.648 19.9119 61.6856 19.9158 61.7255 19.9166C61.7655 19.9174 61.8031 19.9213 61.8381 19.9284L61.8665 19.9505C61.9542 19.9682 62.0419 19.9859 62.1295 20.0036C62.2221 20.015 62.3098 20.0327 62.3926 20.0567L62.4209 20.0788C62.5914 20.1205 62.767 20.1815 62.9479 20.2618L62.9952 20.2988C63.2175 20.3911 63.4393 20.5034 63.6608 20.6357C63.8823 20.768 64.1003 20.9178 64.3147 21.0852C64.7624 21.4347 65.1203 21.7952 65.3884 22.1669L65.3317 22.1226C65.3863 22.1956 65.4384 22.2719 65.4881 22.3512C65.5427 22.4243 65.5892 22.5012 65.6276 22.582L65.5898 22.5524C65.6395 22.6318 65.6779 22.7126 65.7052 22.7947C65.7436 22.8755 65.7821 22.9562 65.8205 23.037L65.7827 23.0074L65.8507 23.2128L65.6142 23.0282C65.6219 23.0443 65.6265 23.058 65.6278 23.0693C65.6355 23.0854 65.6408 23.1047 65.6435 23.1272L65.7476 23.2084C65.7553 23.2246 65.763 23.2407 65.7707 23.2569C65.7783 23.273 65.7804 23.2899 65.7769 23.3074L65.8715 23.3812C65.8896 23.436 65.8997 23.4946 65.9017 23.557C65.9149 23.6181 65.925 23.6767 65.9319 23.7329L65.9414 23.7402C65.9469 23.7852 65.9493 23.8276 65.9485 23.8676C65.9527 23.9013 65.9543 23.9381 65.9536 23.9781L66.0198 24.0298L66.0225 24.2603L66.0415 24.2751C66.0456 24.3088 66.0459 24.3344 66.0424 24.3519L65.891 24.2338L65.8825 24.3032L66.0433 24.4287L66.0348 24.4982L66.0064 24.476C66.0056 24.516 65.9968 24.5599 65.9798 24.6075C65.9741 24.6538 65.9684 24.7001 65.9628 24.7464L65.9911 24.7686L65.9286 25.0242L66.0232 25.0981L65.9777 25.2148L65.8358 25.1041L65.8178 25.1661L65.8367 25.1809L65.7913 25.2976L65.7629 25.2755C65.758 25.2818 65.7531 25.2881 65.7481 25.2944C65.7495 25.3056 65.7453 25.3176 65.7354 25.3302L65.3382 25.02C65.3311 25.0551 65.3177 25.0853 65.298 25.1105C65.2895 25.1343 65.2786 25.1613 65.2652 25.1915L65.7571 25.5754C65.7437 25.6056 65.7272 25.6333 65.7075 25.6585C65.699 25.6823 65.685 25.7069 65.6653 25.7321L65.5328 25.6287C65.5195 25.6589 65.5029 25.6865 65.4832 25.7118C65.4748 25.7356 65.4607 25.7601 65.441 25.7854L65.564 25.8814L65.4352 26.0853L65.3122 25.9893L65.2901 26.0177C65.2852 26.024 65.2778 26.0335 65.2679 26.0461C65.2644 26.0636 65.2577 26.0787 65.2479 26.0913L65.5033 26.2907L65.4664 26.338L65.2393 26.1607C65.2358 26.1783 65.2266 26.1965 65.2119 26.2154L65.3821 26.3483C65.3638 26.3848 65.3424 26.4188 65.3178 26.4503C65.2931 26.4818 65.2685 26.5134 65.2439 26.5449L64.9601 26.3234L64.8494 26.4653ZM62.6301 25.0374L62.7153 25.1039L62.8629 24.9147L62.39 24.5455L62.5007 24.4036L62.7845 24.6251C62.8091 24.5936 62.8337 24.562 62.8583 24.5305C62.883 24.499 62.9044 24.465 62.9227 24.4285L62.7525 24.2956C62.7623 24.283 62.7665 24.2711 62.7651 24.2599C62.7701 24.2536 62.775 24.2472 62.7799 24.2409L63.0069 24.4182L63.0439 24.3709L62.7885 24.1715C62.7983 24.1589 62.8025 24.147 62.8011 24.1357C62.8061 24.1294 62.811 24.1231 62.8159 24.1168L62.8528 24.0695L62.9663 24.1581C62.991 24.1266 63.0124 24.0926 63.0307 24.0561C63.0603 24.0183 63.0817 23.9843 63.0951 23.9542L62.9721 23.8582C62.9855 23.828 62.9964 23.801 63.0049 23.7772C63.0183 23.747 63.0285 23.7144 63.0356 23.6794L63.168 23.7827C63.1885 23.7175 63.2002 23.6505 63.2031 23.5818L62.7112 23.1978C62.7191 23.1228 62.7055 23.0361 62.6706 22.9378L63.0679 23.2479C63.0498 23.1932 63.0337 23.1552 63.0197 23.1342L63.0481 23.1563C62.983 23.0446 62.8937 22.9445 62.7802 22.8559C62.6667 22.7673 62.5479 22.705 62.4238 22.669L62.1495 22.4548C62.1193 22.4415 62.0755 22.4326 62.0179 22.4283L62.2828 22.635C62.2077 22.6272 62.1204 22.6351 62.0207 22.6588L62.0396 22.6736C61.9736 22.6931 61.9115 22.7207 61.8532 22.7564L61.8816 22.7785C61.8556 22.7988 61.8296 22.8191 61.8036 22.8394C61.7825 22.8534 61.7558 22.8681 61.7235 22.8835L61.7424 22.8983C61.7164 22.9186 61.6855 22.9452 61.6497 22.9781C61.6251 23.0096 61.6004 23.0412 61.5758 23.0727L61.5569 23.0579L61.4831 23.1525L61.5966 23.2411L61.5597 23.2884L61.4083 23.1703L61.3714 23.2176L60.9552 22.8927L60.8075 23.0819L61.1575 23.3551L61.0467 23.497L61.113 23.5486L60.9653 23.7378L60.9085 23.6935L60.7608 23.8827L60.8081 23.9196L60.6974 24.0615L60.7068 24.0689C60.6921 24.0878 60.6829 24.1061 60.6794 24.1236L60.4902 23.9759L60.4533 24.0232L60.7844 24.2816L60.7105 24.3762L60.5213 24.2286L60.4106 24.3704L60.4389 24.3926L60.402 24.4399L60.3358 24.3882C60.3112 24.4197 60.2866 24.4513 60.262 24.4828C60.2437 24.5193 60.2222 24.5532 60.1976 24.5848L60.33 24.6882L60.3079 24.7165C60.2882 24.7418 60.266 24.7701 60.2414 24.8017C60.2217 24.8269 60.2052 24.8546 60.1918 24.8847L60.1256 24.833C60.1221 24.8506 60.1129 24.8688 60.0981 24.8877C60.0834 24.9066 60.0742 24.9249 60.0707 24.9424L60.1274 24.9867C60.1091 25.0232 60.094 25.0621 60.082 25.1034C60.07 25.1448 60.058 25.1862 60.046 25.2276L59.9987 25.1907C59.9824 25.2896 59.9836 25.392 60.0023 25.498L60.0213 25.5128C60.0289 25.5289 60.0342 25.5482 60.0369 25.5707C60.0446 25.5868 60.0523 25.603 60.06 25.6191L60.1451 25.6856C60.1591 25.7066 60.1707 25.7309 60.1798 25.7583C60.1937 25.7793 60.2077 25.8004 60.2217 25.8215L60.1082 25.7329C60.1642 25.8172 60.2427 25.8987 60.3436 25.9775C60.4445 26.0562 60.5426 26.1125 60.6379 26.1464L60.7988 26.2719C60.8226 26.2804 60.8464 26.2888 60.8703 26.2973C60.899 26.2994 60.9253 26.3047 60.9492 26.3132L60.7978 26.1951C60.8154 26.1986 60.8329 26.2021 60.8504 26.2057C60.8729 26.2029 60.8929 26.2033 60.9104 26.2068L60.8064 26.1256C60.8976 26.1258 60.9973 26.1021 61.1054 26.0546L61.1905 26.121C61.2762 26.0763 61.3507 26.0329 61.4139 25.9909L61.3193 25.9171C61.3355 25.9094 61.3509 25.8961 61.3657 25.8772C61.3804 25.8582 61.3959 25.8449 61.4121 25.8372L61.4594 25.8742C61.4854 25.8539 61.5082 25.8311 61.5279 25.8059C61.5525 25.7743 61.5746 25.746 61.5943 25.7207L61.6165 25.6924L61.6354 25.7071C61.66 25.6756 61.6846 25.6441 61.7092 25.6125C61.7339 25.581 61.7616 25.5519 61.7925 25.5253L61.7831 25.5179L61.82 25.4706L62.0943 25.6848L62.2051 25.5429L61.751 25.1885L61.8249 25.0939L62.0897 25.3006L62.1267 25.2533L62.051 25.1943L62.0879 25.147L62.2865 25.302L62.3973 25.1601L62.4824 25.2266L62.6301 25.0374Z" fill="black"/>
<path d="M27.1622 21.6854C27.1606 21.7654 27.1303 21.8432 27.0713 21.9189L27.7334 22.4357L27.7187 22.4547C27.6694 22.5177 27.6125 22.5646 27.5479 22.5954L27.4173 22.6457L26.7173 22.0993L26.2328 22.33L26.3841 22.4481L26.1419 22.5635L26.4446 22.7997L26.314 22.85L25.7086 22.3775L25.3546 22.5579L25.4681 22.6465L25.3375 22.6968L25.1105 22.5196L24.8682 22.6349L26.1358 23.6243L25.6512 23.855L24.5351 22.9837L24.4234 23.0488L24.1774 22.8568L23.8046 23.0225L24.3343 23.436L23.8497 23.6666L24.247 23.9768L24.1164 24.0271L23.984 23.9237L23.8534 23.974L23.7399 23.8854L23.2554 24.1161L23.2743 24.1308L23.032 24.2462L23.3158 24.4677L23.1852 24.518L22.996 24.3703L22.8654 24.4206L23.2816 24.7455L23.0394 24.8608L23.7393 25.4072L23.4971 25.5226L21.7566 24.164L21.5143 24.2793L22.7062 25.2097L22.3333 25.3753L22.0874 25.1833L21.7334 25.3637L21.2604 24.9945L21.1488 25.0596L21.2623 25.1482L21.02 25.2635L20.9065 25.1749L20.7948 25.24L21.1921 25.5501L20.9498 25.6655L21.139 25.8131L20.7851 25.9936L20.4256 25.713L20.314 25.778L20.2194 25.7042L19.7348 25.9349L19.6781 25.8906L19.5475 25.9409L20.0204 26.3101L19.7782 26.4254L20.0809 26.6617L19.7269 26.8421L18.5918 25.956L18.3495 26.0714L18.9928 26.5735L18.6199 26.7391L18.355 26.5324L18.2244 26.5827L17.8516 26.7483L18.2299 27.0436L18.0994 27.0939L18.7993 27.6403L18.6877 27.7054L18.4454 27.8207L16.913 26.6246L16.6707 26.7399L18.6004 28.2462L18.1159 28.4769L17.0754 27.6647L16.8331 27.78L16.6854 27.9692L16.1557 27.5557L16.008 27.7449L16.1026 27.8187L15.8072 28.1971L16.2991 28.5811L16.0038 28.9595L13.8471 27.2759L13.5517 27.6543L15.7652 29.3821L15.5437 29.6659L14.7869 29.0752L14.5654 29.359L14.7735 29.5214L14.6997 29.616L14.9645 29.8228L14.6692 30.2011L14.8205 30.3193L14.7467 30.4139L14.2548 30.0299L14.1071 30.2191L14.4666 30.4997L14.1712 30.8781L12.8091 29.8148L12.5137 30.1931L12.211 29.9569L12.0633 30.146L13.3876 31.1798C13.2597 31.3438 13.0855 31.4108 12.8653 31.381L12.6382 31.2037C12.5358 31.205 12.4278 31.1613 12.3143 31.0727L8.60627 28.1782C8.49276 28.0896 8.42416 27.9954 8.40048 27.8958L8.60858 28.0582C8.55137 27.8715 8.57415 27.6863 8.67691 27.5026L7.33369 26.4541L7.48137 26.2649L7.78407 26.5012L8.07942 26.1228L9.44156 27.1861L9.73692 26.8077L9.37747 26.5272L9.52514 26.338L10.017 26.7219L10.0909 26.6273L9.93952 26.5092L10.2349 26.1308L9.97001 25.9241L10.0439 25.8295L9.83575 25.667L10.0573 25.3833L10.814 25.974L11.0355 25.6902L8.82205 23.9624L9.1174 23.584L11.2741 25.2675L11.5695 24.8891L11.0776 24.5052L11.3729 24.1268L11.2784 24.053L11.426 23.8638L11.9558 24.2773L12.1034 24.0881L12.1565 23.8251L13.197 24.6373L13.3032 24.1112L11.3735 22.6049L11.4266 22.3419L12.9401 23.5233L12.9932 23.2603L13.0292 23.1362L12.3292 22.5898L12.3463 22.4509L11.9679 22.1555L12.057 21.7684L12.0759 21.7831L12.093 21.6442L12.3578 21.851L12.4469 21.4638L11.8037 20.9617L11.8568 20.6987L12.9919 21.5848L13.0621 21.1828L12.7594 20.9466L12.8124 20.6835L12.3395 20.3143L12.3566 20.1754L12.4322 20.2345L12.5384 19.7085L12.6141 19.7675L12.6501 19.6434L12.9906 19.9092L13.0608 19.5073L12.8716 19.3596L12.9247 19.0966L12.5274 18.7865L12.5445 18.6476L12.658 18.7362L12.7111 18.4732L12.5976 18.3846L12.6146 18.2457L13.0876 18.6149L13.1578 18.2129L13.4037 18.4049L13.4739 18.003L12.282 17.0726L12.3351 16.8096L14.0756 18.1682L14.1287 17.9052L12.3882 16.5466L12.4413 16.2836L12.8196 16.5789L12.8556 16.4548L13.7259 17.1341L13.7619 17.01L13.8565 17.0838L13.9096 16.8208L13.2474 16.3039L13.3536 15.7779L13.4482 15.8517L13.4653 15.7128L13.3139 15.5947L13.331 15.4558L13.3121 15.441L13.4183 14.915L12.9831 14.5753L13.0533 14.1734L13.2803 14.3506L13.3163 14.2265L11.6893 12.9564L11.7955 12.4304L12.2306 12.77L12.2837 12.507L13.4377 13.4079L13.4737 13.2837L13.9467 13.6529L14.0169 13.251L13.2412 12.6455L13.2772 12.5214L14.3177 13.3336L14.3708 13.0706L13.2546 12.1993L13.3419 11.6585L13.9662 12.1458L13.9833 12.0069C13.9974 11.9368 14.0291 11.8702 14.0783 11.8071L14.0931 11.7882L14.6039 12.1869C14.6335 12.1491 14.6644 12.1225 14.6967 12.1071C14.7388 12.0791 14.776 12.0574 14.8083 12.042L15.1489 12.3079C15.3329 12.2282 15.5068 12.2524 15.6708 12.3803L19.2275 15.1567C19.3662 15.265 19.465 15.3725 19.5237 15.4793C19.5951 15.5959 19.6377 15.7103 19.6515 15.8226L19.311 15.5568C19.3291 15.6115 19.336 15.6677 19.3317 15.7252C19.34 15.7926 19.3406 15.8438 19.3336 15.8789L18.8228 15.4801C18.8086 15.5503 18.8015 15.5853 18.8015 15.5853L18.7337 15.8673L18.1283 15.3947L18.0221 15.9208L19.1572 16.8068L19.1041 17.0699L18.0447 16.2429L18.0276 16.3818L18.8033 16.9872L18.7142 17.3744L18.2412 17.0052L18.2241 17.1441L17.0701 16.2433L17.017 16.5063L16.563 16.1519L16.4568 16.6779L18.0838 17.9479L18.0667 18.0868L17.8208 17.8949L17.7506 18.2968L18.1857 18.6364L18.0796 19.1625L18.0985 19.1772L18.0814 19.3161L18.2328 19.4343L18.1968 19.5584L18.1022 19.4846L17.996 20.0106L18.4879 20.3946L18.9724 20.1639L19.0859 20.2525L19.2165 20.2022L19.3679 20.3204L19.4796 20.2553L19.0823 19.9452L19.5668 19.7145L19.0371 19.301L19.391 19.1206L19.6559 19.3273L19.7676 19.2623L20.8838 20.1336L21.3683 19.9029L20.0818 18.8987L20.3241 18.7833L20.5701 18.9753L20.6817 18.9102L20.5682 18.8216L20.9222 18.6412L21.5276 19.1138L21.6582 19.0635L21.3555 18.8272L21.5977 18.7119L21.4464 18.5937L21.9309 18.363L22.6309 18.9094L22.9069 18.7899C22.9069 18.7899 22.9392 18.7746 23.0038 18.7438L22.3416 18.2269C22.3865 18.2214 22.4364 18.2096 22.4911 18.1914C22.5459 18.1733 22.602 18.1664 22.6596 18.1707L23.6244 18.9238C23.7367 18.91 23.8581 18.9235 23.9885 18.9644C24.1189 19.0054 24.2472 19.0751 24.3733 19.1735L27.93 21.9499C28.094 22.0778 28.1597 22.2407 28.127 22.4385L27.1622 21.6854ZM18.2908 21.1541L18.5331 21.0388L18.1169 20.7139L18.2285 20.6488L17.6042 20.1615L17.5871 20.3004L17.1898 19.9903L17.1368 20.2533L18.2908 21.1541ZM31.0858 44.0815L30.9228 44.5632L30.6012 44.3122L30.5652 44.4363C30.5554 44.4489 30.5406 44.4678 30.5209 44.493C30.5237 44.5155 30.5201 44.533 30.5103 44.5457L30.3968 44.457L30.3673 44.4949C30.2491 44.6462 30.1038 44.7154 29.9312 44.7025L29.9501 44.7173C29.8476 44.7185 29.746 44.6797 29.6451 44.601L26.1451 41.8689C26.0568 41.8 25.9861 41.7346 25.9329 41.6728C25.9021 41.6082 25.8601 41.545 25.8069 41.4831C25.7454 41.3539 25.714 41.2381 25.7128 41.1357C25.7214 41.0206 25.7377 40.9217 25.7617 40.8389L25.8563 40.9128L25.8711 40.8939L25.8923 40.7887L25.9283 40.6645L26.2499 40.9156L26.4129 40.4338L26.0534 40.1532L26.1443 39.9198L26.92 40.5252L27.0829 40.0435L26.8559 39.8663L26.9025 39.6895L22.835 36.5145L22.6938 36.6174L22.4668 36.4402L22.039 36.7152L21.8309 36.5527L21.6075 36.6828L21.494 36.5942L21.0663 36.8692L21.0852 36.884L20.9735 36.949L20.8955 37.0099L20.8618 37.0141L20.7672 36.9403C20.6928 36.9836 20.6008 37.0235 20.4913 37.0598C20.3916 37.0834 20.2716 37.0811 20.1313 37.0528L20.6989 37.4958C20.6386 37.4691 20.5671 37.4437 20.4843 37.4197C20.4114 37.3831 20.3308 37.3303 20.2425 37.2614L16.7426 34.5294C16.6417 34.4506 16.5857 34.3663 16.5746 34.2765L16.0071 33.8334C15.9499 33.6467 15.9754 33.484 16.0837 33.3452L16.1133 33.3074L16.2268 33.396C16.2563 33.3582 16.2872 33.3315 16.3195 33.3162L16.4123 33.2363L16.3934 33.2216L16.8211 32.9466L16.9347 33.0352L17.158 32.9051L17.3661 33.0675L17.7939 32.7925L18.002 32.955L18.4298 32.68L17.692 32.104L17.9153 31.9739L17.8586 31.9296L18.1747 31.7197L18.3639 31.8673L18.4755 31.8023L18.0593 31.4774L18.4871 31.2024L19.1303 31.7045L19.3348 31.5596L18.7483 31.1018L18.86 31.0368L18.9546 31.1106L19.3824 30.8356L19.3256 30.7913L19.6417 30.5814L19.7174 30.6404L20.1452 30.3654L20.3911 30.5574L20.7072 30.3475L20.8189 30.2824L21.7648 31.0208L21.8765 30.9557L21.8197 30.9114L22.1359 30.7015L21.0764 29.8745L21.5042 29.5995L21.8447 29.8653L21.9564 29.8003L21.7483 29.6378L21.86 29.5728L22.4654 30.0453L22.8932 29.7703L22.1553 29.1944L22.3787 29.0643L22.6625 29.2858L23.0902 29.0108L22.92 28.8779L23.2361 28.6679L23.4442 28.8304L23.872 28.5554L23.8152 28.5111L23.9269 28.446L23.4918 28.1064L23.7151 27.9763L24.1313 28.3012L24.4474 28.0912L24.2583 27.9435L24.351 27.8637L24.6915 28.1295L25.1193 27.8545L24.7031 27.5296L25.0192 27.3197L24.8111 27.1573L25.0156 27.0124L23.7102 25.9934L23.9146 25.8485L23.6687 25.6565L24.0965 25.3815L23.8505 25.1896L24.1855 24.9944L24.9234 25.5703L25.3512 25.2953L27.243 26.7721L27.5591 26.5622L26.651 25.8533L26.8744 25.7232L27.5744 26.2696L28.0022 25.9946L27.3778 25.5073L27.694 25.2973L28.0912 25.6075L28.519 25.3325L28.4623 25.2882L28.8901 25.0132L28.3603 24.5997L28.4531 24.5198L30.2693 25.9375L30.6971 25.6625L30.6403 25.6182L30.752 25.5532L30.0898 25.0363L30.3575 24.8494L30.5176 24.7613L30.7068 24.909L30.968 24.8084L30.9112 24.7641C31.0432 24.725 31.1857 24.7246 31.3385 24.7627C31.5013 24.7883 31.6646 24.8651 31.8286 24.993L35.9339 28.1977C36.0979 28.3256 36.212 28.4655 36.2763 28.6171C36.3504 28.7562 36.3846 28.8945 36.3787 29.032L36.4544 29.0911L36.4202 29.3689L36.231 29.2212C36.2169 29.2913 36.195 29.3453 36.1655 29.3831L36.0681 29.7029L36.7303 30.2198L36.6753 30.3292L36.7321 30.3735L36.5692 30.8552L34.7719 29.4523L34.7359 29.5764L35.2656 29.9899L35.1027 30.4716L35.1595 30.5159L34.9965 30.9977L34.5992 30.6876L34.4723 31.0452L35.0966 31.5325L34.9337 32.0143L34.2337 31.4679L34.1617 31.7161L35.0698 32.425L34.9429 32.7826L33.051 31.3058L32.8881 31.7876L32.1503 31.2116L32.0233 31.5692L32.2504 31.7464L32.0874 32.2282L31.3496 31.6522L31.2776 31.9005L34.2857 34.2486L34.1948 34.4821L34.0434 34.3639L33.9165 34.7215L33.5381 34.4262L33.3752 34.9079L32.9211 34.5535L32.8662 34.6629L33.5473 35.1945L33.4204 35.5521L33.4393 35.5669L33.3673 35.8151L32.743 35.3278L32.707 35.4519L33.3124 35.9245L33.1494 36.4063L33.3575 36.5687L33.2306 36.9263L33.1739 36.882L33.0109 37.3638L33.3136 37.6L33.2416 37.8483L32.693 37.42L32.5301 37.9018L32.9084 38.1971L32.8535 38.3065L32.7589 38.2327L32.7229 38.3568L32.3824 38.091L32.2005 38.5579L33.2789 39.3997L33.152 39.7573L33.2087 39.8016L33.1727 39.9258L32.2079 39.1726L32.1719 39.2967L32.1908 39.3115L32.0639 39.6691L31.8179 39.4771L31.655 39.9589L31.5604 39.885L31.4524 40.2574L31.5092 40.3017L31.3462 40.7835L31.2517 40.7096L31.2157 40.8338L31.8021 41.2916L31.7301 41.5398L31.068 41.023L30.905 41.5047L31.3213 41.8296L31.2853 41.9537L31.0961 41.806L30.9881 42.1784L31.0259 42.208L30.9539 42.4562L31.6917 43.0322L31.5288 43.5139L31.7558 43.6911L31.5929 44.1729L30.8172 43.5674L30.7263 43.8009L31.0858 44.0815ZM29.0111 30.4357L29.2381 30.6129L28.922 30.8229L29.6976 31.4283L29.8246 31.0707L29.9759 31.1889L30.0668 30.9554L29.2155 30.2908L29.0111 30.4357ZM29.1185 31.5852L29.275 31.1897L28.9293 31.4375L29.1185 31.5852ZM26.2113 32.9694L26.0996 33.0344L26.3077 33.1969L26.2445 33.2388L28.3823 34.9076L28.4076 34.8361L28.5022 34.9099L28.5572 34.8006L28.1788 34.5052L28.3606 34.0382L28.9093 34.4665L29.0002 34.233L28.6786 33.9819L28.8604 33.515L28.9172 33.5593L29.063 33.2164L28.8549 33.054L29.0368 32.587L28.4314 32.1144L28.4674 31.9903L29.0917 32.4776L29.1826 32.2441L29.1637 32.2294L29.2906 31.8718L28.6852 31.3992L28.388 31.6239L27.9718 31.299L27.7674 31.4439L28.1836 31.7688L28.0908 31.8486L28.1476 31.8929L27.7387 32.1827L27.5306 32.0202L27.2145 32.2302L27.3848 32.3631L26.9759 32.6528L26.6921 32.4313L26.4877 32.5762L27.2255 33.1522L26.8166 33.4419L26.2113 32.9694ZM44.932 54.8897L44.8636 55.4453L44.0312 54.7955L44.0354 54.8292C44.0381 54.8517 44.0247 54.8818 43.9952 54.9197C43.9783 54.9674 43.9663 55.0087 43.9592 55.0438L43.9025 54.9995L43.8729 55.0373C43.8335 55.0878 43.7928 55.127 43.7506 55.155C43.7085 55.183 43.66 55.2061 43.6053 55.2242L43.8512 55.4162C43.7964 55.4343 43.7403 55.4412 43.6828 55.4369L42.5855 54.5804C42.483 54.5816 42.3814 54.5429 42.2805 54.4641L37.967 51.0971C37.8914 51.038 37.8269 50.9775 37.7737 50.9157C37.7303 50.8412 37.6883 50.778 37.6477 50.726L38.745 51.5826C38.717 51.5404 38.6849 51.4646 38.6486 51.3551L38.4026 51.1631C38.379 51.0634 38.3679 50.9736 38.3694 50.8936C38.3836 50.8234 38.3879 50.7659 38.3824 50.721L38.3782 50.6873L38.435 50.7316L38.4881 50.4686L39.3016 51.1036L39.3888 50.5628L41.0915 51.8919L41.1086 51.753L39.6329 50.6011L39.6435 50.5485L39.614 50.5863L36.6627 48.2826L36.5889 48.3772L38.5564 49.913L38.261 50.2914L37.0502 49.3462L36.9026 49.5354L35.0675 48.103C35.0281 48.1534 34.9761 48.194 34.9115 48.2248C34.8469 48.2555 34.7872 48.28 34.7324 48.2981L34.5622 48.1652C34.4723 48.1763 34.4099 48.1783 34.3748 48.1712L33.1451 47.2113C33.0427 47.2125 32.9347 47.1688 32.8212 47.0802L29.2077 44.2596C29.0942 44.171 29.0256 44.0768 29.0019 43.9772L30.2127 44.9223C30.1974 44.89 30.1841 44.8289 30.1731 44.7391L30.3433 44.872C30.3476 44.8145 30.3569 44.7506 30.371 44.6805C30.3852 44.6104 30.4119 44.5501 30.4513 44.4996L32.2675 45.9173L32.4152 45.7281L33.626 46.6733L33.9213 46.2949L31.9538 44.7591L32.0276 44.6645L34.9789 46.9682L35.2005 46.6845L31.587 43.8638L31.8085 43.58L32.1491 43.8459L32.4444 43.4675L32.7471 43.7038L32.8948 43.5146L32.838 43.4703L33.1334 43.0919L33.0956 43.0624L33.3909 42.684L33.2396 42.5659L33.4611 42.2821L33.5746 42.3707L33.7223 42.1815L33.9304 42.3439L34.2257 41.9656L34.9068 42.4972L35.1283 42.2134L32.7256 40.3379L32.8733 40.1487L32.7031 40.0158L32.7769 39.9212L34.9336 41.6048L35.0813 41.4156L35.2705 41.5633L35.3443 41.4687L32.8849 39.5488L33.1064 39.2651L33.428 39.5161L33.5757 39.3269L33.6892 39.4155L33.9846 39.0372L35.8386 40.4844L35.9863 40.2952L36.4971 40.694L36.7186 40.4102L34.3349 38.5494L34.6302 38.1711L35.2734 38.6732L35.495 38.3894L36.3274 39.0392L36.4012 38.9446L37.6688 39.934L37.8164 39.7448L38.4786 40.2617L38.7001 39.9779L38.8325 40.0813L38.9064 39.9867L38.5091 39.6766L38.7306 39.3928L37.4631 38.4034L37.5369 38.3088L36.6477 37.6147L36.9431 37.2363L40.4809 39.9979L40.6285 39.8087L36.2773 36.4121L36.4249 36.2229L39.6978 38.7778L39.9194 38.494L36.76 36.0278L36.9076 35.8386L38.1373 36.7985L38.285 36.6093L39.458 37.5249L39.7533 37.1465L39.375 36.8512L39.5965 36.5674L39.71 36.656L39.9315 36.3722L39.3829 35.9439L39.4567 35.8494L39.0594 35.5392L39.2809 35.2555L39.1674 35.1668L39.2413 35.0723L39.4872 35.2642L39.6349 35.075L39.8808 35.267L40.1762 34.8887L38.0951 33.2642L38.169 33.1696L38.2825 33.2582L38.3563 33.1636L39.132 33.7691L39.2058 33.6745L38.941 33.4678L39.0148 33.3732L40.4715 34.5103L40.5454 34.4157L40.1859 34.1351L40.2598 34.0405L40.2408 34.0257L40.5362 33.6474L40.6308 33.7212L40.7785 33.532L42.0838 34.551L42.2315 34.3618L42.4018 34.4947L42.5495 34.3055L42.6251 34.3646L42.699 34.27L40.6747 32.6899C40.7956 32.561 40.9571 32.4841 41.1592 32.4592L41.3673 32.6216C41.5021 32.605 41.6388 32.6509 41.7776 32.7592L45.391 35.5798C45.5171 35.6783 45.5948 35.7998 45.624 35.9444L45.4159 35.7819C45.4633 35.9813 45.4279 36.1566 45.3097 36.308L47.334 37.8881L47.2602 37.9827L47.1845 37.9236L47.0368 38.1128L46.8666 37.9799L46.7189 38.1691L45.4135 37.1501L45.2658 37.3393L45.1712 37.2655L44.8759 37.6438L44.8948 37.6586L44.821 37.7532L45.1804 38.0338L45.1066 38.1284L43.6499 36.9913L43.576 37.0859L43.8409 37.2926L43.767 37.3872L42.9914 36.7817L42.9175 36.8763L42.804 36.7877L42.7302 36.8823L44.5085 38.2705L44.6391 38.2202L45.2445 38.6928L45.3562 38.6277L46.4535 39.4842L46.5841 39.4339L45.4868 38.5774L45.6174 38.5271L45.939 38.7782L46.0696 38.7279L46.1642 38.8017L46.2948 38.7514L46.465 38.8843L46.5767 38.8193L46.7848 38.9817L47.1577 38.8161L47.0631 38.7422L47.3243 38.6417L48.4027 39.4834L48.6449 39.3681L47.7747 38.6888L48.0169 38.5734L48.9629 39.3118L49.0745 39.2468L47.7881 38.2425L47.885 38.1964C48.0465 38.1195 48.2199 38.0924 48.4051 38.1152L48.2537 37.9971C48.4263 38.01 48.6072 38.0903 48.7964 38.238L52.9774 41.5017C53.0909 41.5903 53.1559 41.702 53.1725 41.8367L53.3428 41.9696C53.3622 42.1268 53.3276 42.2622 53.2389 42.3757C53.2094 42.4135 53.1834 42.4338 53.161 42.4366L54.4663 43.4556C54.4565 43.4682 54.4403 43.4759 54.4179 43.4786C54.408 43.4912 54.3933 43.5102 54.3736 43.5354L53.4466 42.8118L53.3792 42.8201L53.1854 42.9123L54.0556 43.5917L53.7945 43.6922L52.7161 42.8505L52.4549 42.9511L52.5495 43.0249L52.1577 43.1758L51.9685 43.0281L51.8379 43.0784L51.6677 42.9455L51.5371 42.9958L51.4425 42.9219L51.3119 42.9722L50.9713 42.7064L50.8408 42.7567L51.957 43.628L51.8264 43.6783L50.7291 42.8217L50.5985 42.872L49.9931 42.3995L49.8625 42.4498L49.976 42.5384L49.4725 42.7543L50.2293 43.345L49.9681 43.4456L50.1384 43.5785L50.0078 43.6288L50.0267 43.6435L49.6349 43.7944L49.8998 44.0012L49.7692 44.0514L49.7881 44.0662L49.3963 44.2171L49.0179 43.9217L48.6262 44.0726L49.0234 44.3827L48.5011 44.5839L48.293 44.4214L48.0318 44.522L46.8021 43.5621L46.5409 43.6627L49.7003 46.1289L49.3085 46.2798L46.0356 43.725L45.7744 43.8255L50.1257 47.2221L49.8645 47.3227L46.3267 44.5611L45.8043 44.7623L46.6935 45.4564L46.5629 45.5067L47.8304 46.4961L47.4387 46.647L47.836 46.9571L47.7054 47.0074L47.5729 46.904L47.1811 47.0549L46.519 46.538L46.4221 46.5841L46.4092 46.7567L45.1416 45.7673L45.1245 45.9062L44.2921 45.2564L44.2409 45.6731L43.5787 45.1562L43.5104 45.7118L45.8941 47.5725L45.8429 47.9892L45.3321 47.5905L45.2979 47.8683L43.4439 46.4211L43.3755 46.9766L43.262 46.888L43.2279 47.1658L42.9063 46.9148L42.855 47.3315L45.3144 49.2513L45.2973 49.3902L45.0892 49.2277L45.0551 49.5055L44.5253 49.092L44.5083 49.2309L44.3191 49.0832L44.2849 49.361L42.8849 48.2682L42.8337 48.6849L44.4607 49.9549L44.3924 50.5105L44.3545 50.481L44.3203 50.7588L44.4717 50.8769L44.4204 51.2936L44.761 51.5594L44.6927 52.115L44.3521 51.8492L44.2838 52.4048L44.3027 52.4195L44.2496 52.6826L44.2875 52.7121L44.2191 53.2677L44.3326 53.3563L44.2814 53.773L45.2273 54.5114L45.1761 54.9281L46.6517 56.0799L46.6346 56.2188L44.932 54.8897ZM43.6945 39.1573L44.0918 39.4675L44.0179 39.562L44.453 39.9017L44.5836 39.8514L44.3188 39.6447L44.6916 39.479L44.6727 39.4643L44.8033 39.414L44.6331 39.2811L44.8753 39.1657L44.2699 38.6932L44.1223 38.8823L43.8763 38.6904L43.8025 38.7849L43.916 38.8736L43.6945 39.1573ZM43.0147 40.3012L42.9201 40.2274L42.7872 40.3977L43.0147 40.3012ZM39.5687 45.2229L39.6254 45.2672L39.672 45.0904L39.5687 45.2229ZM37.3381 43.6339L37.5084 43.7668L37.3607 43.956L38.8553 45.1227L38.8894 44.8449L39.0786 44.9926L39.0957 44.8537L37.412 43.5393L37.3381 43.6339ZM36.2221 47.4819L38.7572 49.4608L38.8273 49.0589L38.6949 48.9555L38.7821 48.4147L38.7443 48.3851L38.7974 48.1221L38.7785 48.1074L38.8657 47.5665L39.2063 47.8324L39.2935 47.2915L38.953 47.0257L39.0042 46.609L38.8529 46.4909L38.906 46.2279L38.9438 46.2574L39.0121 45.7018L38.8608 45.5837L38.5654 45.962L38.3573 45.7996L38.2096 45.9888L38.0961 45.9002L37.8746 46.184L38.026 46.3021L37.7306 46.6805L37.7684 46.71L37.4731 47.0884L37.5298 47.1327L37.3822 47.3219L37.0795 47.0856L36.7841 47.464L36.4436 47.1981L36.2221 47.4819ZM61.6988 57.9306L62.6447 58.6689L62.3493 59.0473L62.1791 58.9144L61.8837 59.2928L61.7134 59.1599L61.4919 59.4437L61.0946 59.1335L61.0208 59.2281L61.1721 59.3463L61.0983 59.4409L60.5686 59.0274L60.4209 59.2165L61.329 59.9254L61.1075 60.2092L60.5588 59.7809L60.485 59.8755L60.5039 59.8903C60.4547 59.9533 60.3992 60.0115 60.3373 60.0647C60.2881 60.1278 60.2389 60.1908 60.1897 60.2539L60.1707 60.2391C60.1286 60.2671 60.078 60.3189 60.0189 60.3946L59.8565 60.6027L59.7619 60.5289C59.7296 60.5443 59.6986 60.5709 59.6691 60.6087C59.6396 60.6465 59.615 60.6781 59.5953 60.7033L59.7845 60.851L59.4323 61.185L59.2621 61.0521C59.2002 61.1053 59.1384 61.1586 59.0766 61.2118C59.0273 61.2748 58.9655 61.3281 58.8911 61.3714L59.0992 61.5339C59.0893 61.5465 59.0732 61.5542 59.0507 61.5569C59.0409 61.5696 59.0261 61.5885 59.0064 61.6137L59.2902 61.8352C59.2803 61.8478 59.2642 61.8555 59.2417 61.8583C59.2319 61.8709 59.2171 61.8898 59.1974 61.915L58.8569 61.6492C58.8049 61.6898 58.7529 61.7304 58.7009 61.771C58.6588 61.799 58.6117 61.8333 58.5597 61.8739L58.5029 61.8296L58.1679 62.0248L57.9598 61.8624C57.9078 61.903 57.8495 61.9386 57.7849 61.9694C57.7301 61.9875 57.6705 62.012 57.6059 62.0428L57.7761 62.1757C57.7017 62.219 57.6209 62.2575 57.5339 62.291L57.4203 62.2024C57.3684 62.243 57.3037 62.2738 57.2265 62.2947C57.1718 62.3128 57.1121 62.3373 57.0475 62.368L57.634 62.8258L57.3538 62.9117L56.6539 62.3653L56.2242 62.4866L56.4323 62.649L55.946 62.7261L56.1541 62.8885C56.1316 62.8913 56.1029 62.8891 56.0678 62.882C56.0453 62.8848 56.0179 62.8939 55.9856 62.9093L56.2127 63.0865C56.1551 63.0822 56.0927 63.0842 56.0253 63.0925C55.9706 63.1106 55.9144 63.1175 55.8569 63.1132L55.4974 62.8326C55.4399 62.8283 55.3774 62.8303 55.3101 62.8386C55.2427 62.8469 55.1739 62.844 55.1038 62.8298L55.2362 62.9332C55.1787 62.9289 55.11 62.926 55.03 62.9244C54.9626 62.9327 54.8938 62.9298 54.8237 62.9156L54.7859 62.8861C54.6231 62.8606 54.4604 62.835 54.2977 62.8095C54.1349 62.7839 53.9659 62.7535 53.7905 62.7181L53.7338 62.6738C53.6861 62.6568 53.6384 62.6399 53.5907 62.623C53.543 62.6061 53.4904 62.5955 53.4329 62.5911C53.3151 62.5601 53.1973 62.529 53.0794 62.4979C52.9841 62.4641 52.8761 62.4204 52.7555 62.3668L52.7366 62.3521C52.2219 62.1533 51.694 61.8935 51.1529 61.5726L51.1718 61.5873C50.9504 61.455 50.7212 61.3066 50.4843 61.142C50.2601 60.9872 50.0407 60.8262 49.8263 60.6588C49.5993 60.4816 49.3835 60.303 49.1789 60.123C48.9744 59.943 48.7747 59.7567 48.58 59.5642C48.1401 59.1396 47.7536 58.6856 47.4205 58.2023L47.4394 58.2171C47.3708 58.123 47.3022 58.0288 47.2336 57.9347C47.1748 57.8279 47.1161 57.7212 47.0573 57.6144L47.0384 57.5996C47.0203 57.5449 46.9972 57.4964 46.9692 57.4543C46.9412 57.4121 46.9132 57.37 46.8852 57.3278L46.942 57.3721C46.8651 57.2106 46.7945 57.054 46.7302 56.9024C46.6659 56.7507 46.6016 56.599 46.5374 56.4474L46.5752 56.4769L46.4391 56.0662L46.3256 55.9776C46.2948 55.913 46.2753 55.847 46.267 55.7796C46.2587 55.7123 46.2455 55.6512 46.2273 55.5964L46.5868 55.877L46.5074 55.5106L46.2804 55.3334C46.2875 55.2983 46.2896 55.2696 46.2869 55.2471C46.2841 55.2247 46.275 55.1973 46.2596 55.165L46.0705 55.0173C46.0594 54.9275 46.0434 54.8439 46.0225 54.7667C46.024 54.6867 46.0256 54.6067 46.0271 54.5268L45.819 54.3643L45.8135 53.9033L46.5135 54.4497L46.5477 54.1719L45.9423 53.6994C45.9564 53.6292 45.9657 53.5654 45.97 53.5079C45.9841 53.4377 45.9983 53.3676 46.0124 53.2975L46.1259 53.3861C46.1373 53.2935 46.155 53.2058 46.179 53.123L46.0088 52.9901C46.0229 52.92 46.0321 52.8561 46.0365 52.7986C46.0632 52.7383 46.0837 52.6731 46.0978 52.603L46.3249 52.7802L46.4329 52.4078L46.4896 52.4521C46.5164 52.3918 46.5382 52.3378 46.5552 52.2901C46.5819 52.2298 46.6087 52.1695 46.6355 52.1092L46.8436 52.2717C46.8507 52.2366 46.869 52.2002 46.8985 52.1623L46.7093 52.0147C46.729 51.9894 46.7375 51.9656 46.7347 51.9431C46.7445 51.9305 46.7544 51.9179 46.7642 51.9053L46.7264 51.8758C46.763 51.8029 46.7996 51.7299 46.8362 51.657C46.8728 51.5841 46.9095 51.5112 46.9461 51.4383L47.0407 51.5122C47.0773 51.4392 47.1139 51.3663 47.1505 51.2934C47.1997 51.2304 47.249 51.1673 47.2982 51.1042L47.1847 51.0156L47.3134 50.8117L47.4459 50.9151L47.6083 50.707C47.628 50.6817 47.6414 50.6516 47.6485 50.6165C47.678 50.5787 47.7026 50.5471 47.7223 50.5219L47.4764 50.3299C47.513 50.257 47.5559 50.1891 47.6051 50.126C47.6543 50.0629 47.7036 49.9999 47.7528 49.9368L47.8852 50.0402L47.9591 49.9456L47.9023 49.9013L48.1238 49.6175L48.5022 49.9129L48.6499 49.7237L47.9877 49.2068L48.0616 49.1122L48.421 49.3928L48.4949 49.2982L48.4759 49.2834L48.6975 48.9997L48.6029 48.9258L48.8982 48.5474L49.0117 48.6361L49.3071 48.2577L49.1747 48.1543L49.3962 47.8705L48.6962 47.3241L48.9915 46.9457L49.805 47.5808C49.8373 47.5654 49.8683 47.5388 49.8978 47.5009L50.2005 47.7372L50.2743 47.6426L50.0473 47.4654L50.195 47.2762L50.2139 47.291L50.5471 46.9422L50.5093 46.9126C50.5486 46.8622 50.5831 46.818 50.6126 46.7802C50.6646 46.7396 50.7166 46.699 50.7686 46.6584L50.7119 46.6141C50.7512 46.5636 50.7857 46.5195 50.8152 46.4816C50.8672 46.441 50.9192 46.4004 50.9712 46.3598L50.9334 46.3303C50.9854 46.2897 51.0324 46.2554 51.0746 46.2274C51.1266 46.1868 51.1786 46.1462 51.2306 46.1056L50.7008 45.6921C50.7205 45.6669 50.7353 45.6479 50.7451 45.6353C50.7676 45.6326 50.7838 45.6249 50.7936 45.6123L51.3612 46.0553L51.5656 45.9104L51.5278 45.8809L51.6394 45.8158L51.9232 46.0373C51.9555 46.022 51.9927 46.0003 52.0349 45.9723C52.077 45.9443 52.1143 45.9226 52.1466 45.9072L51.9574 45.7595C52.0838 45.6756 52.2327 45.5888 52.4041 45.4993L52.3473 45.455C52.4344 45.4215 52.5151 45.383 52.5896 45.3397C52.6865 45.2935 52.7736 45.26 52.8508 45.2391L52.9075 45.2834L53.0381 45.2331L52.7354 44.9968L52.866 44.9465L53.1687 45.1828L53.2993 45.1325L53.2615 45.103L53.71 44.9964L53.5776 44.893L54.0451 44.8012C54.1573 44.7874 54.2696 44.7736 54.3819 44.7597C54.5167 44.7431 54.6416 44.7391 54.7566 44.7478L54.5674 44.6001L54.7548 44.5941L54.5467 44.4317C54.5916 44.4261 54.6253 44.422 54.6477 44.4192C54.6828 44.4263 54.7179 44.4334 54.7529 44.4404L55.2259 44.8096C55.296 44.8238 55.3711 44.8316 55.4511 44.8332C55.5311 44.8347 55.6061 44.8426 55.6763 44.8567L55.733 44.901C55.9084 44.9364 56.0837 44.9718 56.2591 45.0072C56.4443 45.03 56.6196 45.0654 56.7851 45.1134L56.8419 45.1577C57.1827 45.2411 57.5341 45.3631 57.8958 45.5237L57.9904 45.5975C58.4349 45.7821 58.8787 46.0067 59.3217 46.2713C59.7646 46.5359 60.2005 46.8356 60.6294 47.1703C61.5248 47.8693 62.2407 48.5905 62.7768 49.3338L62.6633 49.2452C62.7725 49.3913 62.8768 49.5437 62.9761 49.7025C63.0854 49.8486 63.1784 50.0024 63.2553 50.1639L63.1796 50.1049C63.279 50.2636 63.3559 50.4251 63.4103 50.5894C63.4872 50.7509 63.5641 50.9124 63.641 51.074L63.5653 51.0149L63.7014 51.4256L63.2285 51.0564C63.2439 51.0887 63.2529 51.1161 63.2557 51.1385C63.2711 51.1708 63.2815 51.2094 63.2871 51.2544L63.4952 51.4168C63.5106 51.4491 63.5259 51.4814 63.5413 51.5137C63.5567 51.546 63.5608 51.5797 63.5538 51.6148L63.7429 51.7625C63.7792 51.872 63.7994 51.9892 63.8034 52.1141C63.8298 52.2362 63.85 52.3534 63.8638 52.4657L63.8827 52.4805C63.8938 52.5703 63.8986 52.6552 63.897 52.7352C63.9053 52.8026 63.9087 52.8763 63.9071 52.9562L64.0396 53.0596L64.0451 53.5206L64.0829 53.5501C64.0912 53.6175 64.0918 53.6687 64.0848 53.7038L63.7821 53.4675L63.765 53.6064L64.0866 53.8575L64.0695 53.9964L64.0128 53.9521C64.0112 54.0321 63.9935 54.1197 63.9597 54.2151C63.9483 54.3077 63.9369 54.4003 63.9255 54.4929L63.9823 54.5372L63.8572 55.0485L64.0464 55.1961L63.9554 55.4296L63.6717 55.2081L63.6357 55.3322L63.6735 55.3618L63.5826 55.5953L63.5258 55.551C63.516 55.5636 63.5061 55.5762 63.4963 55.5888C63.499 55.6113 63.4906 55.6351 63.4709 55.6603L62.6763 55.0401C62.6622 55.1102 62.6354 55.1705 62.596 55.221C62.5791 55.2687 62.5572 55.3226 62.5305 55.3829L63.5142 56.1509C63.4875 56.2112 63.4544 56.2665 63.415 56.317C63.3981 56.3647 63.3699 56.4137 63.3306 56.4642L63.0657 56.2574C63.0389 56.3177 63.0059 56.3731 62.9665 56.4235C62.9496 56.4712 62.9214 56.5203 62.882 56.5707L63.128 56.7627L62.8704 57.1706L62.6245 56.9786L62.5802 57.0354C62.5704 57.048 62.5556 57.0669 62.5359 57.0922C62.5288 57.1272 62.5154 57.1574 62.4957 57.1826L63.0065 57.5813L62.9327 57.6759L62.4787 57.3215C62.4716 57.3566 62.4533 57.393 62.4237 57.4309L62.7643 57.6967C62.7277 57.7696 62.6847 57.8376 62.6355 57.9006C62.5863 57.9637 62.5371 58.0268 62.4878 58.0898L61.9203 57.6468L61.6988 57.9306ZM57.2602 55.0748L57.4305 55.2077L57.7259 54.8293L56.7799 54.0909L57.0014 53.8072L57.569 54.2502C57.6182 54.1871 57.6675 54.1241 57.7167 54.061C57.7659 53.9979 57.8088 53.93 57.8454 53.8571L57.5049 53.5912C57.5246 53.566 57.5331 53.5422 57.5303 53.5197C57.5401 53.5071 57.55 53.4945 57.5598 53.4819L58.0139 53.8363L58.0877 53.7417L57.5769 53.343C57.5966 53.3178 57.6051 53.2939 57.6023 53.2715C57.6121 53.2588 57.622 53.2462 57.6318 53.2336L57.7057 53.139L57.9327 53.3162C57.9819 53.2532 58.0248 53.1852 58.0614 53.1123C58.1205 53.0366 58.1634 52.9686 58.1902 52.9083L57.9443 52.7164C57.971 52.6561 57.9929 52.6021 58.0098 52.5544C58.0366 52.4941 58.057 52.4289 58.0712 52.3587L58.336 52.5655C58.377 52.435 58.4004 52.3011 58.4062 52.1636L57.4224 51.3956C57.4381 51.2455 57.4111 51.0722 57.3413 50.8756L58.1358 51.4958C58.0996 51.3863 58.0674 51.3105 58.0394 51.2683L58.0962 51.3126C57.9661 51.0893 57.7875 50.889 57.5605 50.7118C57.3334 50.5346 57.0958 50.41 56.8475 50.338L56.2989 49.9097C56.2386 49.8829 56.1509 49.8652 56.0359 49.8566L56.5656 50.2701C56.4155 50.2544 56.2407 50.2702 56.0414 50.3176L56.0792 50.3471C55.9473 50.3862 55.823 50.4414 55.7064 50.5128L55.7631 50.5571C55.7111 50.5977 55.6591 50.6383 55.6071 50.6789C55.565 50.7069 55.5116 50.7362 55.447 50.767L55.4848 50.7965C55.4329 50.8371 55.371 50.8904 55.2993 50.9562C55.2501 51.0193 55.2009 51.0823 55.1517 51.1454L55.1138 51.1158L54.9661 51.305L55.1932 51.4822L55.1193 51.5768L54.8166 51.3406L54.7428 51.4351L53.9104 50.7854L53.615 51.1637L54.315 51.7101L54.0935 51.9939L54.2259 52.0973L53.9306 52.4757L53.817 52.3871L53.5217 52.7654L53.6163 52.8393L53.3948 53.1231L53.4137 53.1378C53.3842 53.1757 53.3658 53.2121 53.3588 53.2472L52.9804 52.9518L52.9066 53.0464L53.5687 53.5633L53.421 53.7525L53.0427 53.4571L52.8211 53.7409L52.8779 53.7852L52.8041 53.8798L52.6716 53.7764C52.6224 53.8395 52.5732 53.9025 52.524 53.9656C52.4873 54.0385 52.4444 54.1065 52.3952 54.1696L52.6601 54.3763L52.6158 54.4331C52.5764 54.4835 52.5321 54.5403 52.4828 54.6033C52.4435 54.6538 52.4104 54.7092 52.3836 54.7694L52.2512 54.6661C52.2441 54.7011 52.2258 54.7376 52.1963 54.7754C52.1667 54.8133 52.1484 54.8497 52.1413 54.8848L52.2549 54.9734C52.2182 55.0463 52.1879 55.1241 52.1639 55.2069C52.1399 55.2896 52.1159 55.3724 52.0919 55.4551L51.9973 55.3813C51.9647 55.5791 51.9672 55.784 52.0047 55.996L52.0425 56.0255C52.0579 56.0578 52.0684 56.0964 52.0739 56.1413C52.0893 56.1736 52.1047 56.2059 52.12 56.2382L52.2903 56.3711C52.3183 56.4133 52.3414 56.4617 52.3595 56.5165C52.3875 56.5587 52.4155 56.6008 52.4435 56.643L52.2165 56.4657C52.3284 56.6343 52.4853 56.7974 52.6871 56.9549C52.8889 57.1124 53.0852 57.225 53.2759 57.2927L53.5975 57.5438C53.6452 57.5607 53.6929 57.5776 53.7406 57.5946C53.7981 57.5989 53.8507 57.6095 53.8984 57.6264L53.5957 57.3901C53.6308 57.3972 53.6658 57.4043 53.7009 57.4114C53.7458 57.4058 53.7858 57.4066 53.8209 57.4137L53.6128 57.2512C53.7952 57.2515 53.9945 57.2042 54.2108 57.1091L54.3811 57.242C54.5524 57.1525 54.7013 57.0658 54.8278 56.9818L54.6386 56.8341C54.6709 56.8188 54.7018 56.7922 54.7314 56.7543C54.7609 56.7165 54.7918 56.6899 54.8241 56.6745L54.9187 56.7483C54.9707 56.7077 55.0164 56.6622 55.0558 56.6117C55.105 56.5487 55.1493 56.4919 55.1887 56.4415L55.233 56.3847L55.2708 56.4143C55.32 56.3512 55.3693 56.2881 55.4185 56.2251C55.4677 56.162 55.5233 56.1039 55.5851 56.0507L55.5662 56.0359L55.64 55.9413L56.1887 56.3696L56.4102 56.0858L55.5021 55.3769L55.6498 55.1877L56.1795 55.6012L56.2533 55.5066L56.102 55.3885L56.1758 55.2939L56.5731 55.604L56.7946 55.3203L56.9649 55.4532L57.2602 55.0748Z" fill="black"/>
</svg>
